<ttFont>
    <TTGlyph name=".001" xMin="27" yMin="-160" xMax="461" yMax="480">
      <contour>
        <pt x="80" y="-84" on="1"/>
        <pt x="141" y="-84" on="0"/>
        <pt x="237" y="-49" on="0"/>
        <pt x="307" y="9" on="0"/>
        <pt x="350" y="82" on="0"/>
        <pt x="357" y="120" on="1"/>
        <pt x="355" y="122" on="1"/>
        <pt x="332" y="95" on="0"/>
        <pt x="263" y="66" on="0"/>
        <pt x="224" y="66" on="1"/>
        <pt x="177" y="66" on="0"/>
        <pt x="104" y="96" on="0"/>
        <pt x="53" y="149" on="0"/>
        <pt x="27" y="222" on="0"/>
        <pt x="27" y="265" on="1"/>
        <pt x="27" y="314" on="0"/>
        <pt x="62" y="394" on="0"/>
        <pt x="121" y="450" on="0"/>
        <pt x="200" y="480" on="0"/>
        <pt x="244" y="480" on="1"/>
        <pt x="290" y="480" on="0"/>
        <pt x="370" y="448" on="0"/>
        <pt x="428" y="382" on="0"/>
        <pt x="461" y="282" on="0"/>
        <pt x="461" y="215" on="1"/>
        <pt x="461" y="138" on="0"/>
        <pt x="413" y="1" on="0"/>
        <pt x="320" y="-101" on="0"/>
        <pt x="184" y="-160" on="0"/>
        <pt x="96" y="-160" on="1"/>
        <pt x="85" y="-160" on="0"/>
        <pt x="61" y="-158" on="0"/>
        <pt x="50" y="-156" on="1"/>
        <pt x="42" y="-81" on="1"/>
        <pt x="51" y="-83" on="0"/>
        <pt x="67" y="-84" on="0"/>
      </contour>
      <contour>
        <pt x="364" y="253" on="1"/>
        <pt x="364" y="283" on="0"/>
        <pt x="349" y="337" on="0"/>
        <pt x="319" y="379" on="0"/>
        <pt x="273" y="403" on="0"/>
        <pt x="242" y="403" on="1"/>
        <pt x="216" y="403" on="0"/>
        <pt x="174" y="383" on="0"/>
        <pt x="143" y="347" on="0"/>
        <pt x="126" y="298" on="0"/>
        <pt x="126" y="269" on="1"/>
        <pt x="126" y="210" on="0"/>
        <pt x="190" y="142" on="0"/>
        <pt x="242" y="142" on="1"/>
        <pt x="285" y="142" on="0"/>
        <pt x="335" y="174" on="0"/>
        <pt x="348" y="194" on="1"/>
        <pt x="357" y="208" on="0"/>
        <pt x="364" y="237" on="0"/>
      </contour>
    </TTGlyph>
    <TTGlyph name=".004" xMin="65" yMin="-161" xMax="481" yMax="472">
      <contour>
        <pt x="378" y="472" on="1"/>
        <pt x="481" y="472" on="1"/>
        <pt x="481" y="0" on="1"/>
        <pt x="402" y="0" on="1"/>
        <pt x="389" y="57" on="1"/>
        <pt x="385" y="57" on="1"/>
        <pt x="361" y="31" on="0"/>
        <pt x="288" y="-10" on="0"/>
        <pt x="234" y="-10" on="1"/>
        <pt x="192" y="-10" on="0"/>
        <pt x="159" y="7" on="1"/>
        <pt x="168" y="-73" on="1"/>
        <pt x="168" y="-161" on="1"/>
        <pt x="65" y="-161" on="1"/>
        <pt x="65" y="472" on="1"/>
        <pt x="168" y="472" on="1"/>
        <pt x="168" y="169" on="1"/>
        <pt x="168" y="114" on="0"/>
        <pt x="219" y="70" on="0"/>
        <pt x="255" y="70" on="1"/>
        <pt x="294" y="70" on="0"/>
        <pt x="354" y="103" on="0"/>
        <pt x="378" y="130" on="1"/>
      </contour>
    </TTGlyph>
    <TTGlyph name=".notdef" xMin="0" yMin="0" xMax="506" yMax="699">
      <contour>
        <pt x="0" y="699" on="1"/>
        <pt x="506" y="699" on="1"/>
        <pt x="506" y="0" on="1"/>
        <pt x="0" y="0" on="1"/>
      </contour>
      <contour>
        <pt x="415" y="645" on="1"/>
        <pt x="91" y="645" on="1"/>
        <pt x="253" y="402" on="1"/>
      </contour>
      <contour>
        <pt x="447" y="112" on="1"/>
        <pt x="447" y="588" on="1"/>
        <pt x="288" y="350" on="1"/>
      </contour>
      <contour>
        <pt x="415" y="54" on="1"/>
        <pt x="253" y="297" on="1"/>
        <pt x="91" y="54" on="1"/>
      </contour>
      <contour>
        <pt x="59" y="112" on="1"/>
        <pt x="218" y="350" on="1"/>
        <pt x="59" y="588" on="1"/>
      </contour>
    </TTGlyph>
    <TTGlyph name=".notdef#1" xMin="-199" yMin="628" xMax="42" yMax="881">
      <contour>
        <pt x="-64" y="721" on="1"/>
        <pt x="-64" y="735" on="0"/>
        <pt x="-45" y="755" on="0"/>
        <pt x="-29" y="755" on="1"/>
        <pt x="-13" y="755" on="0"/>
        <pt x="5" y="735" on="0"/>
        <pt x="5" y="721" on="1"/>
        <pt x="5" y="705" on="0"/>
        <pt x="-13" y="686" on="0"/>
        <pt x="-29" y="686" on="1"/>
        <pt x="-45" y="686" on="0"/>
        <pt x="-64" y="705" on="0"/>
      </contour>
      <contour>
        <pt x="-160" y="628" on="1"/>
        <pt x="-160" y="637" on="1"/>
        <pt x="-178" y="660" on="0"/>
        <pt x="-199" y="719" on="0"/>
        <pt x="-199" y="749" on="1"/>
        <pt x="-199" y="814" on="0"/>
        <pt x="-121" y="881" on="0"/>
        <pt x="-58" y="881" on="1"/>
        <pt x="-27" y="881" on="0"/>
        <pt x="25" y="866" on="0"/>
        <pt x="42" y="855" on="1"/>
        <pt x="20" y="786" on="1"/>
        <pt x="-9" y="803" on="0"/>
        <pt x="-40" y="803" on="1"/>
        <pt x="-75" y="803" on="0"/>
        <pt x="-111" y="762" on="0"/>
        <pt x="-111" y="729" on="1"/>
        <pt x="-111" y="699" on="0"/>
        <pt x="-89" y="652" on="0"/>
        <pt x="-75" y="632" on="1"/>
      </contour>
    </TTGlyph>
    <TTGlyph name=".notdef#2" xMin="-199" yMin="628" xMax="54" yMax="887">
      <contour>
        <pt x="-160" y="628" on="1"/>
        <pt x="-160" y="637" on="1"/>
        <pt x="-180" y="661" on="0"/>
        <pt x="-199" y="728" on="0"/>
        <pt x="-199" y="758" on="1"/>
        <pt x="-199" y="823" on="0"/>
        <pt x="-121" y="887" on="0"/>
        <pt x="-58" y="887" on="1"/>
        <pt x="43" y="887" on="1"/>
        <pt x="43" y="813" on="1"/>
        <pt x="-40" y="813" on="1"/>
        <pt x="-75" y="813" on="0"/>
        <pt x="-111" y="772" on="0"/>
        <pt x="-111" y="739" on="1"/>
        <pt x="-111" y="709" on="0"/>
        <pt x="-89" y="652" on="0"/>
        <pt x="-75" y="632" on="1"/>
      </contour>
      <contour>
        <pt x="54" y="743" on="1"/>
        <pt x="54" y="705" on="0"/>
        <pt x="14" y="673" on="0"/>
        <pt x="-10" y="673" on="1"/>
        <pt x="-38" y="673" on="0"/>
        <pt x="-77" y="707" on="0"/>
        <pt x="-77" y="743" on="1"/>
        <pt x="-47" y="743" on="1"/>
        <pt x="-46" y="703" on="0"/>
        <pt x="-11" y="703" on="1"/>
        <pt x="21" y="703" on="0"/>
        <pt x="24" y="743" on="1"/>
      </contour>
      <contour>
        <pt x="-29" y="747" on="1"/>
        <pt x="-29" y="755" on="0"/>
        <pt x="-19" y="767" on="0"/>
        <pt x="-11" y="767" on="1"/>
        <pt x="-3" y="767" on="0"/>
        <pt x="6" y="755" on="0"/>
        <pt x="6" y="747" on="1"/>
        <pt x="6" y="726" on="0"/>
        <pt x="-11" y="726" on="1"/>
        <pt x="-29" y="726" on="0"/>
      </contour>
    </TTGlyph>
    <TTGlyph name="A" xMin="3" yMin="0" xMax="598" yMax="630">
      <contour>
        <pt x="203" y="247" on="1"/>
        <pt x="394" y="247" on="1"/>
        <pt x="357" y="349" on="1"/>
        <pt x="340" y="391" on="0"/>
        <pt x="315" y="464" on="0"/>
        <pt x="301" y="511" on="1"/>
        <pt x="299" y="511" on="1"/>
        <pt x="284" y="467" on="0"/>
        <pt x="258" y="392" on="0"/>
        <pt x="241" y="348" on="1"/>
      </contour>
      <contour>
        <pt x="251" y="630" on="1"/>
        <pt x="353" y="630" on="1"/>
        <pt x="598" y="0" on="1"/>
        <pt x="486" y="0" on="1"/>
        <pt x="423" y="165" on="1"/>
        <pt x="176" y="165" on="1"/>
        <pt x="114" y="0" on="1"/>
        <pt x="3" y="0" on="1"/>
      </contour>
    </TTGlyph>
    <TTGlyph name="AE" xMin="5" yMin="0" xMax="762" yMax="630">
      <contour>
        <pt x="327" y="630" on="1"/>
        <pt x="759" y="630" on="1"/>
        <pt x="759" y="544" on="1"/>
        <pt x="498" y="544" on="1"/>
        <pt x="498" y="370" on="1"/>
        <pt x="733" y="370" on="1"/>
        <pt x="733" y="285" on="1"/>
        <pt x="498" y="285" on="1"/>
        <pt x="498" y="86" on="1"/>
        <pt x="762" y="86" on="1"/>
        <pt x="762" y="0" on="1"/>
        <pt x="394" y="0" on="1"/>
        <pt x="394" y="166" on="1"/>
        <pt x="210" y="166" on="1"/>
        <pt x="129" y="0" on="1"/>
        <pt x="5" y="0" on="1"/>
      </contour>
      <contour>
        <pt x="394" y="551" on="1"/>
        <pt x="245" y="247" on="1"/>
        <pt x="394" y="247" on="1"/>
      </contour>
    </TTGlyph>
    <TTGlyph name="AEacute" xMin="5" yMin="0" xMax="762" yMax="829">
      <contour>
        <pt x="327" y="630" on="1"/>
        <pt x="759" y="630" on="1"/>
        <pt x="759" y="544" on="1"/>
        <pt x="498" y="544" on="1"/>
        <pt x="498" y="370" on="1"/>
        <pt x="733" y="370" on="1"/>
        <pt x="733" y="285" on="1"/>
        <pt x="498" y="285" on="1"/>
        <pt x="498" y="86" on="1"/>
        <pt x="762" y="86" on="1"/>
        <pt x="762" y="0" on="1"/>
        <pt x="394" y="0" on="1"/>
        <pt x="394" y="166" on="1"/>
        <pt x="210" y="166" on="1"/>
        <pt x="129" y="0" on="1"/>
        <pt x="5" y="0" on="1"/>
      </contour>
      <contour>
        <pt x="394" y="551" on="1"/>
        <pt x="245" y="247" on="1"/>
        <pt x="394" y="247" on="1"/>
      </contour>
      <contour>
        <pt x="443" y="705" on="1"/>
        <pt x="358" y="705" on="1"/>
        <pt x="438" y="829" on="1"/>
        <pt x="555" y="829" on="1"/>
      </contour>
    </TTGlyph>
    <TTGlyph name="Aacute" xMin="3" yMin="0" xMax="598" yMax="829">
      <contour>
        <pt x="340" y="705" on="1"/>
        <pt x="255" y="705" on="1"/>
        <pt x="335" y="829" on="1"/>
        <pt x="452" y="829" on="1"/>
      </contour>
      <contour>
        <pt x="203" y="247" on="1"/>
        <pt x="394" y="247" on="1"/>
        <pt x="357" y="349" on="1"/>
        <pt x="340" y="391" on="0"/>
        <pt x="315" y="464" on="0"/>
        <pt x="301" y="511" on="1"/>
        <pt x="299" y="511" on="1"/>
        <pt x="284" y="467" on="0"/>
        <pt x="258" y="392" on="0"/>
        <pt x="241" y="348" on="1"/>
      </contour>
      <contour>
        <pt x="251" y="630" on="1"/>
        <pt x="353" y="630" on="1"/>
        <pt x="598" y="0" on="1"/>
        <pt x="486" y="0" on="1"/>
        <pt x="423" y="165" on="1"/>
        <pt x="176" y="165" on="1"/>
        <pt x="114" y="0" on="1"/>
        <pt x="3" y="0" on="1"/>
      </contour>
    </TTGlyph>
    <TTGlyph name="Abreve" xMin="3" yMin="0" xMax="598" yMax="829">
      <contour>
        <pt x="233" y="829" on="1"/>
        <pt x="236" y="799" on="0"/>
        <pt x="262" y="764" on="0"/>
        <pt x="300" y="764" on="1"/>
        <pt x="361" y="764" on="0"/>
        <pt x="367" y="829" on="1"/>
        <pt x="434" y="829" on="1"/>
        <pt x="434" y="773" on="0"/>
        <pt x="365" y="704" on="0"/>
        <pt x="300" y="704" on="1"/>
        <pt x="264" y="704" on="0"/>
        <pt x="213" y="725" on="0"/>
        <pt x="180" y="760" on="0"/>
        <pt x="165" y="805" on="0"/>
        <pt x="165" y="829" on="1"/>
      </contour>
      <contour>
        <pt x="203" y="247" on="1"/>
        <pt x="394" y="247" on="1"/>
        <pt x="357" y="349" on="1"/>
        <pt x="340" y="391" on="0"/>
        <pt x="315" y="464" on="0"/>
        <pt x="301" y="511" on="1"/>
        <pt x="299" y="511" on="1"/>
        <pt x="284" y="467" on="0"/>
        <pt x="258" y="392" on="0"/>
        <pt x="241" y="348" on="1"/>
      </contour>
      <contour>
        <pt x="251" y="630" on="1"/>
        <pt x="353" y="630" on="1"/>
        <pt x="598" y="0" on="1"/>
        <pt x="486" y="0" on="1"/>
        <pt x="423" y="165" on="1"/>
        <pt x="176" y="165" on="1"/>
        <pt x="114" y="0" on="1"/>
        <pt x="3" y="0" on="1"/>
      </contour>
    </TTGlyph>
    <TTGlyph name="Acircumflex" xMin="3" yMin="0" xMax="598" yMax="836">
      <contour>
        <pt x="261" y="836" on="1"/>
        <pt x="340" y="836" on="1"/>
        <pt x="462" y="705" on="1"/>
        <pt x="375" y="705" on="1"/>
        <pt x="300" y="784" on="1"/>
        <pt x="225" y="705" on="1"/>
        <pt x="141" y="705" on="1"/>
      </contour>
      <contour>
        <pt x="203" y="247" on="1"/>
        <pt x="394" y="247" on="1"/>
        <pt x="357" y="349" on="1"/>
        <pt x="340" y="391" on="0"/>
        <pt x="315" y="464" on="0"/>
        <pt x="301" y="511" on="1"/>
        <pt x="299" y="511" on="1"/>
        <pt x="284" y="467" on="0"/>
        <pt x="258" y="392" on="0"/>
        <pt x="241" y="348" on="1"/>
      </contour>
      <contour>
        <pt x="251" y="630" on="1"/>
        <pt x="353" y="630" on="1"/>
        <pt x="598" y="0" on="1"/>
        <pt x="486" y="0" on="1"/>
        <pt x="423" y="165" on="1"/>
        <pt x="176" y="165" on="1"/>
        <pt x="114" y="0" on="1"/>
        <pt x="3" y="0" on="1"/>
      </contour>
    </TTGlyph>
    <TTGlyph name="Acute" xMin="29" yMin="705" xMax="226" yMax="829">
      <contour>
        <pt x="113" y="705" on="1"/>
        <pt x="29" y="705" on="1"/>
        <pt x="109" y="829" on="1"/>
        <pt x="226" y="829" on="1"/>
      </contour>
    </TTGlyph>
    <TTGlyph name="Adieresis" xMin="3" yMin="0" xMax="598" yMax="811">
      <contour>
        <pt x="158" y="758" on="1"/>
        <pt x="158" y="779" on="0"/>
        <pt x="189" y="811" on="0"/>
        <pt x="212" y="811" on="1"/>
        <pt x="235" y="811" on="0"/>
        <pt x="266" y="779" on="0"/>
        <pt x="266" y="758" on="1"/>
        <pt x="266" y="735" on="0"/>
        <pt x="235" y="702" on="0"/>
        <pt x="212" y="702" on="1"/>
        <pt x="189" y="702" on="0"/>
        <pt x="158" y="735" on="0"/>
      </contour>
      <contour>
        <pt x="333" y="758" on="1"/>
        <pt x="333" y="779" on="0"/>
        <pt x="365" y="811" on="0"/>
        <pt x="388" y="811" on="1"/>
        <pt x="411" y="811" on="0"/>
        <pt x="442" y="779" on="0"/>
        <pt x="442" y="758" on="1"/>
        <pt x="442" y="735" on="0"/>
        <pt x="411" y="702" on="0"/>
        <pt x="388" y="702" on="1"/>
        <pt x="365" y="702" on="0"/>
        <pt x="333" y="735" on="0"/>
      </contour>
      <contour>
        <pt x="203" y="247" on="1"/>
        <pt x="394" y="247" on="1"/>
        <pt x="357" y="349" on="1"/>
        <pt x="340" y="391" on="0"/>
        <pt x="315" y="464" on="0"/>
        <pt x="301" y="511" on="1"/>
        <pt x="299" y="511" on="1"/>
        <pt x="284" y="467" on="0"/>
        <pt x="258" y="392" on="0"/>
        <pt x="241" y="348" on="1"/>
      </contour>
      <contour>
        <pt x="251" y="630" on="1"/>
        <pt x="353" y="630" on="1"/>
        <pt x="598" y="0" on="1"/>
        <pt x="486" y="0" on="1"/>
        <pt x="423" y="165" on="1"/>
        <pt x="176" y="165" on="1"/>
        <pt x="114" y="0" on="1"/>
        <pt x="3" y="0" on="1"/>
      </contour>
    </TTGlyph>
    <TTGlyph name="Agrave" xMin="3" yMin="0" xMax="598" yMax="829">
      <contour>
        <pt x="150" y="829" on="1"/>
        <pt x="267" y="829" on="1"/>
        <pt x="347" y="705" on="1"/>
        <pt x="262" y="705" on="1"/>
      </contour>
      <contour>
        <pt x="203" y="247" on="1"/>
        <pt x="394" y="247" on="1"/>
        <pt x="357" y="349" on="1"/>
        <pt x="340" y="391" on="0"/>
        <pt x="315" y="464" on="0"/>
        <pt x="301" y="511" on="1"/>
        <pt x="299" y="511" on="1"/>
        <pt x="284" y="467" on="0"/>
        <pt x="258" y="392" on="0"/>
        <pt x="241" y="348" on="1"/>
      </contour>
      <contour>
        <pt x="251" y="630" on="1"/>
        <pt x="353" y="630" on="1"/>
        <pt x="598" y="0" on="1"/>
        <pt x="486" y="0" on="1"/>
        <pt x="423" y="165" on="1"/>
        <pt x="176" y="165" on="1"/>
        <pt x="114" y="0" on="1"/>
        <pt x="3" y="0" on="1"/>
      </contour>
    </TTGlyph>
    <TTGlyph name="Amacron" xMin="3" yMin="0" xMax="598" yMax="772">
      <contour>
        <pt x="423" y="772" on="1"/>
        <pt x="423" y="705" on="1"/>
        <pt x="174" y="705" on="1"/>
        <pt x="174" y="772" on="1"/>
      </contour>
      <contour>
        <pt x="203" y="247" on="1"/>
        <pt x="394" y="247" on="1"/>
        <pt x="357" y="349" on="1"/>
        <pt x="340" y="391" on="0"/>
        <pt x="315" y="464" on="0"/>
        <pt x="301" y="511" on="1"/>
        <pt x="299" y="511" on="1"/>
        <pt x="284" y="467" on="0"/>
        <pt x="258" y="392" on="0"/>
        <pt x="241" y="348" on="1"/>
      </contour>
      <contour>
        <pt x="251" y="630" on="1"/>
        <pt x="353" y="630" on="1"/>
        <pt x="598" y="0" on="1"/>
        <pt x="486" y="0" on="1"/>
        <pt x="423" y="165" on="1"/>
        <pt x="176" y="165" on="1"/>
        <pt x="114" y="0" on="1"/>
        <pt x="3" y="0" on="1"/>
      </contour>
    </TTGlyph>
    <TTGlyph name="Aogonek" xMin="3" yMin="-206" xMax="607" yMax="630">
      <contour>
        <pt x="251" y="630" on="1"/>
        <pt x="353" y="630" on="1"/>
        <pt x="598" y="0" on="1"/>
        <pt x="576" y="0" on="1"/>
        <pt x="533" y="-20" on="0"/>
        <pt x="493" y="-65" on="0"/>
        <pt x="493" y="-89" on="1"/>
        <pt x="493" y="-112" on="0"/>
        <pt x="522" y="-139" on="0"/>
        <pt x="545" y="-139" on="1"/>
        <pt x="559" y="-139" on="0"/>
        <pt x="583" y="-134" on="0"/>
        <pt x="592" y="-131" on="1"/>
        <pt x="607" y="-185" on="1"/>
        <pt x="572" y="-206" on="0"/>
        <pt x="525" y="-206" on="1"/>
        <pt x="479" y="-206" on="0"/>
        <pt x="418" y="-155" on="0"/>
        <pt x="418" y="-108" on="1"/>
        <pt x="418" y="-70" on="0"/>
        <pt x="459" y="-17" on="0"/>
        <pt x="486" y="0" on="1"/>
        <pt x="423" y="165" on="1"/>
        <pt x="176" y="165" on="1"/>
        <pt x="114" y="0" on="1"/>
        <pt x="3" y="0" on="1"/>
      </contour>
      <contour>
        <pt x="203" y="247" on="1"/>
        <pt x="394" y="247" on="1"/>
        <pt x="357" y="349" on="1"/>
        <pt x="340" y="391" on="0"/>
        <pt x="315" y="464" on="0"/>
        <pt x="301" y="511" on="1"/>
        <pt x="299" y="511" on="1"/>
        <pt x="284" y="467" on="0"/>
        <pt x="258" y="392" on="0"/>
        <pt x="241" y="348" on="1"/>
      </contour>
    </TTGlyph>
    <TTGlyph name="Aring" xMin="3" yMin="0" xMax="598" yMax="846">
      <contour>
        <pt x="201" y="761" on="1"/>
        <pt x="201" y="805" on="0"/>
        <pt x="258" y="846" on="0"/>
        <pt x="300" y="846" on="1"/>
        <pt x="344" y="846" on="0"/>
        <pt x="400" y="806" on="0"/>
        <pt x="400" y="761" on="1"/>
        <pt x="400" y="716" on="0"/>
        <pt x="340" y="675" on="0"/>
        <pt x="300" y="675" on="1"/>
        <pt x="260" y="675" on="0"/>
        <pt x="201" y="718" on="0"/>
      </contour>
      <contour>
        <pt x="255" y="761" on="1"/>
        <pt x="255" y="738" on="0"/>
        <pt x="278" y="712" on="0"/>
        <pt x="300" y="712" on="1"/>
        <pt x="322" y="712" on="0"/>
        <pt x="346" y="738" on="0"/>
        <pt x="346" y="761" on="1"/>
        <pt x="346" y="783" on="0"/>
        <pt x="321" y="809" on="0"/>
        <pt x="300" y="809" on="1"/>
        <pt x="279" y="809" on="0"/>
        <pt x="255" y="783" on="0"/>
      </contour>
      <contour>
        <pt x="203" y="247" on="1"/>
        <pt x="394" y="247" on="1"/>
        <pt x="357" y="349" on="1"/>
        <pt x="340" y="391" on="0"/>
        <pt x="315" y="464" on="0"/>
        <pt x="301" y="511" on="1"/>
        <pt x="299" y="511" on="1"/>
        <pt x="284" y="467" on="0"/>
        <pt x="258" y="392" on="0"/>
        <pt x="241" y="348" on="1"/>
      </contour>
      <contour>
        <pt x="251" y="630" on="1"/>
        <pt x="353" y="630" on="1"/>
        <pt x="598" y="0" on="1"/>
        <pt x="486" y="0" on="1"/>
        <pt x="423" y="165" on="1"/>
        <pt x="176" y="165" on="1"/>
        <pt x="114" y="0" on="1"/>
        <pt x="3" y="0" on="1"/>
      </contour>
    </TTGlyph>
    <TTGlyph name="Asmall" xMin="5" yMin="0" xMax="477" yMax="472">
      <contour>
        <pt x="176" y="191" on="1"/>
        <pt x="305" y="191" on="1"/>
        <pt x="278" y="265" on="1"/>
        <pt x="268" y="291" on="0"/>
        <pt x="249" y="346" on="0"/>
        <pt x="242" y="369" on="1"/>
        <pt x="240" y="369" on="1"/>
        <pt x="233" y="346" on="0"/>
        <pt x="213" y="291" on="0"/>
        <pt x="203" y="265" on="1"/>
      </contour>
      <contour>
        <pt x="189" y="472" on="1"/>
        <pt x="291" y="472" on="1"/>
        <pt x="477" y="0" on="1"/>
        <pt x="372" y="0" on="1"/>
        <pt x="330" y="116" on="1"/>
        <pt x="150" y="116" on="1"/>
        <pt x="106" y="0" on="1"/>
        <pt x="5" y="0" on="1"/>
      </contour>
    </TTGlyph>
    <TTGlyph name="Atilde" xMin="3" yMin="0" xMax="598" yMax="821">
      <contour>
        <pt x="146" y="705" on="1"/>
        <pt x="146" y="752" on="0"/>
        <pt x="189" y="818" on="0"/>
        <pt x="234" y="818" on="1"/>
        <pt x="254" y="818" on="0"/>
        <pt x="286" y="805" on="0"/>
        <pt x="315" y="789" on="0"/>
        <pt x="342" y="776" on="0"/>
        <pt x="357" y="776" on="1"/>
        <pt x="376" y="776" on="0"/>
        <pt x="392" y="804" on="0"/>
        <pt x="394" y="821" on="1"/>
        <pt x="449" y="821" on="1"/>
        <pt x="449" y="798" on="0"/>
        <pt x="438" y="758" on="0"/>
        <pt x="417" y="726" on="0"/>
        <pt x="386" y="708" on="0"/>
        <pt x="365" y="708" on="1"/>
        <pt x="344" y="708" on="0"/>
        <pt x="308" y="721" on="0"/>
        <pt x="277" y="736" on="0"/>
        <pt x="250" y="749" on="0"/>
        <pt x="238" y="749" on="1"/>
        <pt x="218" y="749" on="0"/>
        <pt x="203" y="723" on="0"/>
        <pt x="201" y="705" on="1"/>
      </contour>
      <contour>
        <pt x="203" y="247" on="1"/>
        <pt x="394" y="247" on="1"/>
        <pt x="357" y="349" on="1"/>
        <pt x="340" y="391" on="0"/>
        <pt x="315" y="464" on="0"/>
        <pt x="301" y="511" on="1"/>
        <pt x="299" y="511" on="1"/>
        <pt x="284" y="467" on="0"/>
        <pt x="258" y="392" on="0"/>
        <pt x="241" y="348" on="1"/>
      </contour>
      <contour>
        <pt x="251" y="630" on="1"/>
        <pt x="353" y="630" on="1"/>
        <pt x="598" y="0" on="1"/>
        <pt x="486" y="0" on="1"/>
        <pt x="423" y="165" on="1"/>
        <pt x="176" y="165" on="1"/>
        <pt x="114" y="0" on="1"/>
        <pt x="3" y="0" on="1"/>
      </contour>
    </TTGlyph>
    <TTGlyph name="B" xMin="76" yMin="0" xMax="501" yMax="630">
      <contour>
        <pt x="277" y="630" on="1"/>
        <pt x="374" y="630" on="0"/>
        <pt x="482" y="547" on="0"/>
        <pt x="482" y="469" on="1"/>
        <pt x="482" y="440" on="0"/>
        <pt x="463" y="395" on="0"/>
        <pt x="432" y="362" on="0"/>
        <pt x="390" y="340" on="0"/>
        <pt x="367" y="334" on="1"/>
        <pt x="395" y="329" on="0"/>
        <pt x="444" y="304" on="0"/>
        <pt x="480" y="265" on="0"/>
        <pt x="501" y="211" on="0"/>
        <pt x="501" y="177" on="1"/>
        <pt x="501" y="138" on="0"/>
        <pt x="467" y="73" on="0"/>
        <pt x="406" y="26" on="0"/>
        <pt x="322" y="0" on="0"/>
        <pt x="271" y="0" on="1"/>
        <pt x="76" y="0" on="1"/>
        <pt x="76" y="630" on="1"/>
      </contour>
      <contour>
        <pt x="183" y="371" on="1"/>
        <pt x="255" y="371" on="1"/>
        <pt x="279" y="371" on="0"/>
        <pt x="322" y="379" on="0"/>
        <pt x="353" y="400" on="0"/>
        <pt x="372" y="435" on="0"/>
        <pt x="372" y="461" on="1"/>
        <pt x="372" y="505" on="0"/>
        <pt x="312" y="546" on="0"/>
        <pt x="261" y="546" on="1"/>
        <pt x="183" y="546" on="1"/>
      </contour>
      <contour>
        <pt x="183" y="84" on="1"/>
        <pt x="258" y="84" on="1"/>
        <pt x="285" y="84" on="0"/>
        <pt x="333" y="95" on="0"/>
        <pt x="369" y="119" on="0"/>
        <pt x="390" y="158" on="0"/>
        <pt x="390" y="187" on="1"/>
        <pt x="390" y="215" on="0"/>
        <pt x="366" y="254" on="0"/>
        <pt x="326" y="278" on="0"/>
        <pt x="274" y="288" on="0"/>
        <pt x="246" y="288" on="1"/>
        <pt x="183" y="288" on="1"/>
      </contour>
    </TTGlyph>
    <TTGlyph name="Breve" xMin="16" yMin="704" xMax="285" yMax="829">
      <contour>
        <pt x="84" y="829" on="1"/>
        <pt x="87" y="799" on="0"/>
        <pt x="114" y="764" on="0"/>
        <pt x="151" y="764" on="1"/>
        <pt x="183" y="764" on="0"/>
        <pt x="215" y="797" on="0"/>
        <pt x="218" y="829" on="1"/>
        <pt x="285" y="829" on="1"/>
        <pt x="285" y="773" on="0"/>
        <pt x="216" y="704" on="0"/>
        <pt x="151" y="704" on="1"/>
        <pt x="115" y="704" on="0"/>
        <pt x="64" y="725" on="0"/>
        <pt x="31" y="760" on="0"/>
        <pt x="16" y="805" on="0"/>
        <pt x="16" y="829" on="1"/>
      </contour>
    </TTGlyph>
    <TTGlyph name="Bsmall" xMin="74" yMin="0" xMax="439" yMax="472">
      <contour>
        <pt x="258" y="472" on="1"/>
        <pt x="339" y="472" on="0"/>
        <pt x="418" y="407" on="0"/>
        <pt x="418" y="354" on="1"/>
        <pt x="418" y="316" on="0"/>
        <pt x="373" y="265" on="0"/>
        <pt x="336" y="253" on="1"/>
        <pt x="386" y="241" on="0"/>
        <pt x="439" y="182" on="0"/>
        <pt x="439" y="135" on="1"/>
        <pt x="439" y="107" on="0"/>
        <pt x="416" y="58" on="0"/>
        <pt x="371" y="21" on="0"/>
        <pt x="302" y="0" on="0"/>
        <pt x="257" y="0" on="1"/>
        <pt x="74" y="0" on="1"/>
        <pt x="74" y="472" on="1"/>
      </contour>
      <contour>
        <pt x="176" y="283" on="1"/>
        <pt x="237" y="283" on="1"/>
        <pt x="269" y="283" on="0"/>
        <pt x="313" y="308" on="0"/>
        <pt x="313" y="340" on="1"/>
        <pt x="313" y="366" on="0"/>
        <pt x="277" y="394" on="0"/>
        <pt x="235" y="394" on="1"/>
        <pt x="176" y="394" on="1"/>
      </contour>
      <contour>
        <pt x="176" y="78" on="1"/>
        <pt x="235" y="78" on="1"/>
        <pt x="282" y="78" on="0"/>
        <pt x="332" y="109" on="0"/>
        <pt x="332" y="144" on="1"/>
        <pt x="332" y="167" on="0"/>
        <pt x="297" y="207" on="0"/>
        <pt x="252" y="207" on="1"/>
        <pt x="176" y="207" on="1"/>
      </contour>
    </TTGlyph>
    <TTGlyph name="C" xMin="43" yMin="-10" xMax="531" yMax="640">
      <contour>
        <pt x="363" y="76" on="1"/>
        <pt x="412" y="76" on="0"/>
        <pt x="477" y="93" on="0"/>
        <pt x="506" y="107" on="1"/>
        <pt x="529" y="24" on="1"/>
        <pt x="497" y="9" on="0"/>
        <pt x="413" y="-10" on="0"/>
        <pt x="352" y="-10" on="1"/>
        <pt x="287" y="-10" on="0"/>
        <pt x="174" y="33" on="0"/>
        <pt x="91" y="116" on="0"/>
        <pt x="43" y="237" on="0"/>
        <pt x="43" y="315" on="1"/>
        <pt x="43" y="391" on="0"/>
        <pt x="89" y="512" on="0"/>
        <pt x="172" y="596" on="0"/>
        <pt x="287" y="640" on="0"/>
        <pt x="356" y="640" on="1"/>
        <pt x="419" y="640" on="0"/>
        <pt x="500" y="619" on="0"/>
        <pt x="531" y="602" on="1"/>
        <pt x="506" y="521" on="1"/>
        <pt x="472" y="536" on="0"/>
        <pt x="411" y="554" on="0"/>
        <pt x="369" y="554" on="1"/>
        <pt x="326" y="554" on="0"/>
        <pt x="249" y="528" on="0"/>
        <pt x="192" y="470" on="0"/>
        <pt x="158" y="379" on="0"/>
        <pt x="158" y="315" on="1"/>
        <pt x="158" y="251" on="0"/>
        <pt x="191" y="160" on="0"/>
        <pt x="246" y="103" on="0"/>
        <pt x="321" y="76" on="0"/>
      </contour>
    </TTGlyph>
    <TTGlyph name="Cacute" xMin="43" yMin="-10" xMax="531" yMax="829">
      <contour>
        <pt x="363" y="76" on="1"/>
        <pt x="412" y="76" on="0"/>
        <pt x="477" y="93" on="0"/>
        <pt x="506" y="107" on="1"/>
        <pt x="529" y="24" on="1"/>
        <pt x="497" y="9" on="0"/>
        <pt x="413" y="-10" on="0"/>
        <pt x="352" y="-10" on="1"/>
        <pt x="287" y="-10" on="0"/>
        <pt x="174" y="33" on="0"/>
        <pt x="91" y="116" on="0"/>
        <pt x="43" y="237" on="0"/>
        <pt x="43" y="315" on="1"/>
        <pt x="43" y="391" on="0"/>
        <pt x="89" y="512" on="0"/>
        <pt x="172" y="596" on="0"/>
        <pt x="287" y="640" on="0"/>
        <pt x="356" y="640" on="1"/>
        <pt x="419" y="640" on="0"/>
        <pt x="500" y="619" on="0"/>
        <pt x="531" y="602" on="1"/>
        <pt x="506" y="521" on="1"/>
        <pt x="472" y="536" on="0"/>
        <pt x="411" y="554" on="0"/>
        <pt x="369" y="554" on="1"/>
        <pt x="326" y="554" on="0"/>
        <pt x="249" y="528" on="0"/>
        <pt x="192" y="470" on="0"/>
        <pt x="158" y="379" on="0"/>
        <pt x="158" y="315" on="1"/>
        <pt x="158" y="251" on="0"/>
        <pt x="191" y="160" on="0"/>
        <pt x="246" y="103" on="0"/>
        <pt x="321" y="76" on="0"/>
      </contour>
      <contour>
        <pt x="334" y="705" on="1"/>
        <pt x="249" y="705" on="1"/>
        <pt x="329" y="829" on="1"/>
        <pt x="446" y="829" on="1"/>
      </contour>
    </TTGlyph>
    <TTGlyph name="Caron" xMin="22" yMin="705" xMax="343" yMax="836">
      <contour>
        <pt x="22" y="836" on="1"/>
        <pt x="106" y="836" on="1"/>
        <pt x="181" y="757" on="1"/>
        <pt x="256" y="836" on="1"/>
        <pt x="343" y="836" on="1"/>
        <pt x="221" y="705" on="1"/>
        <pt x="142" y="705" on="1"/>
      </contour>
    </TTGlyph>
    <TTGlyph name="Ccaron" xMin="43" yMin="-10" xMax="531" yMax="837">
      <contour>
        <pt x="363" y="76" on="1"/>
        <pt x="412" y="76" on="0"/>
        <pt x="477" y="93" on="0"/>
        <pt x="506" y="107" on="1"/>
        <pt x="529" y="24" on="1"/>
        <pt x="497" y="9" on="0"/>
        <pt x="413" y="-10" on="0"/>
        <pt x="352" y="-10" on="1"/>
        <pt x="287" y="-10" on="0"/>
        <pt x="174" y="33" on="0"/>
        <pt x="91" y="116" on="0"/>
        <pt x="43" y="237" on="0"/>
        <pt x="43" y="315" on="1"/>
        <pt x="43" y="391" on="0"/>
        <pt x="89" y="512" on="0"/>
        <pt x="172" y="596" on="0"/>
        <pt x="287" y="640" on="0"/>
        <pt x="356" y="640" on="1"/>
        <pt x="419" y="640" on="0"/>
        <pt x="500" y="619" on="0"/>
        <pt x="531" y="602" on="1"/>
        <pt x="506" y="521" on="1"/>
        <pt x="472" y="536" on="0"/>
        <pt x="411" y="554" on="0"/>
        <pt x="369" y="554" on="1"/>
        <pt x="326" y="554" on="0"/>
        <pt x="249" y="528" on="0"/>
        <pt x="192" y="470" on="0"/>
        <pt x="158" y="379" on="0"/>
        <pt x="158" y="315" on="1"/>
        <pt x="158" y="251" on="0"/>
        <pt x="191" y="160" on="0"/>
        <pt x="246" y="103" on="0"/>
        <pt x="321" y="76" on="0"/>
      </contour>
      <contour>
        <pt x="184" y="837" on="1"/>
        <pt x="271" y="837" on="1"/>
        <pt x="345" y="756" on="1"/>
        <pt x="419" y="837" on="1"/>
        <pt x="505" y="837" on="1"/>
        <pt x="383" y="706" on="1"/>
        <pt x="304" y="706" on="1"/>
      </contour>
    </TTGlyph>
    <TTGlyph name="Ccedilla" xMin="43" yMin="-214" xMax="531" yMax="640">
      <contour>
        <pt x="363" y="76" on="1"/>
        <pt x="412" y="76" on="0"/>
        <pt x="477" y="93" on="0"/>
        <pt x="506" y="107" on="1"/>
        <pt x="529" y="24" on="1"/>
        <pt x="498" y="10" on="0"/>
        <pt x="418" y="-8" on="0"/>
        <pt x="361" y="-10" on="1"/>
        <pt x="345" y="-47" on="1"/>
        <pt x="396" y="-49" on="0"/>
        <pt x="438" y="-97" on="0"/>
        <pt x="438" y="-126" on="1"/>
        <pt x="438" y="-169" on="0"/>
        <pt x="369" y="-214" on="0"/>
        <pt x="318" y="-214" on="1"/>
        <pt x="295" y="-214" on="0"/>
        <pt x="254" y="-207" on="0"/>
        <pt x="241" y="-202" on="1"/>
        <pt x="255" y="-155" on="1"/>
        <pt x="279" y="-164" on="0"/>
        <pt x="308" y="-164" on="1"/>
        <pt x="369" y="-164" on="0"/>
        <pt x="369" y="-125" on="1"/>
        <pt x="369" y="-116" on="0"/>
        <pt x="362" y="-99" on="0"/>
        <pt x="342" y="-86" on="0"/>
        <pt x="305" y="-78" on="0"/>
        <pt x="276" y="-78" on="1"/>
        <pt x="307" y="-7" on="1"/>
        <pt x="250" y="0" on="0"/>
        <pt x="153" y="49" on="0"/>
        <pt x="83" y="130" on="0"/>
        <pt x="43" y="244" on="0"/>
        <pt x="43" y="315" on="1"/>
        <pt x="43" y="391" on="0"/>
        <pt x="89" y="512" on="0"/>
        <pt x="172" y="596" on="0"/>
        <pt x="287" y="640" on="0"/>
        <pt x="356" y="640" on="1"/>
        <pt x="419" y="640" on="0"/>
        <pt x="500" y="619" on="0"/>
        <pt x="531" y="602" on="1"/>
        <pt x="506" y="521" on="1"/>
        <pt x="472" y="536" on="0"/>
        <pt x="411" y="554" on="0"/>
        <pt x="369" y="554" on="1"/>
        <pt x="326" y="554" on="0"/>
        <pt x="249" y="528" on="0"/>
        <pt x="192" y="470" on="0"/>
        <pt x="158" y="379" on="0"/>
        <pt x="158" y="315" on="1"/>
        <pt x="158" y="251" on="0"/>
        <pt x="191" y="160" on="0"/>
        <pt x="246" y="103" on="0"/>
        <pt x="321" y="76" on="0"/>
      </contour>
    </TTGlyph>
    <TTGlyph name="Ccircumflex" xMin="43" yMin="-10" xMax="531" yMax="836">
      <contour>
        <pt x="363" y="76" on="1"/>
        <pt x="412" y="76" on="0"/>
        <pt x="477" y="93" on="0"/>
        <pt x="506" y="107" on="1"/>
        <pt x="529" y="24" on="1"/>
        <pt x="497" y="9" on="0"/>
        <pt x="413" y="-10" on="0"/>
        <pt x="352" y="-10" on="1"/>
        <pt x="287" y="-10" on="0"/>
        <pt x="174" y="33" on="0"/>
        <pt x="91" y="116" on="0"/>
        <pt x="43" y="237" on="0"/>
        <pt x="43" y="315" on="1"/>
        <pt x="43" y="391" on="0"/>
        <pt x="89" y="512" on="0"/>
        <pt x="172" y="596" on="0"/>
        <pt x="287" y="640" on="0"/>
        <pt x="356" y="640" on="1"/>
        <pt x="419" y="640" on="0"/>
        <pt x="500" y="619" on="0"/>
        <pt x="531" y="602" on="1"/>
        <pt x="506" y="521" on="1"/>
        <pt x="472" y="536" on="0"/>
        <pt x="411" y="554" on="0"/>
        <pt x="369" y="554" on="1"/>
        <pt x="326" y="554" on="0"/>
        <pt x="249" y="528" on="0"/>
        <pt x="192" y="470" on="0"/>
        <pt x="158" y="379" on="0"/>
        <pt x="158" y="315" on="1"/>
        <pt x="158" y="251" on="0"/>
        <pt x="191" y="160" on="0"/>
        <pt x="246" y="103" on="0"/>
        <pt x="321" y="76" on="0"/>
      </contour>
      <contour>
        <pt x="297" y="836" on="1"/>
        <pt x="376" y="836" on="1"/>
        <pt x="498" y="705" on="1"/>
        <pt x="411" y="705" on="1"/>
        <pt x="336" y="784" on="1"/>
        <pt x="261" y="705" on="1"/>
        <pt x="177" y="705" on="1"/>
      </contour>
    </TTGlyph>
    <TTGlyph name="Cdotaccent" xMin="43" yMin="-10" xMax="531" yMax="820">
      <contour>
        <pt x="363" y="76" on="1"/>
        <pt x="412" y="76" on="0"/>
        <pt x="477" y="93" on="0"/>
        <pt x="506" y="107" on="1"/>
        <pt x="529" y="24" on="1"/>
        <pt x="497" y="9" on="0"/>
        <pt x="413" y="-10" on="0"/>
        <pt x="352" y="-10" on="1"/>
        <pt x="287" y="-10" on="0"/>
        <pt x="174" y="33" on="0"/>
        <pt x="91" y="116" on="0"/>
        <pt x="43" y="237" on="0"/>
        <pt x="43" y="315" on="1"/>
        <pt x="43" y="391" on="0"/>
        <pt x="89" y="512" on="0"/>
        <pt x="172" y="596" on="0"/>
        <pt x="287" y="640" on="0"/>
        <pt x="356" y="640" on="1"/>
        <pt x="419" y="640" on="0"/>
        <pt x="500" y="619" on="0"/>
        <pt x="531" y="602" on="1"/>
        <pt x="506" y="521" on="1"/>
        <pt x="472" y="536" on="0"/>
        <pt x="411" y="554" on="0"/>
        <pt x="369" y="554" on="1"/>
        <pt x="326" y="554" on="0"/>
        <pt x="249" y="528" on="0"/>
        <pt x="192" y="470" on="0"/>
        <pt x="158" y="379" on="0"/>
        <pt x="158" y="315" on="1"/>
        <pt x="158" y="251" on="0"/>
        <pt x="191" y="160" on="0"/>
        <pt x="246" y="103" on="0"/>
        <pt x="321" y="76" on="0"/>
      </contour>
      <contour>
        <pt x="293" y="762" on="1"/>
        <pt x="293" y="785" on="0"/>
        <pt x="329" y="820" on="0"/>
        <pt x="352" y="820" on="1"/>
        <pt x="377" y="820" on="0"/>
        <pt x="411" y="785" on="0"/>
        <pt x="411" y="762" on="1"/>
        <pt x="411" y="737" on="0"/>
        <pt x="377" y="702" on="0"/>
        <pt x="352" y="702" on="1"/>
        <pt x="329" y="702" on="0"/>
        <pt x="293" y="737" on="0"/>
      </contour>
    </TTGlyph>
    <TTGlyph name="Cedilla" xMin="38" yMin="-214" xMax="235" yMax="0">
      <contour>
        <pt x="107" y="0" on="1"/>
        <pt x="162" y="0" on="1"/>
        <pt x="142" y="-47" on="1"/>
        <pt x="192" y="-49" on="0"/>
        <pt x="235" y="-97" on="0"/>
        <pt x="235" y="-126" on="1"/>
        <pt x="235" y="-169" on="0"/>
        <pt x="166" y="-214" on="0"/>
        <pt x="114" y="-214" on="1"/>
        <pt x="91" y="-214" on="0"/>
        <pt x="50" y="-207" on="0"/>
        <pt x="38" y="-202" on="1"/>
        <pt x="51" y="-155" on="1"/>
        <pt x="76" y="-164" on="0"/>
        <pt x="105" y="-164" on="1"/>
        <pt x="166" y="-164" on="0"/>
        <pt x="166" y="-125" on="1"/>
        <pt x="166" y="-116" on="0"/>
        <pt x="159" y="-99" on="0"/>
        <pt x="138" y="-86" on="0"/>
        <pt x="102" y="-78" on="0"/>
        <pt x="72" y="-78" on="1"/>
      </contour>
    </TTGlyph>
    <TTGlyph name="Circumflex" xMin="24" yMin="705" xMax="345" yMax="836">
      <contour>
        <pt x="144" y="836" on="1"/>
        <pt x="223" y="836" on="1"/>
        <pt x="345" y="705" on="1"/>
        <pt x="258" y="705" on="1"/>
        <pt x="183" y="784" on="1"/>
        <pt x="108" y="705" on="1"/>
        <pt x="24" y="705" on="1"/>
      </contour>
    </TTGlyph>
    <TTGlyph name="Csmall" xMin="43" yMin="-10" xMax="429" yMax="480">
      <contour>
        <pt x="307" y="68" on="1"/>
        <pt x="339" y="68" on="0"/>
        <pt x="388" y="83" on="0"/>
        <pt x="408" y="93" on="1"/>
        <pt x="429" y="19" on="1"/>
        <pt x="404" y="6" on="0"/>
        <pt x="336" y="-10" on="0"/>
        <pt x="296" y="-10" on="1"/>
        <pt x="242" y="-10" on="0"/>
        <pt x="150" y="21" on="0"/>
        <pt x="82" y="82" on="0"/>
        <pt x="43" y="174" on="0"/>
        <pt x="43" y="235" on="1"/>
        <pt x="43" y="291" on="0"/>
        <pt x="80" y="382" on="0"/>
        <pt x="146" y="446" on="0"/>
        <pt x="239" y="480" on="0"/>
        <pt x="296" y="480" on="1"/>
        <pt x="327" y="480" on="0"/>
        <pt x="389" y="470" on="0"/>
        <pt x="427" y="452" on="1"/>
        <pt x="405" y="377" on="1"/>
        <pt x="358" y="403" on="0"/>
        <pt x="307" y="403" on="1"/>
        <pt x="235" y="403" on="0"/>
        <pt x="148" y="317" on="0"/>
        <pt x="148" y="238" on="1"/>
        <pt x="148" y="190" on="0"/>
        <pt x="175" y="125" on="0"/>
        <pt x="220" y="85" on="0"/>
        <pt x="277" y="68" on="0"/>
      </contour>
    </TTGlyph>
    <TTGlyph name="D" xMin="76" yMin="0" xMax="602" yMax="630">
      <contour>
        <pt x="286" y="630" on="1"/>
        <pt x="355" y="630" on="0"/>
        <pt x="471" y="592" on="0"/>
        <pt x="555" y="517" on="0"/>
        <pt x="602" y="404" on="0"/>
        <pt x="602" y="329" on="1"/>
        <pt x="602" y="240" on="0"/>
        <pt x="546" y="115" on="0"/>
        <pt x="451" y="36" on="0"/>
        <pt x="324" y="0" on="0"/>
        <pt x="254" y="0" on="1"/>
        <pt x="76" y="0" on="1"/>
        <pt x="76" y="630" on="1"/>
      </contour>
      <contour>
        <pt x="183" y="86" on="1"/>
        <pt x="245" y="86" on="1"/>
        <pt x="291" y="86" on="0"/>
        <pt x="378" y="107" on="0"/>
        <pt x="446" y="162" on="0"/>
        <pt x="487" y="256" on="0"/>
        <pt x="487" y="329" on="1"/>
        <pt x="487" y="433" on="0"/>
        <pt x="368" y="544" on="0"/>
        <pt x="268" y="544" on="1"/>
        <pt x="183" y="544" on="1"/>
      </contour>
    </TTGlyph>
    <TTGlyph name="Dcaron" xMin="76" yMin="0" xMax="602" yMax="837">
      <contour>
        <pt x="286" y="630" on="1"/>
        <pt x="355" y="630" on="0"/>
        <pt x="471" y="592" on="0"/>
        <pt x="555" y="517" on="0"/>
        <pt x="602" y="404" on="0"/>
        <pt x="602" y="329" on="1"/>
        <pt x="602" y="240" on="0"/>
        <pt x="546" y="115" on="0"/>
        <pt x="451" y="36" on="0"/>
        <pt x="324" y="0" on="0"/>
        <pt x="254" y="0" on="1"/>
        <pt x="76" y="0" on="1"/>
        <pt x="76" y="630" on="1"/>
      </contour>
      <contour>
        <pt x="183" y="86" on="1"/>
        <pt x="245" y="86" on="1"/>
        <pt x="291" y="86" on="0"/>
        <pt x="378" y="107" on="0"/>
        <pt x="446" y="162" on="0"/>
        <pt x="487" y="256" on="0"/>
        <pt x="487" y="329" on="1"/>
        <pt x="487" y="433" on="0"/>
        <pt x="368" y="544" on="0"/>
        <pt x="268" y="544" on="1"/>
        <pt x="183" y="544" on="1"/>
      </contour>
      <contour>
        <pt x="133" y="837" on="1"/>
        <pt x="218" y="837" on="1"/>
        <pt x="293" y="758" on="1"/>
        <pt x="368" y="837" on="1"/>
        <pt x="454" y="837" on="1"/>
        <pt x="332" y="706" on="1"/>
        <pt x="253" y="706" on="1"/>
      </contour>
    </TTGlyph>
    <TTGlyph name="Dcroat" xMin="27" yMin="0" xMax="635" yMax="630">
      <contour>
        <pt x="319" y="630" on="1"/>
        <pt x="388" y="630" on="0"/>
        <pt x="504" y="592" on="0"/>
        <pt x="588" y="517" on="0"/>
        <pt x="635" y="404" on="0"/>
        <pt x="635" y="329" on="1"/>
        <pt x="635" y="240" on="0"/>
        <pt x="579" y="115" on="0"/>
        <pt x="484" y="36" on="0"/>
        <pt x="357" y="0" on="0"/>
        <pt x="286" y="0" on="1"/>
        <pt x="109" y="0" on="1"/>
        <pt x="109" y="290" on="1"/>
        <pt x="27" y="290" on="1"/>
        <pt x="27" y="362" on="1"/>
        <pt x="109" y="362" on="1"/>
        <pt x="109" y="630" on="1"/>
      </contour>
      <contour>
        <pt x="340" y="362" on="1"/>
        <pt x="340" y="290" on="1"/>
        <pt x="216" y="290" on="1"/>
        <pt x="216" y="86" on="1"/>
        <pt x="277" y="86" on="1"/>
        <pt x="323" y="86" on="0"/>
        <pt x="411" y="107" on="0"/>
        <pt x="479" y="162" on="0"/>
        <pt x="520" y="256" on="0"/>
        <pt x="520" y="329" on="1"/>
        <pt x="520" y="433" on="0"/>
        <pt x="401" y="544" on="0"/>
        <pt x="301" y="544" on="1"/>
        <pt x="216" y="544" on="1"/>
        <pt x="216" y="362" on="1"/>
      </contour>
    </TTGlyph>
    <TTGlyph name="Dieresis" xMin="33" yMin="702" xMax="317" yMax="811">
      <contour>
        <pt x="33" y="758" on="1"/>
        <pt x="33" y="779" on="0"/>
        <pt x="65" y="811" on="0"/>
        <pt x="87" y="811" on="1"/>
        <pt x="110" y="811" on="0"/>
        <pt x="142" y="779" on="0"/>
        <pt x="142" y="758" on="1"/>
        <pt x="142" y="735" on="0"/>
        <pt x="110" y="702" on="0"/>
        <pt x="87" y="702" on="1"/>
        <pt x="65" y="702" on="0"/>
        <pt x="33" y="735" on="0"/>
      </contour>
      <contour>
        <pt x="209" y="758" on="1"/>
        <pt x="209" y="779" on="0"/>
        <pt x="240" y="811" on="0"/>
        <pt x="263" y="811" on="1"/>
        <pt x="286" y="811" on="0"/>
        <pt x="317" y="779" on="0"/>
        <pt x="317" y="758" on="1"/>
        <pt x="317" y="735" on="0"/>
        <pt x="286" y="702" on="0"/>
        <pt x="263" y="702" on="1"/>
        <pt x="240" y="702" on="0"/>
        <pt x="209" y="735" on="0"/>
      </contour>
    </TTGlyph>
    <TTGlyph name="DieresisAcute" xMin="30" yMin="702" xMax="461" yMax="836">
      <contour>
        <pt x="30" y="770" on="1"/>
        <pt x="30" y="791" on="0"/>
        <pt x="62" y="823" on="0"/>
        <pt x="84" y="823" on="1"/>
        <pt x="107" y="823" on="0"/>
        <pt x="139" y="791" on="0"/>
        <pt x="139" y="770" on="1"/>
        <pt x="139" y="747" on="0"/>
        <pt x="107" y="714" on="0"/>
        <pt x="84" y="714" on="1"/>
        <pt x="62" y="714" on="0"/>
        <pt x="30" y="747" on="0"/>
      </contour>
      <contour>
        <pt x="352" y="770" on="1"/>
        <pt x="352" y="791" on="0"/>
        <pt x="384" y="823" on="0"/>
        <pt x="407" y="823" on="1"/>
        <pt x="429" y="823" on="0"/>
        <pt x="461" y="791" on="0"/>
        <pt x="461" y="770" on="1"/>
        <pt x="461" y="747" on="0"/>
        <pt x="429" y="714" on="0"/>
        <pt x="407" y="714" on="1"/>
        <pt x="384" y="714" on="0"/>
        <pt x="352" y="747" on="0"/>
      </contour>
      <contour>
        <pt x="239" y="702" on="1"/>
        <pt x="154" y="702" on="1"/>
        <pt x="224" y="836" on="1"/>
        <pt x="341" y="836" on="1"/>
      </contour>
    </TTGlyph>
    <TTGlyph name="DieresisGrave" xMin="30" yMin="702" xMax="461" yMax="836">
      <contour>
        <pt x="461" y="770" on="1"/>
        <pt x="461" y="791" on="0"/>
        <pt x="429" y="823" on="0"/>
        <pt x="407" y="823" on="1"/>
        <pt x="384" y="823" on="0"/>
        <pt x="352" y="791" on="0"/>
        <pt x="352" y="770" on="1"/>
        <pt x="352" y="747" on="0"/>
        <pt x="384" y="714" on="0"/>
        <pt x="407" y="714" on="1"/>
        <pt x="429" y="714" on="0"/>
        <pt x="461" y="747" on="0"/>
      </contour>
      <contour>
        <pt x="139" y="770" on="1"/>
        <pt x="139" y="791" on="0"/>
        <pt x="107" y="823" on="0"/>
        <pt x="84" y="823" on="1"/>
        <pt x="62" y="823" on="0"/>
        <pt x="30" y="791" on="0"/>
        <pt x="30" y="770" on="1"/>
        <pt x="30" y="747" on="0"/>
        <pt x="62" y="714" on="0"/>
        <pt x="84" y="714" on="1"/>
        <pt x="107" y="714" on="0"/>
        <pt x="139" y="747" on="0"/>
      </contour>
      <contour>
        <pt x="150" y="836" on="1"/>
        <pt x="266" y="836" on="1"/>
        <pt x="336" y="702" on="1"/>
        <pt x="252" y="702" on="1"/>
      </contour>
    </TTGlyph>
    <TTGlyph name="Dotaccent" xMin="29" yMin="702" xMax="147" yMax="820">
      <contour>
        <pt x="29" y="762" on="1"/>
        <pt x="29" y="785" on="0"/>
        <pt x="65" y="820" on="0"/>
        <pt x="88" y="820" on="1"/>
        <pt x="113" y="820" on="0"/>
        <pt x="147" y="785" on="0"/>
        <pt x="147" y="762" on="1"/>
        <pt x="147" y="737" on="0"/>
        <pt x="113" y="702" on="0"/>
        <pt x="88" y="702" on="1"/>
        <pt x="65" y="702" on="0"/>
        <pt x="29" y="737" on="0"/>
      </contour>
    </TTGlyph>
    <TTGlyph name="Dsmall" xMin="74" yMin="0" xMax="497" yMax="472">
      <contour>
        <pt x="247" y="472" on="1"/>
        <pt x="296" y="472" on="0"/>
        <pt x="387" y="448" on="0"/>
        <pt x="456" y="394" on="0"/>
        <pt x="497" y="308" on="0"/>
        <pt x="497" y="247" on="1"/>
        <pt x="497" y="182" on="0"/>
        <pt x="457" y="89" on="0"/>
        <pt x="388" y="29" on="0"/>
        <pt x="293" y="0" on="0"/>
        <pt x="239" y="0" on="1"/>
        <pt x="74" y="0" on="1"/>
        <pt x="74" y="472" on="1"/>
      </contour>
      <contour>
        <pt x="177" y="79" on="1"/>
        <pt x="221" y="79" on="1"/>
        <pt x="248" y="79" on="0"/>
        <pt x="308" y="91" on="0"/>
        <pt x="359" y="126" on="0"/>
        <pt x="392" y="191" on="0"/>
        <pt x="392" y="244" on="1"/>
        <pt x="392" y="319" on="0"/>
        <pt x="306" y="393" on="0"/>
        <pt x="221" y="393" on="1"/>
        <pt x="177" y="393" on="1"/>
      </contour>
    </TTGlyph>
    <TTGlyph name="E" xMin="76" yMin="0" xMax="469" yMax="630">
      <contour>
        <pt x="76" y="630" on="1"/>
        <pt x="466" y="630" on="1"/>
        <pt x="466" y="544" on="1"/>
        <pt x="183" y="544" on="1"/>
        <pt x="183" y="370" on="1"/>
        <pt x="440" y="370" on="1"/>
        <pt x="440" y="285" on="1"/>
        <pt x="183" y="285" on="1"/>
        <pt x="183" y="86" on="1"/>
        <pt x="469" y="86" on="1"/>
        <pt x="469" y="0" on="1"/>
        <pt x="76" y="0" on="1"/>
      </contour>
    </TTGlyph>
    <TTGlyph name="Eacute" xMin="76" yMin="0" xMax="469" yMax="829">
      <contour>
        <pt x="76" y="630" on="1"/>
        <pt x="466" y="630" on="1"/>
        <pt x="466" y="544" on="1"/>
        <pt x="183" y="544" on="1"/>
        <pt x="183" y="370" on="1"/>
        <pt x="440" y="370" on="1"/>
        <pt x="440" y="285" on="1"/>
        <pt x="183" y="285" on="1"/>
        <pt x="183" y="86" on="1"/>
        <pt x="469" y="86" on="1"/>
        <pt x="469" y="0" on="1"/>
        <pt x="76" y="0" on="1"/>
      </contour>
      <contour>
        <pt x="276" y="705" on="1"/>
        <pt x="191" y="705" on="1"/>
        <pt x="271" y="829" on="1"/>
        <pt x="388" y="829" on="1"/>
      </contour>
    </TTGlyph>
    <TTGlyph name="Ebreve" xMin="76" yMin="0" xMax="469" yMax="838">
      <contour>
        <pt x="76" y="630" on="1"/>
        <pt x="466" y="630" on="1"/>
        <pt x="466" y="544" on="1"/>
        <pt x="183" y="544" on="1"/>
        <pt x="183" y="370" on="1"/>
        <pt x="440" y="370" on="1"/>
        <pt x="440" y="285" on="1"/>
        <pt x="183" y="285" on="1"/>
        <pt x="183" y="86" on="1"/>
        <pt x="469" y="86" on="1"/>
        <pt x="469" y="0" on="1"/>
        <pt x="76" y="0" on="1"/>
      </contour>
      <contour>
        <pt x="213" y="838" on="1"/>
        <pt x="216" y="808" on="0"/>
        <pt x="243" y="773" on="0"/>
        <pt x="280" y="773" on="1"/>
        <pt x="312" y="773" on="0"/>
        <pt x="344" y="806" on="0"/>
        <pt x="347" y="838" on="1"/>
        <pt x="414" y="838" on="1"/>
        <pt x="414" y="782" on="0"/>
        <pt x="345" y="713" on="0"/>
        <pt x="280" y="713" on="1"/>
        <pt x="244" y="713" on="0"/>
        <pt x="193" y="734" on="0"/>
        <pt x="160" y="769" on="0"/>
        <pt x="145" y="814" on="0"/>
        <pt x="145" y="838" on="1"/>
      </contour>
    </TTGlyph>
    <TTGlyph name="Ecaron" xMin="76" yMin="0" xMax="469" yMax="837">
      <contour>
        <pt x="76" y="630" on="1"/>
        <pt x="466" y="630" on="1"/>
        <pt x="466" y="544" on="1"/>
        <pt x="183" y="544" on="1"/>
        <pt x="183" y="370" on="1"/>
        <pt x="440" y="370" on="1"/>
        <pt x="440" y="285" on="1"/>
        <pt x="183" y="285" on="1"/>
        <pt x="183" y="86" on="1"/>
        <pt x="469" y="86" on="1"/>
        <pt x="469" y="0" on="1"/>
        <pt x="76" y="0" on="1"/>
      </contour>
      <contour>
        <pt x="320" y="706" on="1"/>
        <pt x="241" y="706" on="1"/>
        <pt x="121" y="837" on="1"/>
        <pt x="208" y="837" on="1"/>
        <pt x="282" y="756" on="1"/>
        <pt x="356" y="837" on="1"/>
        <pt x="442" y="837" on="1"/>
      </contour>
    </TTGlyph>
    <TTGlyph name="Ecircumflex" xMin="76" yMin="0" xMax="469" yMax="836">
      <contour>
        <pt x="76" y="630" on="1"/>
        <pt x="466" y="630" on="1"/>
        <pt x="466" y="544" on="1"/>
        <pt x="183" y="544" on="1"/>
        <pt x="183" y="370" on="1"/>
        <pt x="440" y="370" on="1"/>
        <pt x="440" y="285" on="1"/>
        <pt x="183" y="285" on="1"/>
        <pt x="183" y="86" on="1"/>
        <pt x="469" y="86" on="1"/>
        <pt x="469" y="0" on="1"/>
        <pt x="76" y="0" on="1"/>
      </contour>
      <contour>
        <pt x="225" y="836" on="1"/>
        <pt x="304" y="836" on="1"/>
        <pt x="426" y="705" on="1"/>
        <pt x="339" y="705" on="1"/>
        <pt x="264" y="784" on="1"/>
        <pt x="189" y="705" on="1"/>
        <pt x="105" y="705" on="1"/>
      </contour>
    </TTGlyph>
    <TTGlyph name="Edieresis" xMin="76" yMin="0" xMax="469" yMax="811">
      <contour>
        <pt x="76" y="630" on="1"/>
        <pt x="466" y="630" on="1"/>
        <pt x="466" y="544" on="1"/>
        <pt x="183" y="544" on="1"/>
        <pt x="183" y="370" on="1"/>
        <pt x="440" y="370" on="1"/>
        <pt x="440" y="285" on="1"/>
        <pt x="183" y="285" on="1"/>
        <pt x="183" y="86" on="1"/>
        <pt x="469" y="86" on="1"/>
        <pt x="469" y="0" on="1"/>
        <pt x="76" y="0" on="1"/>
      </contour>
      <contour>
        <pt x="130" y="758" on="1"/>
        <pt x="130" y="779" on="0"/>
        <pt x="162" y="811" on="0"/>
        <pt x="185" y="811" on="1"/>
        <pt x="207" y="811" on="0"/>
        <pt x="239" y="779" on="0"/>
        <pt x="239" y="758" on="1"/>
        <pt x="239" y="735" on="0"/>
        <pt x="207" y="702" on="0"/>
        <pt x="185" y="702" on="1"/>
        <pt x="162" y="702" on="0"/>
        <pt x="130" y="735" on="0"/>
      </contour>
      <contour>
        <pt x="306" y="758" on="1"/>
        <pt x="306" y="779" on="0"/>
        <pt x="338" y="811" on="0"/>
        <pt x="360" y="811" on="1"/>
        <pt x="383" y="811" on="0"/>
        <pt x="415" y="779" on="0"/>
        <pt x="415" y="758" on="1"/>
        <pt x="415" y="735" on="0"/>
        <pt x="383" y="702" on="0"/>
        <pt x="360" y="702" on="1"/>
        <pt x="338" y="702" on="0"/>
        <pt x="306" y="735" on="0"/>
      </contour>
    </TTGlyph>
    <TTGlyph name="Edotaccent" xMin="76" yMin="0" xMax="469" yMax="820">
      <contour>
        <pt x="76" y="630" on="1"/>
        <pt x="466" y="630" on="1"/>
        <pt x="466" y="544" on="1"/>
        <pt x="183" y="544" on="1"/>
        <pt x="183" y="370" on="1"/>
        <pt x="440" y="370" on="1"/>
        <pt x="440" y="285" on="1"/>
        <pt x="183" y="285" on="1"/>
        <pt x="183" y="86" on="1"/>
        <pt x="469" y="86" on="1"/>
        <pt x="469" y="0" on="1"/>
        <pt x="76" y="0" on="1"/>
      </contour>
      <contour>
        <pt x="225" y="762" on="1"/>
        <pt x="225" y="785" on="0"/>
        <pt x="261" y="820" on="0"/>
        <pt x="284" y="820" on="1"/>
        <pt x="309" y="820" on="0"/>
        <pt x="343" y="785" on="0"/>
        <pt x="343" y="762" on="1"/>
        <pt x="343" y="737" on="0"/>
        <pt x="309" y="702" on="0"/>
        <pt x="284" y="702" on="1"/>
        <pt x="261" y="702" on="0"/>
        <pt x="225" y="737" on="0"/>
      </contour>
    </TTGlyph>
    <TTGlyph name="Egrave" xMin="76" yMin="0" xMax="469" yMax="829">
      <contour>
        <pt x="76" y="630" on="1"/>
        <pt x="466" y="630" on="1"/>
        <pt x="466" y="544" on="1"/>
        <pt x="183" y="544" on="1"/>
        <pt x="183" y="370" on="1"/>
        <pt x="440" y="370" on="1"/>
        <pt x="440" y="285" on="1"/>
        <pt x="183" y="285" on="1"/>
        <pt x="183" y="86" on="1"/>
        <pt x="469" y="86" on="1"/>
        <pt x="469" y="0" on="1"/>
        <pt x="76" y="0" on="1"/>
      </contour>
      <contour>
        <pt x="167" y="829" on="1"/>
        <pt x="284" y="829" on="1"/>
        <pt x="364" y="705" on="1"/>
        <pt x="280" y="705" on="1"/>
      </contour>
    </TTGlyph>
    <TTGlyph name="Emacron" xMin="76" yMin="0" xMax="469" yMax="772">
      <contour>
        <pt x="76" y="630" on="1"/>
        <pt x="466" y="630" on="1"/>
        <pt x="466" y="544" on="1"/>
        <pt x="183" y="544" on="1"/>
        <pt x="183" y="370" on="1"/>
        <pt x="440" y="370" on="1"/>
        <pt x="440" y="285" on="1"/>
        <pt x="183" y="285" on="1"/>
        <pt x="183" y="86" on="1"/>
        <pt x="469" y="86" on="1"/>
        <pt x="469" y="0" on="1"/>
        <pt x="76" y="0" on="1"/>
      </contour>
      <contour>
        <pt x="395" y="772" on="1"/>
        <pt x="395" y="705" on="1"/>
        <pt x="146" y="705" on="1"/>
        <pt x="146" y="772" on="1"/>
      </contour>
    </TTGlyph>
    <TTGlyph name="Eng" xMin="76" yMin="-242" xMax="596" yMax="630">
      <contour>
        <pt x="76" y="630" on="1"/>
        <pt x="171" y="630" on="1"/>
        <pt x="435" y="233" on="1"/>
        <pt x="453" y="207" on="0"/>
        <pt x="485" y="155" on="0"/>
        <pt x="496" y="134" on="1"/>
        <pt x="498" y="134" on="1"/>
        <pt x="493" y="208" on="0"/>
        <pt x="493" y="355" on="0"/>
        <pt x="493" y="430" on="1"/>
        <pt x="493" y="630" on="1"/>
        <pt x="596" y="630" on="1"/>
        <pt x="596" y="73" on="1"/>
        <pt x="596" y="16" on="0"/>
        <pt x="581" y="-80" on="0"/>
        <pt x="543" y="-158" on="0"/>
        <pt x="477" y="-219" on="0"/>
        <pt x="425" y="-242" on="1"/>
        <pt x="379" y="-168" on="1"/>
        <pt x="429" y="-142" on="0"/>
        <pt x="486" y="-70" on="0"/>
        <pt x="493" y="-8" on="1"/>
        <pt x="244" y="365" on="1"/>
        <pt x="225" y="392" on="0"/>
        <pt x="189" y="455" on="0"/>
        <pt x="176" y="480" on="1"/>
        <pt x="174" y="480" on="1"/>
        <pt x="179" y="402" on="0"/>
        <pt x="179" y="249" on="0"/>
        <pt x="179" y="172" on="1"/>
        <pt x="179" y="0" on="1"/>
        <pt x="76" y="0" on="1"/>
      </contour>
    </TTGlyph>
    <TTGlyph name="Eogonek" xMin="76" yMin="-206" xMax="496" yMax="630">
      <contour>
        <pt x="76" y="630" on="1"/>
        <pt x="466" y="630" on="1"/>
        <pt x="466" y="544" on="1"/>
        <pt x="183" y="544" on="1"/>
        <pt x="183" y="370" on="1"/>
        <pt x="440" y="370" on="1"/>
        <pt x="440" y="285" on="1"/>
        <pt x="183" y="285" on="1"/>
        <pt x="183" y="86" on="1"/>
        <pt x="469" y="86" on="1"/>
        <pt x="469" y="0" on="1"/>
        <pt x="431" y="-19" on="0"/>
        <pt x="383" y="-62" on="0"/>
        <pt x="383" y="-90" on="1"/>
        <pt x="383" y="-113" on="0"/>
        <pt x="411" y="-139" on="0"/>
        <pt x="434" y="-139" on="1"/>
        <pt x="448" y="-139" on="0"/>
        <pt x="472" y="-134" on="0"/>
        <pt x="482" y="-131" on="1"/>
        <pt x="496" y="-185" on="1"/>
        <pt x="463" y="-206" on="0"/>
        <pt x="415" y="-206" on="1"/>
        <pt x="369" y="-206" on="0"/>
        <pt x="308" y="-155" on="0"/>
        <pt x="308" y="-108" on="1"/>
        <pt x="308" y="-71" on="0"/>
        <pt x="351" y="-17" on="0"/>
        <pt x="379" y="-2" on="1"/>
        <pt x="379" y="0" on="1"/>
        <pt x="76" y="0" on="1"/>
      </contour>
    </TTGlyph>
    <TTGlyph name="Esmall" xMin="74" yMin="0" xMax="401" yMax="472">
      <contour>
        <pt x="74" y="472" on="1"/>
        <pt x="399" y="472" on="1"/>
        <pt x="399" y="394" on="1"/>
        <pt x="175" y="394" on="1"/>
        <pt x="175" y="281" on="1"/>
        <pt x="377" y="281" on="1"/>
        <pt x="377" y="204" on="1"/>
        <pt x="175" y="204" on="1"/>
        <pt x="175" y="78" on="1"/>
        <pt x="401" y="78" on="1"/>
        <pt x="401" y="0" on="1"/>
        <pt x="74" y="0" on="1"/>
      </contour>
    </TTGlyph>
    <TTGlyph name="Eth" xMin="27" yMin="0" xMax="635" yMax="630">
      <contour>
        <pt x="319" y="630" on="1"/>
        <pt x="388" y="630" on="0"/>
        <pt x="504" y="592" on="0"/>
        <pt x="588" y="517" on="0"/>
        <pt x="635" y="404" on="0"/>
        <pt x="635" y="329" on="1"/>
        <pt x="635" y="240" on="0"/>
        <pt x="579" y="115" on="0"/>
        <pt x="484" y="36" on="0"/>
        <pt x="357" y="0" on="0"/>
        <pt x="286" y="0" on="1"/>
        <pt x="109" y="0" on="1"/>
        <pt x="109" y="290" on="1"/>
        <pt x="27" y="290" on="1"/>
        <pt x="27" y="362" on="1"/>
        <pt x="109" y="362" on="1"/>
        <pt x="109" y="630" on="1"/>
      </contour>
      <contour>
        <pt x="340" y="362" on="1"/>
        <pt x="340" y="290" on="1"/>
        <pt x="216" y="290" on="1"/>
        <pt x="216" y="86" on="1"/>
        <pt x="277" y="86" on="1"/>
        <pt x="323" y="86" on="0"/>
        <pt x="411" y="107" on="0"/>
        <pt x="479" y="162" on="0"/>
        <pt x="520" y="256" on="0"/>
        <pt x="520" y="329" on="1"/>
        <pt x="520" y="433" on="0"/>
        <pt x="401" y="544" on="0"/>
        <pt x="301" y="544" on="1"/>
        <pt x="216" y="544" on="1"/>
        <pt x="216" y="362" on="1"/>
      </contour>
    </TTGlyph>
    <TTGlyph name="Euro" xMin="5" yMin="-10" xMax="526" yMax="640">
      <contour>
        <pt x="366" y="76" on="1"/>
        <pt x="409" y="76" on="0"/>
        <pt x="472" y="93" on="0"/>
        <pt x="501" y="107" on="1"/>
        <pt x="524" y="24" on="1"/>
        <pt x="492" y="9" on="0"/>
        <pt x="415" y="-10" on="0"/>
        <pt x="354" y="-10" on="1"/>
        <pt x="302" y="-10" on="0"/>
        <pt x="211" y="19" on="0"/>
        <pt x="138" y="77" on="0"/>
        <pt x="88" y="162" on="0"/>
        <pt x="77" y="219" on="1"/>
        <pt x="5" y="219" on="1"/>
        <pt x="5" y="275" on="1"/>
        <pt x="69" y="275" on="1"/>
        <pt x="68" y="292" on="0"/>
        <pt x="68" y="307" on="0"/>
        <pt x="68" y="316" on="1"/>
        <pt x="68" y="333" on="1"/>
        <pt x="5" y="333" on="1"/>
        <pt x="5" y="389" on="1"/>
        <pt x="77" y="389" on="1"/>
        <pt x="95" y="507" on="0"/>
        <pt x="241" y="640" on="0"/>
        <pt x="359" y="640" on="1"/>
        <pt x="390" y="640" on="0"/>
        <pt x="439" y="634" on="0"/>
        <pt x="478" y="624" on="0"/>
        <pt x="511" y="610" on="0"/>
        <pt x="526" y="602" on="1"/>
        <pt x="501" y="521" on="1"/>
        <pt x="467" y="537" on="0"/>
        <pt x="408" y="554" on="0"/>
        <pt x="371" y="554" on="1"/>
        <pt x="338" y="554" on="0"/>
        <pt x="277" y="533" on="0"/>
        <pt x="227" y="492" on="0"/>
        <pt x="193" y="430" on="0"/>
        <pt x="188" y="389" on="1"/>
        <pt x="450" y="389" on="1"/>
        <pt x="450" y="333" on="1"/>
        <pt x="180" y="333" on="1"/>
        <pt x="180" y="321" on="1"/>
        <pt x="180" y="310" on="0"/>
        <pt x="180" y="292" on="0"/>
        <pt x="181" y="275" on="1"/>
        <pt x="450" y="275" on="1"/>
        <pt x="450" y="219" on="1"/>
        <pt x="191" y="219" on="1"/>
        <pt x="198" y="180" on="0"/>
        <pt x="232" y="126" on="0"/>
        <pt x="279" y="91" on="0"/>
        <pt x="336" y="76" on="0"/>
      </contour>
    </TTGlyph>
    <TTGlyph name="F" xMin="76" yMin="0" xMax="456" yMax="630">
      <contour>
        <pt x="456" y="630" on="1"/>
        <pt x="456" y="544" on="1"/>
        <pt x="183" y="544" on="1"/>
        <pt x="183" y="352" on="1"/>
        <pt x="434" y="352" on="1"/>
        <pt x="434" y="267" on="1"/>
        <pt x="183" y="267" on="1"/>
        <pt x="183" y="0" on="1"/>
        <pt x="76" y="0" on="1"/>
        <pt x="76" y="630" on="1"/>
      </contour>
    </TTGlyph>
    <TTGlyph name="Fsmall" xMin="74" yMin="0" xMax="390" yMax="472">
      <contour>
        <pt x="390" y="472" on="1"/>
        <pt x="390" y="394" on="1"/>
        <pt x="177" y="394" on="1"/>
        <pt x="177" y="267" on="1"/>
        <pt x="372" y="267" on="1"/>
        <pt x="372" y="189" on="1"/>
        <pt x="177" y="189" on="1"/>
        <pt x="177" y="0" on="1"/>
        <pt x="74" y="0" on="1"/>
        <pt x="74" y="472" on="1"/>
      </contour>
    </TTGlyph>
    <TTGlyph name="G" xMin="43" yMin="-10" xMax="567" yMax="640">
      <contour>
        <pt x="360" y="640" on="1"/>
        <pt x="470" y="640" on="0"/>
        <pt x="544" y="603" on="1"/>
        <pt x="520" y="524" on="1"/>
        <pt x="484" y="541" on="0"/>
        <pt x="411" y="557" on="0"/>
        <pt x="372" y="557" on="1"/>
        <pt x="329" y="557" on="0"/>
        <pt x="252" y="531" on="0"/>
        <pt x="193" y="473" on="0"/>
        <pt x="158" y="381" on="0"/>
        <pt x="158" y="314" on="1"/>
        <pt x="158" y="197" on="0"/>
        <pt x="264" y="74" on="0"/>
        <pt x="361" y="74" on="1"/>
        <pt x="395" y="74" on="0"/>
        <pt x="444" y="81" on="0"/>
        <pt x="466" y="89" on="1"/>
        <pt x="466" y="255" on="1"/>
        <pt x="352" y="255" on="1"/>
        <pt x="352" y="337" on="1"/>
        <pt x="567" y="337" on="1"/>
        <pt x="567" y="28" on="1"/>
        <pt x="527" y="12" on="0"/>
        <pt x="427" y="-10" on="0"/>
        <pt x="360" y="-10" on="1"/>
        <pt x="294" y="-10" on="0"/>
        <pt x="178" y="32" on="0"/>
        <pt x="92" y="114" on="0"/>
        <pt x="43" y="235" on="0"/>
        <pt x="43" y="314" on="1"/>
        <pt x="43" y="393" on="0"/>
        <pt x="91" y="515" on="0"/>
        <pt x="176" y="598" on="0"/>
        <pt x="292" y="640" on="0"/>
      </contour>
    </TTGlyph>
    <TTGlyph name="Gbreve" xMin="43" yMin="-10" xMax="567" yMax="838">
      <contour>
        <pt x="360" y="640" on="1"/>
        <pt x="470" y="640" on="0"/>
        <pt x="544" y="603" on="1"/>
        <pt x="520" y="524" on="1"/>
        <pt x="484" y="541" on="0"/>
        <pt x="411" y="557" on="0"/>
        <pt x="372" y="557" on="1"/>
        <pt x="329" y="557" on="0"/>
        <pt x="252" y="531" on="0"/>
        <pt x="193" y="473" on="0"/>
        <pt x="158" y="381" on="0"/>
        <pt x="158" y="314" on="1"/>
        <pt x="158" y="197" on="0"/>
        <pt x="264" y="74" on="0"/>
        <pt x="361" y="74" on="1"/>
        <pt x="395" y="74" on="0"/>
        <pt x="444" y="81" on="0"/>
        <pt x="466" y="89" on="1"/>
        <pt x="466" y="255" on="1"/>
        <pt x="352" y="255" on="1"/>
        <pt x="352" y="337" on="1"/>
        <pt x="567" y="337" on="1"/>
        <pt x="567" y="28" on="1"/>
        <pt x="527" y="12" on="0"/>
        <pt x="427" y="-10" on="0"/>
        <pt x="360" y="-10" on="1"/>
        <pt x="294" y="-10" on="0"/>
        <pt x="178" y="32" on="0"/>
        <pt x="92" y="114" on="0"/>
        <pt x="43" y="235" on="0"/>
        <pt x="43" y="314" on="1"/>
        <pt x="43" y="393" on="0"/>
        <pt x="91" y="515" on="0"/>
        <pt x="176" y="598" on="0"/>
        <pt x="292" y="640" on="0"/>
      </contour>
      <contour>
        <pt x="296" y="838" on="1"/>
        <pt x="299" y="808" on="0"/>
        <pt x="326" y="773" on="0"/>
        <pt x="363" y="773" on="1"/>
        <pt x="395" y="773" on="0"/>
        <pt x="427" y="806" on="0"/>
        <pt x="430" y="838" on="1"/>
        <pt x="497" y="838" on="1"/>
        <pt x="497" y="782" on="0"/>
        <pt x="428" y="713" on="0"/>
        <pt x="363" y="713" on="1"/>
        <pt x="327" y="713" on="0"/>
        <pt x="276" y="734" on="0"/>
        <pt x="243" y="769" on="0"/>
        <pt x="228" y="814" on="0"/>
        <pt x="228" y="838" on="1"/>
      </contour>
    </TTGlyph>
    <TTGlyph name="Gcircumflex" xMin="43" yMin="-10" xMax="567" yMax="836">
      <contour>
        <pt x="360" y="640" on="1"/>
        <pt x="470" y="640" on="0"/>
        <pt x="544" y="603" on="1"/>
        <pt x="520" y="524" on="1"/>
        <pt x="484" y="541" on="0"/>
        <pt x="411" y="557" on="0"/>
        <pt x="372" y="557" on="1"/>
        <pt x="329" y="557" on="0"/>
        <pt x="252" y="531" on="0"/>
        <pt x="193" y="473" on="0"/>
        <pt x="158" y="381" on="0"/>
        <pt x="158" y="314" on="1"/>
        <pt x="158" y="197" on="0"/>
        <pt x="264" y="74" on="0"/>
        <pt x="361" y="74" on="1"/>
        <pt x="395" y="74" on="0"/>
        <pt x="444" y="81" on="0"/>
        <pt x="466" y="89" on="1"/>
        <pt x="466" y="255" on="1"/>
        <pt x="352" y="255" on="1"/>
        <pt x="352" y="337" on="1"/>
        <pt x="567" y="337" on="1"/>
        <pt x="567" y="28" on="1"/>
        <pt x="527" y="12" on="0"/>
        <pt x="427" y="-10" on="0"/>
        <pt x="360" y="-10" on="1"/>
        <pt x="294" y="-10" on="0"/>
        <pt x="178" y="32" on="0"/>
        <pt x="92" y="114" on="0"/>
        <pt x="43" y="235" on="0"/>
        <pt x="43" y="314" on="1"/>
        <pt x="43" y="393" on="0"/>
        <pt x="91" y="515" on="0"/>
        <pt x="176" y="598" on="0"/>
        <pt x="292" y="640" on="0"/>
      </contour>
      <contour>
        <pt x="303" y="836" on="1"/>
        <pt x="382" y="836" on="1"/>
        <pt x="504" y="705" on="1"/>
        <pt x="417" y="705" on="1"/>
        <pt x="342" y="784" on="1"/>
        <pt x="267" y="705" on="1"/>
        <pt x="183" y="705" on="1"/>
      </contour>
    </TTGlyph>
    <TTGlyph name="Gcommaaccent" xMin="43" yMin="-323" xMax="567" yMax="640">
      <contour>
        <pt x="360" y="640" on="1"/>
        <pt x="470" y="640" on="0"/>
        <pt x="544" y="603" on="1"/>
        <pt x="520" y="524" on="1"/>
        <pt x="484" y="541" on="0"/>
        <pt x="411" y="557" on="0"/>
        <pt x="372" y="557" on="1"/>
        <pt x="329" y="557" on="0"/>
        <pt x="252" y="531" on="0"/>
        <pt x="193" y="473" on="0"/>
        <pt x="158" y="381" on="0"/>
        <pt x="158" y="314" on="1"/>
        <pt x="158" y="197" on="0"/>
        <pt x="264" y="74" on="0"/>
        <pt x="361" y="74" on="1"/>
        <pt x="395" y="74" on="0"/>
        <pt x="444" y="81" on="0"/>
        <pt x="466" y="89" on="1"/>
        <pt x="466" y="255" on="1"/>
        <pt x="352" y="255" on="1"/>
        <pt x="352" y="337" on="1"/>
        <pt x="567" y="337" on="1"/>
        <pt x="567" y="28" on="1"/>
        <pt x="527" y="12" on="0"/>
        <pt x="427" y="-10" on="0"/>
        <pt x="360" y="-10" on="1"/>
        <pt x="294" y="-10" on="0"/>
        <pt x="178" y="32" on="0"/>
        <pt x="92" y="114" on="0"/>
        <pt x="43" y="235" on="0"/>
        <pt x="43" y="314" on="1"/>
        <pt x="43" y="393" on="0"/>
        <pt x="91" y="515" on="0"/>
        <pt x="176" y="598" on="0"/>
        <pt x="292" y="640" on="0"/>
      </contour>
      <contour>
        <pt x="345" y="-187" on="1"/>
        <pt x="327" y="-184" on="0"/>
        <pt x="292" y="-153" on="0"/>
        <pt x="292" y="-126" on="1"/>
        <pt x="292" y="-101" on="0"/>
        <pt x="325" y="-65" on="0"/>
        <pt x="354" y="-65" on="1"/>
        <pt x="366" y="-65" on="0"/>
        <pt x="392" y="-75" on="0"/>
        <pt x="413" y="-97" on="0"/>
        <pt x="427" y="-131" on="0"/>
        <pt x="427" y="-156" on="1"/>
        <pt x="427" y="-181" on="0"/>
        <pt x="410" y="-230" on="0"/>
        <pt x="380" y="-274" on="0"/>
        <pt x="339" y="-311" on="0"/>
        <pt x="316" y="-323" on="1"/>
        <pt x="289" y="-286" on="1"/>
        <pt x="316" y="-269" on="0"/>
        <pt x="360" y="-217" on="0"/>
        <pt x="363" y="-191" on="1"/>
      </contour>
    </TTGlyph>
    <TTGlyph name="Gdotaccent" xMin="43" yMin="-10" xMax="567" yMax="820">
      <contour>
        <pt x="360" y="640" on="1"/>
        <pt x="470" y="640" on="0"/>
        <pt x="544" y="603" on="1"/>
        <pt x="520" y="524" on="1"/>
        <pt x="484" y="541" on="0"/>
        <pt x="411" y="557" on="0"/>
        <pt x="372" y="557" on="1"/>
        <pt x="329" y="557" on="0"/>
        <pt x="252" y="531" on="0"/>
        <pt x="193" y="473" on="0"/>
        <pt x="158" y="381" on="0"/>
        <pt x="158" y="314" on="1"/>
        <pt x="158" y="197" on="0"/>
        <pt x="264" y="74" on="0"/>
        <pt x="361" y="74" on="1"/>
        <pt x="395" y="74" on="0"/>
        <pt x="444" y="81" on="0"/>
        <pt x="466" y="89" on="1"/>
        <pt x="466" y="255" on="1"/>
        <pt x="352" y="255" on="1"/>
        <pt x="352" y="337" on="1"/>
        <pt x="567" y="337" on="1"/>
        <pt x="567" y="28" on="1"/>
        <pt x="527" y="12" on="0"/>
        <pt x="427" y="-10" on="0"/>
        <pt x="360" y="-10" on="1"/>
        <pt x="294" y="-10" on="0"/>
        <pt x="178" y="32" on="0"/>
        <pt x="92" y="114" on="0"/>
        <pt x="43" y="235" on="0"/>
        <pt x="43" y="314" on="1"/>
        <pt x="43" y="393" on="0"/>
        <pt x="91" y="515" on="0"/>
        <pt x="176" y="598" on="0"/>
        <pt x="292" y="640" on="0"/>
      </contour>
      <contour>
        <pt x="301" y="762" on="1"/>
        <pt x="301" y="785" on="0"/>
        <pt x="337" y="820" on="0"/>
        <pt x="360" y="820" on="1"/>
        <pt x="385" y="820" on="0"/>
        <pt x="419" y="785" on="0"/>
        <pt x="419" y="762" on="1"/>
        <pt x="419" y="737" on="0"/>
        <pt x="385" y="702" on="0"/>
        <pt x="360" y="702" on="1"/>
        <pt x="337" y="702" on="0"/>
        <pt x="301" y="737" on="0"/>
      </contour>
    </TTGlyph>
    <TTGlyph name="Grave" xMin="23" yMin="705" xMax="219" yMax="829">
      <contour>
        <pt x="23" y="829" on="1"/>
        <pt x="139" y="829" on="1"/>
        <pt x="219" y="705" on="1"/>
        <pt x="135" y="705" on="1"/>
      </contour>
    </TTGlyph>
    <TTGlyph name="Gsmall" xMin="43" yMin="-10" xMax="456" yMax="480">
      <contour>
        <pt x="303" y="68" on="1"/>
        <pt x="320" y="68" on="0"/>
        <pt x="354" y="72" on="0"/>
        <pt x="368" y="77" on="1"/>
        <pt x="368" y="181" on="1"/>
        <pt x="279" y="181" on="1"/>
        <pt x="279" y="256" on="1"/>
        <pt x="456" y="256" on="1"/>
        <pt x="456" y="18" on="1"/>
        <pt x="424" y="4" on="0"/>
        <pt x="340" y="-10" on="0"/>
        <pt x="296" y="-10" on="1"/>
        <pt x="242" y="-10" on="0"/>
        <pt x="150" y="21" on="0"/>
        <pt x="82" y="82" on="0"/>
        <pt x="43" y="173" on="0"/>
        <pt x="43" y="234" on="1"/>
        <pt x="43" y="291" on="0"/>
        <pt x="80" y="382" on="0"/>
        <pt x="146" y="446" on="0"/>
        <pt x="239" y="480" on="0"/>
        <pt x="296" y="480" on="1"/>
        <pt x="329" y="480" on="0"/>
        <pt x="404" y="471" on="0"/>
        <pt x="442" y="454" on="1"/>
        <pt x="420" y="379" on="1"/>
        <pt x="396" y="392" on="0"/>
        <pt x="336" y="403" on="0"/>
        <pt x="307" y="403" on="1"/>
        <pt x="233" y="403" on="0"/>
        <pt x="148" y="315" on="0"/>
        <pt x="148" y="237" on="1"/>
        <pt x="148" y="189" on="0"/>
        <pt x="174" y="124" on="0"/>
        <pt x="218" y="85" on="0"/>
        <pt x="273" y="68" on="0"/>
      </contour>
    </TTGlyph>
    <TTGlyph name="H" xMin="76" yMin="0" xMax="569" yMax="630">
      <contour>
        <pt x="76" y="0" on="1"/>
        <pt x="76" y="630" on="1"/>
        <pt x="183" y="630" on="1"/>
        <pt x="183" y="370" on="1"/>
        <pt x="462" y="370" on="1"/>
        <pt x="462" y="630" on="1"/>
        <pt x="569" y="630" on="1"/>
        <pt x="569" y="0" on="1"/>
        <pt x="462" y="0" on="1"/>
        <pt x="462" y="282" on="1"/>
        <pt x="183" y="282" on="1"/>
        <pt x="183" y="0" on="1"/>
      </contour>
    </TTGlyph>
    <TTGlyph name="Hbar" xMin="20" yMin="0" xMax="633" yMax="630">
      <contour>
        <pt x="80" y="0" on="1"/>
        <pt x="80" y="483" on="1"/>
        <pt x="20" y="483" on="1"/>
        <pt x="20" y="552" on="1"/>
        <pt x="80" y="552" on="1"/>
        <pt x="80" y="630" on="1"/>
        <pt x="187" y="630" on="1"/>
        <pt x="187" y="552" on="1"/>
        <pt x="466" y="552" on="1"/>
        <pt x="466" y="630" on="1"/>
        <pt x="573" y="630" on="1"/>
        <pt x="573" y="552" on="1"/>
        <pt x="633" y="552" on="1"/>
        <pt x="633" y="483" on="1"/>
        <pt x="573" y="483" on="1"/>
        <pt x="573" y="0" on="1"/>
        <pt x="466" y="0" on="1"/>
        <pt x="466" y="282" on="1"/>
        <pt x="187" y="282" on="1"/>
        <pt x="187" y="0" on="1"/>
      </contour>
      <contour>
        <pt x="466" y="370" on="1"/>
        <pt x="466" y="483" on="1"/>
        <pt x="187" y="483" on="1"/>
        <pt x="187" y="370" on="1"/>
      </contour>
    </TTGlyph>
    <TTGlyph name="Hcircumflex" xMin="76" yMin="0" xMax="569" yMax="836">
      <contour>
        <pt x="76" y="0" on="1"/>
        <pt x="76" y="630" on="1"/>
        <pt x="183" y="630" on="1"/>
        <pt x="183" y="370" on="1"/>
        <pt x="462" y="370" on="1"/>
        <pt x="462" y="630" on="1"/>
        <pt x="569" y="630" on="1"/>
        <pt x="569" y="0" on="1"/>
        <pt x="462" y="0" on="1"/>
        <pt x="462" y="282" on="1"/>
        <pt x="183" y="282" on="1"/>
        <pt x="183" y="0" on="1"/>
      </contour>
      <contour>
        <pt x="286" y="836" on="1"/>
        <pt x="365" y="836" on="1"/>
        <pt x="487" y="705" on="1"/>
        <pt x="400" y="705" on="1"/>
        <pt x="325" y="784" on="1"/>
        <pt x="250" y="705" on="1"/>
        <pt x="166" y="705" on="1"/>
      </contour>
    </TTGlyph>
    <TTGlyph name="Hsmall" xMin="74" yMin="0" xMax="480" yMax="472">
      <contour>
        <pt x="74" y="0" on="1"/>
        <pt x="74" y="472" on="1"/>
        <pt x="174" y="472" on="1"/>
        <pt x="174" y="288" on="1"/>
        <pt x="379" y="288" on="1"/>
        <pt x="379" y="472" on="1"/>
        <pt x="480" y="472" on="1"/>
        <pt x="480" y="0" on="1"/>
        <pt x="379" y="0" on="1"/>
        <pt x="379" y="207" on="1"/>
        <pt x="174" y="207" on="1"/>
        <pt x="174" y="0" on="1"/>
      </contour>
    </TTGlyph>
    <TTGlyph name="Hungarumlaut" xMin="29" yMin="705" xMax="412" yMax="830">
      <contour>
        <pt x="111" y="705" on="1"/>
        <pt x="29" y="705" on="1"/>
        <pt x="109" y="830" on="1"/>
        <pt x="218" y="830" on="1"/>
      </contour>
      <contour>
        <pt x="304" y="705" on="1"/>
        <pt x="222" y="705" on="1"/>
        <pt x="302" y="830" on="1"/>
        <pt x="412" y="830" on="1"/>
      </contour>
    </TTGlyph>
    <TTGlyph name="I" xMin="76" yMin="0" xMax="183" yMax="630">
      <contour>
        <pt x="183" y="630" on="1"/>
        <pt x="183" y="0" on="1"/>
        <pt x="76" y="0" on="1"/>
        <pt x="76" y="630" on="1"/>
      </contour>
    </TTGlyph>
    <TTGlyph name="IJ" xMin="76" yMin="-160" xMax="436" yMax="630">
      <contour>
        <pt x="183" y="630" on="1"/>
        <pt x="183" y="0" on="1"/>
        <pt x="76" y="0" on="1"/>
        <pt x="76" y="630" on="1"/>
      </contour>
      <contour>
        <pt x="436" y="630" on="1"/>
        <pt x="436" y="115" on="1"/>
        <pt x="436" y="42" on="0"/>
        <pt x="421" y="-51" on="0"/>
        <pt x="393" y="-86" on="1"/>
        <pt x="362" y="-128" on="0"/>
        <pt x="265" y="-159" on="0"/>
        <pt x="214" y="-160" on="1"/>
        <pt x="214" y="-75" on="1"/>
        <pt x="271" y="-74" on="0"/>
        <pt x="300" y="-41" on="1"/>
        <pt x="318" y="-23" on="0"/>
        <pt x="329" y="34" on="0"/>
        <pt x="329" y="66" on="1"/>
        <pt x="329" y="630" on="1"/>
      </contour>
    </TTGlyph>
    <TTGlyph name="I_01" xMin="-10" yMin="0" xMax="511" yMax="848">
      <contour>
        <pt x="77" y="559" on="1"/>
        <pt x="-10" y="559" on="1"/>
        <pt x="-10" y="633" on="1"/>
        <pt x="63" y="633" on="1"/>
        <pt x="51" y="645" on="0"/>
        <pt x="34" y="692" on="0"/>
        <pt x="34" y="716" on="1"/>
        <pt x="34" y="778" on="0"/>
        <pt x="123" y="848" on="0"/>
        <pt x="193" y="848" on="1"/>
        <pt x="250" y="848" on="0"/>
        <pt x="344" y="809" on="0"/>
        <pt x="421" y="746" on="0"/>
        <pt x="481" y="664" on="0"/>
        <pt x="503" y="622" on="1"/>
        <pt x="511" y="607" on="1"/>
        <pt x="442" y="579" on="1"/>
        <pt x="431" y="597" on="1"/>
        <pt x="411" y="630" on="0"/>
        <pt x="363" y="693" on="0"/>
        <pt x="307" y="741" on="0"/>
        <pt x="245" y="770" on="0"/>
        <pt x="211" y="770" on="1"/>
        <pt x="169" y="770" on="0"/>
        <pt x="127" y="728" on="0"/>
        <pt x="127" y="699" on="1"/>
        <pt x="127" y="676" on="0"/>
        <pt x="140" y="644" on="0"/>
        <pt x="148" y="633" on="1"/>
        <pt x="258" y="633" on="1"/>
        <pt x="258" y="559" on="1"/>
        <pt x="170" y="559" on="1"/>
        <pt x="170" y="0" on="1"/>
        <pt x="77" y="0" on="1"/>
      </contour>
    </TTGlyph>
    <TTGlyph name="I_02" xMin="-10" yMin="0" xMax="641" yMax="856">
      <contour>
        <pt x="77" y="559" on="1"/>
        <pt x="-10" y="559" on="1"/>
        <pt x="-10" y="633" on="1"/>
        <pt x="68" y="633" on="1"/>
        <pt x="63" y="641" on="0"/>
        <pt x="52" y="674" on="0"/>
        <pt x="52" y="700" on="1"/>
        <pt x="52" y="732" on="0"/>
        <pt x="79" y="789" on="0"/>
        <pt x="133" y="831" on="0"/>
        <pt x="213" y="856" on="0"/>
        <pt x="266" y="856" on="1"/>
        <pt x="337" y="856" on="0"/>
        <pt x="452" y="810" on="0"/>
        <pt x="543" y="742" on="0"/>
        <pt x="609" y="661" on="0"/>
        <pt x="632" y="627" on="1"/>
        <pt x="641" y="613" on="1"/>
        <pt x="572" y="576" on="1"/>
        <pt x="558" y="596" on="1"/>
        <pt x="534" y="630" on="0"/>
        <pt x="475" y="696" on="0"/>
        <pt x="403" y="747" on="0"/>
        <pt x="320" y="778" on="0"/>
        <pt x="272" y="778" on="1"/>
        <pt x="206" y="778" on="0"/>
        <pt x="148" y="722" on="0"/>
        <pt x="148" y="682" on="1"/>
        <pt x="148" y="666" on="0"/>
        <pt x="152" y="644" on="0"/>
        <pt x="156" y="633" on="1"/>
        <pt x="258" y="633" on="1"/>
        <pt x="258" y="559" on="1"/>
        <pt x="170" y="559" on="1"/>
        <pt x="170" y="0" on="1"/>
        <pt x="77" y="0" on="1"/>
      </contour>
    </TTGlyph>
    <TTGlyph name="I_03" xMin="-10" yMin="0" xMax="705" yMax="856">
      <contour>
        <pt x="77" y="559" on="1"/>
        <pt x="-10" y="559" on="1"/>
        <pt x="-10" y="633" on="1"/>
        <pt x="68" y="633" on="1"/>
        <pt x="62" y="643" on="0"/>
        <pt x="52" y="679" on="0"/>
        <pt x="52" y="696" on="1"/>
        <pt x="52" y="733" on="0"/>
        <pt x="86" y="792" on="0"/>
        <pt x="147" y="834" on="0"/>
        <pt x="233" y="856" on="0"/>
        <pt x="284" y="856" on="1"/>
        <pt x="364" y="856" on="0"/>
        <pt x="495" y="809" on="0"/>
        <pt x="598" y="739" on="0"/>
        <pt x="673" y="657" on="0"/>
        <pt x="698" y="623" on="1"/>
        <pt x="705" y="613" on="1"/>
        <pt x="639" y="571" on="1"/>
        <pt x="626" y="588" on="1"/>
        <pt x="595" y="627" on="0"/>
        <pt x="523" y="696" on="0"/>
        <pt x="441" y="748" on="0"/>
        <pt x="346" y="778" on="0"/>
        <pt x="292" y="778" on="1"/>
        <pt x="223" y="778" on="0"/>
        <pt x="148" y="722" on="0"/>
        <pt x="148" y="674" on="1"/>
        <pt x="148" y="660" on="0"/>
        <pt x="153" y="641" on="0"/>
        <pt x="157" y="633" on="1"/>
        <pt x="258" y="633" on="1"/>
        <pt x="258" y="559" on="1"/>
        <pt x="170" y="559" on="1"/>
        <pt x="170" y="0" on="1"/>
        <pt x="77" y="0" on="1"/>
      </contour>
    </TTGlyph>
    <TTGlyph name="I_04" xMin="-10" yMin="0" xMax="740" yMax="857">
      <contour>
        <pt x="77" y="559" on="1"/>
        <pt x="-10" y="559" on="1"/>
        <pt x="-10" y="633" on="1"/>
        <pt x="70" y="633" on="1"/>
        <pt x="65" y="643" on="0"/>
        <pt x="54" y="674" on="0"/>
        <pt x="54" y="695" on="1"/>
        <pt x="54" y="732" on="0"/>
        <pt x="92" y="792" on="0"/>
        <pt x="158" y="834" on="0"/>
        <pt x="248" y="857" on="0"/>
        <pt x="301" y="857" on="1"/>
        <pt x="381" y="857" on="0"/>
        <pt x="515" y="815" on="0"/>
        <pt x="624" y="749" on="0"/>
        <pt x="706" y="667" on="0"/>
        <pt x="734" y="626" on="1"/>
        <pt x="740" y="616" on="1"/>
        <pt x="675" y="576" on="1"/>
        <pt x="659" y="597" on="1"/>
        <pt x="630" y="633" on="0"/>
        <pt x="557" y="698" on="0"/>
        <pt x="468" y="748" on="0"/>
        <pt x="365" y="778" on="0"/>
        <pt x="307" y="778" on="1"/>
        <pt x="231" y="778" on="0"/>
        <pt x="151" y="722" on="0"/>
        <pt x="151" y="675" on="1"/>
        <pt x="151" y="661" on="0"/>
        <pt x="154" y="644" on="0"/>
        <pt x="158" y="633" on="1"/>
        <pt x="258" y="633" on="1"/>
        <pt x="258" y="559" on="1"/>
        <pt x="170" y="559" on="1"/>
        <pt x="170" y="0" on="1"/>
        <pt x="77" y="0" on="1"/>
      </contour>
    </TTGlyph>
    <TTGlyph name="I_05" xMin="-10" yMin="0" xMax="781" yMax="857">
      <contour>
        <pt x="77" y="559" on="1"/>
        <pt x="-10" y="559" on="1"/>
        <pt x="-10" y="633" on="1"/>
        <pt x="70" y="633" on="1"/>
        <pt x="65" y="643" on="0"/>
        <pt x="54" y="676" on="0"/>
        <pt x="54" y="697" on="1"/>
        <pt x="54" y="733" on="0"/>
        <pt x="93" y="792" on="0"/>
        <pt x="161" y="834" on="0"/>
        <pt x="255" y="857" on="0"/>
        <pt x="311" y="857" on="1"/>
        <pt x="396" y="857" on="0"/>
        <pt x="538" y="814" on="0"/>
        <pt x="653" y="747" on="0"/>
        <pt x="741" y="667" on="0"/>
        <pt x="771" y="630" on="1"/>
        <pt x="781" y="618" on="1"/>
        <pt x="717" y="569" on="1"/>
        <pt x="701" y="587" on="1"/>
        <pt x="669" y="623" on="0"/>
        <pt x="590" y="692" on="0"/>
        <pt x="494" y="746" on="0"/>
        <pt x="382" y="778" on="0"/>
        <pt x="317" y="778" on="1"/>
        <pt x="237" y="778" on="0"/>
        <pt x="151" y="721" on="0"/>
        <pt x="151" y="676" on="1"/>
        <pt x="151" y="653" on="0"/>
        <pt x="158" y="633" on="1"/>
        <pt x="258" y="633" on="1"/>
        <pt x="258" y="559" on="1"/>
        <pt x="170" y="559" on="1"/>
        <pt x="170" y="0" on="1"/>
        <pt x="77" y="0" on="1"/>
      </contour>
    </TTGlyph>
    <TTGlyph name="I_06" xMin="-10" yMin="0" xMax="807" yMax="857">
      <contour>
        <pt x="77" y="559" on="1"/>
        <pt x="-10" y="559" on="1"/>
        <pt x="-10" y="633" on="1"/>
        <pt x="71" y="633" on="1"/>
        <pt x="65" y="643" on="0"/>
        <pt x="55" y="676" on="0"/>
        <pt x="55" y="697" on="1"/>
        <pt x="55" y="733" on="0"/>
        <pt x="93" y="792" on="0"/>
        <pt x="162" y="834" on="0"/>
        <pt x="255" y="857" on="0"/>
        <pt x="311" y="857" on="1"/>
        <pt x="407" y="857" on="0"/>
        <pt x="560" y="816" on="0"/>
        <pt x="680" y="750" on="0"/>
        <pt x="768" y="667" on="0"/>
        <pt x="799" y="625" on="1"/>
        <pt x="807" y="614" on="1"/>
        <pt x="745" y="571" on="1"/>
        <pt x="730" y="590" on="1"/>
        <pt x="698" y="629" on="0"/>
        <pt x="614" y="697" on="0"/>
        <pt x="511" y="748" on="0"/>
        <pt x="387" y="778" on="0"/>
        <pt x="317" y="778" on="1"/>
        <pt x="237" y="778" on="0"/>
        <pt x="151" y="721" on="0"/>
        <pt x="151" y="676" on="1"/>
        <pt x="151" y="652" on="0"/>
        <pt x="159" y="633" on="1"/>
        <pt x="258" y="633" on="1"/>
        <pt x="258" y="559" on="1"/>
        <pt x="170" y="559" on="1"/>
        <pt x="170" y="0" on="1"/>
        <pt x="77" y="0" on="1"/>
      </contour>
    </TTGlyph>
    <TTGlyph name="I_07" xMin="-10" yMin="0" xMax="846" yMax="858">
      <contour>
        <pt x="77" y="559" on="1"/>
        <pt x="-10" y="559" on="1"/>
        <pt x="-10" y="633" on="1"/>
        <pt x="71" y="633" on="1"/>
        <pt x="65" y="643" on="0"/>
        <pt x="57" y="674" on="0"/>
        <pt x="57" y="694" on="1"/>
        <pt x="57" y="730" on="0"/>
        <pt x="94" y="790" on="0"/>
        <pt x="163" y="833" on="0"/>
        <pt x="262" y="858" on="0"/>
        <pt x="324" y="858" on="1"/>
        <pt x="421" y="858" on="0"/>
        <pt x="581" y="815" on="0"/>
        <pt x="708" y="748" on="0"/>
        <pt x="802" y="667" on="0"/>
        <pt x="833" y="629" on="1"/>
        <pt x="846" y="613" on="1"/>
        <pt x="787" y="570" on="1"/>
        <pt x="772" y="587" on="1"/>
        <pt x="736" y="627" on="0"/>
        <pt x="645" y="698" on="0"/>
        <pt x="534" y="749" on="0"/>
        <pt x="404" y="779" on="0"/>
        <pt x="330" y="779" on="1"/>
        <pt x="238" y="779" on="0"/>
        <pt x="152" y="713" on="0"/>
        <pt x="152" y="668" on="1"/>
        <pt x="152" y="646" on="0"/>
        <pt x="159" y="633" on="1"/>
        <pt x="258" y="633" on="1"/>
        <pt x="258" y="559" on="1"/>
        <pt x="170" y="559" on="1"/>
        <pt x="170" y="0" on="1"/>
        <pt x="77" y="0" on="1"/>
      </contour>
    </TTGlyph>
    <TTGlyph name="I_08" xMin="-10" yMin="0" xMax="885" yMax="857">
      <contour>
        <pt x="77" y="559" on="1"/>
        <pt x="-10" y="559" on="1"/>
        <pt x="-10" y="633" on="1"/>
        <pt x="70" y="633" on="1"/>
        <pt x="64" y="644" on="0"/>
        <pt x="54" y="674" on="0"/>
        <pt x="54" y="693" on="1"/>
        <pt x="54" y="729" on="0"/>
        <pt x="94" y="789" on="0"/>
        <pt x="169" y="832" on="0"/>
        <pt x="276" y="857" on="0"/>
        <pt x="342" y="857" on="1"/>
        <pt x="452" y="857" on="0"/>
        <pt x="627" y="807" on="0"/>
        <pt x="759" y="735" on="0"/>
        <pt x="850" y="657" on="0"/>
        <pt x="875" y="630" on="1"/>
        <pt x="885" y="618" on="1"/>
        <pt x="829" y="571" on="1"/>
        <pt x="814" y="586" on="1"/>
        <pt x="778" y="621" on="0"/>
        <pt x="689" y="690" on="0"/>
        <pt x="576" y="744" on="0"/>
        <pt x="435" y="778" on="0"/>
        <pt x="348" y="778" on="1"/>
        <pt x="297" y="778" on="0"/>
        <pt x="223" y="761" on="0"/>
        <pt x="175" y="732" on="0"/>
        <pt x="151" y="693" on="0"/>
        <pt x="151" y="671" on="1"/>
        <pt x="151" y="659" on="0"/>
        <pt x="153" y="641" on="0"/>
        <pt x="157" y="633" on="1"/>
        <pt x="258" y="633" on="1"/>
        <pt x="258" y="559" on="1"/>
        <pt x="170" y="559" on="1"/>
        <pt x="170" y="0" on="1"/>
        <pt x="77" y="0" on="1"/>
      </contour>
    </TTGlyph>
    <TTGlyph name="I_09" xMin="-10" yMin="0" xMax="931" yMax="857">
      <contour>
        <pt x="77" y="559" on="1"/>
        <pt x="-10" y="559" on="1"/>
        <pt x="-10" y="633" on="1"/>
        <pt x="69" y="633" on="1"/>
        <pt x="64" y="642" on="0"/>
        <pt x="54" y="675" on="0"/>
        <pt x="54" y="696" on="1"/>
        <pt x="54" y="732" on="0"/>
        <pt x="95" y="791" on="0"/>
        <pt x="173" y="833" on="0"/>
        <pt x="284" y="857" on="0"/>
        <pt x="355" y="857" on="1"/>
        <pt x="463" y="857" on="0"/>
        <pt x="640" y="815" on="0"/>
        <pt x="780" y="749" on="0"/>
        <pt x="883" y="668" on="0"/>
        <pt x="916" y="630" on="1"/>
        <pt x="931" y="613" on="1"/>
        <pt x="873" y="572" on="1"/>
        <pt x="855" y="590" on="1"/>
        <pt x="821" y="626" on="0"/>
        <pt x="724" y="694" on="0"/>
        <pt x="600" y="746" on="0"/>
        <pt x="449" y="778" on="0"/>
        <pt x="361" y="778" on="1"/>
        <pt x="306" y="778" on="0"/>
        <pt x="226" y="762" on="0"/>
        <pt x="175" y="734" on="0"/>
        <pt x="151" y="696" on="0"/>
        <pt x="151" y="674" on="1"/>
        <pt x="151" y="663" on="0"/>
        <pt x="153" y="643" on="0"/>
        <pt x="157" y="633" on="1"/>
        <pt x="258" y="633" on="1"/>
        <pt x="258" y="559" on="1"/>
        <pt x="170" y="559" on="1"/>
        <pt x="170" y="0" on="1"/>
        <pt x="77" y="0" on="1"/>
      </contour>
    </TTGlyph>
    <TTGlyph name="I_10" xMin="-10" yMin="0" xMax="969" yMax="857">
      <contour>
        <pt x="77" y="559" on="1"/>
        <pt x="-10" y="559" on="1"/>
        <pt x="-10" y="633" on="1"/>
        <pt x="65" y="633" on="1"/>
        <pt x="60" y="642" on="0"/>
        <pt x="51" y="674" on="0"/>
        <pt x="51" y="695" on="1"/>
        <pt x="51" y="731" on="0"/>
        <pt x="91" y="790" on="0"/>
        <pt x="168" y="833" on="0"/>
        <pt x="280" y="857" on="0"/>
        <pt x="352" y="857" on="1"/>
        <pt x="466" y="857" on="0"/>
        <pt x="656" y="810" on="0"/>
        <pt x="807" y="741" on="0"/>
        <pt x="918" y="662" on="0"/>
        <pt x="953" y="629" on="1"/>
        <pt x="969" y="614" on="1"/>
        <pt x="912" y="573" on="1"/>
        <pt x="893" y="589" on="1"/>
        <pt x="852" y="623" on="0"/>
        <pt x="739" y="690" on="0"/>
        <pt x="602" y="744" on="0"/>
        <pt x="444" y="778" on="0"/>
        <pt x="358" y="778" on="1"/>
        <pt x="302" y="778" on="0"/>
        <pt x="223" y="762" on="0"/>
        <pt x="172" y="734" on="0"/>
        <pt x="148" y="696" on="0"/>
        <pt x="148" y="674" on="1"/>
        <pt x="148" y="663" on="0"/>
        <pt x="150" y="643" on="0"/>
        <pt x="154" y="633" on="1"/>
        <pt x="258" y="633" on="1"/>
        <pt x="258" y="559" on="1"/>
        <pt x="170" y="559" on="1"/>
        <pt x="170" y="0" on="1"/>
        <pt x="77" y="0" on="1"/>
      </contour>
    </TTGlyph>
    <TTGlyph name="I_11" xMin="-10" yMin="0" xMax="1030" yMax="857">
      <contour>
        <pt x="77" y="559" on="1"/>
        <pt x="-10" y="559" on="1"/>
        <pt x="-10" y="633" on="1"/>
        <pt x="65" y="633" on="1"/>
        <pt x="60" y="642" on="0"/>
        <pt x="52" y="669" on="0"/>
        <pt x="52" y="686" on="1"/>
        <pt x="52" y="726" on="0"/>
        <pt x="101" y="789" on="0"/>
        <pt x="189" y="833" on="0"/>
        <pt x="310" y="857" on="0"/>
        <pt x="382" y="857" on="1"/>
        <pt x="500" y="857" on="0"/>
        <pt x="695" y="817" on="0"/>
        <pt x="852" y="753" on="0"/>
        <pt x="975" y="672" on="0"/>
        <pt x="1020" y="631" on="1"/>
        <pt x="1030" y="622" on="1"/>
        <pt x="976" y="573" on="1"/>
        <pt x="955" y="589" on="1"/>
        <pt x="905" y="628" on="0"/>
        <pt x="787" y="697" on="0"/>
        <pt x="646" y="748" on="0"/>
        <pt x="483" y="778" on="0"/>
        <pt x="389" y="778" on="1"/>
        <pt x="266" y="778" on="0"/>
        <pt x="149" y="714" on="0"/>
        <pt x="149" y="666" on="1"/>
        <pt x="149" y="655" on="0"/>
        <pt x="151" y="641" on="0"/>
        <pt x="154" y="633" on="1"/>
        <pt x="258" y="633" on="1"/>
        <pt x="258" y="559" on="1"/>
        <pt x="170" y="559" on="1"/>
        <pt x="170" y="0" on="1"/>
        <pt x="77" y="0" on="1"/>
      </contour>
    </TTGlyph>
    <TTGlyph name="I_12" xMin="-10" yMin="0" xMax="1070" yMax="857">
      <contour>
        <pt x="75" y="559" on="1"/>
        <pt x="-10" y="559" on="1"/>
        <pt x="-10" y="633" on="1"/>
        <pt x="65" y="633" on="1"/>
        <pt x="60" y="641" on="0"/>
        <pt x="52" y="670" on="0"/>
        <pt x="52" y="690" on="1"/>
        <pt x="52" y="731" on="0"/>
        <pt x="103" y="793" on="0"/>
        <pt x="193" y="835" on="0"/>
        <pt x="318" y="857" on="0"/>
        <pt x="392" y="857" on="1"/>
        <pt x="510" y="857" on="0"/>
        <pt x="714" y="818" on="0"/>
        <pt x="882" y="755" on="0"/>
        <pt x="1014" y="673" on="0"/>
        <pt x="1060" y="631" on="1"/>
        <pt x="1070" y="622" on="1"/>
        <pt x="1016" y="574" on="1"/>
        <pt x="995" y="590" on="1"/>
        <pt x="945" y="630" on="0"/>
        <pt x="817" y="699" on="0"/>
        <pt x="665" y="749" on="0"/>
        <pt x="493" y="778" on="0"/>
        <pt x="399" y="778" on="1"/>
        <pt x="280" y="778" on="0"/>
        <pt x="149" y="718" on="0"/>
        <pt x="149" y="660" on="1"/>
        <pt x="149" y="653" on="0"/>
        <pt x="151" y="639" on="0"/>
        <pt x="154" y="633" on="1"/>
        <pt x="253" y="633" on="1"/>
        <pt x="253" y="559" on="1"/>
        <pt x="168" y="559" on="1"/>
        <pt x="168" y="0" on="1"/>
        <pt x="75" y="0" on="1"/>
      </contour>
    </TTGlyph>
    <TTGlyph name="I_13" xMin="-10" yMin="0" xMax="1112" yMax="857">
      <contour>
        <pt x="75" y="559" on="1"/>
        <pt x="-10" y="559" on="1"/>
        <pt x="-10" y="633" on="1"/>
        <pt x="65" y="633" on="1"/>
        <pt x="60" y="641" on="0"/>
        <pt x="52" y="670" on="0"/>
        <pt x="52" y="688" on="1"/>
        <pt x="52" y="728" on="0"/>
        <pt x="103" y="791" on="0"/>
        <pt x="193" y="835" on="0"/>
        <pt x="318" y="857" on="0"/>
        <pt x="392" y="857" on="1"/>
        <pt x="515" y="857" on="0"/>
        <pt x="733" y="818" on="0"/>
        <pt x="914" y="755" on="0"/>
        <pt x="1055" y="673" on="0"/>
        <pt x="1102" y="631" on="1"/>
        <pt x="1112" y="622" on="1"/>
        <pt x="1058" y="574" on="1"/>
        <pt x="1037" y="590" on="1"/>
        <pt x="986" y="630" on="0"/>
        <pt x="853" y="699" on="0"/>
        <pt x="692" y="749" on="0"/>
        <pt x="504" y="778" on="0"/>
        <pt x="399" y="778" on="1"/>
        <pt x="280" y="778" on="0"/>
        <pt x="149" y="715" on="0"/>
        <pt x="149" y="660" on="1"/>
        <pt x="149" y="644" on="0"/>
        <pt x="154" y="633" on="1"/>
        <pt x="253" y="633" on="1"/>
        <pt x="253" y="559" on="1"/>
        <pt x="168" y="559" on="1"/>
        <pt x="168" y="0" on="1"/>
        <pt x="75" y="0" on="1"/>
      </contour>
    </TTGlyph>
    <TTGlyph name="I_14" xMin="-10" yMin="0" xMax="1175" yMax="857">
      <contour>
        <pt x="75" y="559" on="1"/>
        <pt x="-10" y="559" on="1"/>
        <pt x="-10" y="633" on="1"/>
        <pt x="65" y="633" on="1"/>
        <pt x="60" y="642" on="0"/>
        <pt x="53" y="667" on="0"/>
        <pt x="53" y="684" on="1"/>
        <pt x="53" y="725" on="0"/>
        <pt x="105" y="789" on="0"/>
        <pt x="198" y="834" on="0"/>
        <pt x="325" y="857" on="0"/>
        <pt x="400" y="857" on="1"/>
        <pt x="532" y="857" on="0"/>
        <pt x="769" y="818" on="0"/>
        <pt x="967" y="755" on="0"/>
        <pt x="1118" y="674" on="0"/>
        <pt x="1165" y="631" on="1"/>
        <pt x="1175" y="622" on="1"/>
        <pt x="1121" y="574" on="1"/>
        <pt x="1100" y="591" on="1"/>
        <pt x="1049" y="632" on="0"/>
        <pt x="903" y="701" on="0"/>
        <pt x="723" y="750" on="0"/>
        <pt x="517" y="778" on="0"/>
        <pt x="406" y="778" on="1"/>
        <pt x="287" y="778" on="0"/>
        <pt x="150" y="715" on="0"/>
        <pt x="150" y="660" on="1"/>
        <pt x="150" y="650" on="0"/>
        <pt x="152" y="639" on="0"/>
        <pt x="154" y="633" on="1"/>
        <pt x="253" y="633" on="1"/>
        <pt x="253" y="559" on="1"/>
        <pt x="168" y="559" on="1"/>
        <pt x="168" y="0" on="1"/>
        <pt x="75" y="0" on="1"/>
      </contour>
    </TTGlyph>
    <TTGlyph name="I_15" xMin="-10" yMin="0" xMax="1217" yMax="857">
      <contour>
        <pt x="75" y="559" on="1"/>
        <pt x="-10" y="559" on="1"/>
        <pt x="-10" y="633" on="1"/>
        <pt x="65" y="633" on="1"/>
        <pt x="60" y="642" on="0"/>
        <pt x="53" y="666" on="0"/>
        <pt x="53" y="684" on="1"/>
        <pt x="53" y="723" on="0"/>
        <pt x="104" y="786" on="0"/>
        <pt x="200" y="832" on="0"/>
        <pt x="336" y="857" on="0"/>
        <pt x="422" y="857" on="1"/>
        <pt x="559" y="857" on="0"/>
        <pt x="801" y="820" on="0"/>
        <pt x="1002" y="758" on="0"/>
        <pt x="1157" y="676" on="0"/>
        <pt x="1207" y="631" on="1"/>
        <pt x="1217" y="622" on="1"/>
        <pt x="1163" y="574" on="1"/>
        <pt x="1142" y="591" on="1"/>
        <pt x="1090" y="633" on="0"/>
        <pt x="937" y="702" on="0"/>
        <pt x="751" y="751" on="0"/>
        <pt x="540" y="778" on="0"/>
        <pt x="429" y="778" on="1"/>
        <pt x="288" y="778" on="0"/>
        <pt x="150" y="712" on="0"/>
        <pt x="150" y="662" on="1"/>
        <pt x="150" y="651" on="0"/>
        <pt x="152" y="639" on="0"/>
        <pt x="154" y="633" on="1"/>
        <pt x="253" y="633" on="1"/>
        <pt x="253" y="559" on="1"/>
        <pt x="168" y="559" on="1"/>
        <pt x="168" y="0" on="1"/>
        <pt x="75" y="0" on="1"/>
      </contour>
    </TTGlyph>
    <TTGlyph name="I_16" xMin="-10" yMin="0" xMax="1275" yMax="857">
      <contour>
        <pt x="75" y="559" on="1"/>
        <pt x="-10" y="559" on="1"/>
        <pt x="-10" y="633" on="1"/>
        <pt x="65" y="633" on="1"/>
        <pt x="60" y="642" on="0"/>
        <pt x="53" y="666" on="0"/>
        <pt x="53" y="684" on="1"/>
        <pt x="53" y="761" on="0"/>
        <pt x="253" y="857" on="0"/>
        <pt x="450" y="857" on="1"/>
        <pt x="588" y="857" on="0"/>
        <pt x="840" y="820" on="0"/>
        <pt x="1051" y="758" on="0"/>
        <pt x="1214" y="676" on="0"/>
        <pt x="1265" y="631" on="1"/>
        <pt x="1275" y="622" on="1"/>
        <pt x="1221" y="574" on="1"/>
        <pt x="1200" y="591" on="1"/>
        <pt x="1147" y="633" on="0"/>
        <pt x="985" y="702" on="0"/>
        <pt x="789" y="751" on="0"/>
        <pt x="568" y="778" on="0"/>
        <pt x="456" y="778" on="1"/>
        <pt x="373" y="778" on="0"/>
        <pt x="257" y="761" on="0"/>
        <pt x="183" y="730" on="0"/>
        <pt x="150" y="687" on="0"/>
        <pt x="150" y="662" on="1"/>
        <pt x="150" y="651" on="0"/>
        <pt x="152" y="639" on="0"/>
        <pt x="154" y="633" on="1"/>
        <pt x="253" y="633" on="1"/>
        <pt x="253" y="559" on="1"/>
        <pt x="168" y="559" on="1"/>
        <pt x="168" y="0" on="1"/>
        <pt x="75" y="0" on="1"/>
      </contour>
    </TTGlyph>
    <TTGlyph name="I_17" xMin="-10" yMin="0" xMax="1327" yMax="857">
      <contour>
        <pt x="75" y="559" on="1"/>
        <pt x="-10" y="559" on="1"/>
        <pt x="-10" y="633" on="1"/>
        <pt x="65" y="633" on="1"/>
        <pt x="60" y="642" on="0"/>
        <pt x="53" y="666" on="0"/>
        <pt x="53" y="684" on="1"/>
        <pt x="53" y="762" on="0"/>
        <pt x="268" y="857" on="0"/>
        <pt x="472" y="857" on="1"/>
        <pt x="625" y="857" on="0"/>
        <pt x="889" y="821" on="0"/>
        <pt x="1105" y="759" on="0"/>
        <pt x="1267" y="677" on="0"/>
        <pt x="1317" y="631" on="1"/>
        <pt x="1327" y="622" on="1"/>
        <pt x="1273" y="574" on="1"/>
        <pt x="1252" y="591" on="1"/>
        <pt x="1200" y="633" on="0"/>
        <pt x="1040" y="702" on="0"/>
        <pt x="839" y="751" on="0"/>
        <pt x="605" y="778" on="0"/>
        <pt x="479" y="778" on="1"/>
        <pt x="392" y="778" on="0"/>
        <pt x="267" y="761" on="0"/>
        <pt x="188" y="730" on="0"/>
        <pt x="150" y="687" on="0"/>
        <pt x="150" y="662" on="1"/>
        <pt x="150" y="651" on="0"/>
        <pt x="152" y="639" on="0"/>
        <pt x="154" y="633" on="1"/>
        <pt x="253" y="633" on="1"/>
        <pt x="253" y="559" on="1"/>
        <pt x="168" y="559" on="1"/>
        <pt x="168" y="0" on="1"/>
        <pt x="75" y="0" on="1"/>
      </contour>
    </TTGlyph>
    <TTGlyph name="I_18" xMin="-10" yMin="0" xMax="1375" yMax="857">
      <contour>
        <pt x="75" y="559" on="1"/>
        <pt x="-10" y="559" on="1"/>
        <pt x="-10" y="633" on="1"/>
        <pt x="65" y="633" on="1"/>
        <pt x="60" y="642" on="0"/>
        <pt x="53" y="666" on="0"/>
        <pt x="53" y="684" on="1"/>
        <pt x="53" y="723" on="0"/>
        <pt x="107" y="786" on="0"/>
        <pt x="218" y="832" on="0"/>
        <pt x="387" y="857" on="0"/>
        <pt x="502" y="857" on="1"/>
        <pt x="671" y="857" on="0"/>
        <pt x="944" y="819" on="0"/>
        <pt x="1157" y="755" on="0"/>
        <pt x="1313" y="673" on="0"/>
        <pt x="1365" y="630" on="1"/>
        <pt x="1375" y="622" on="1"/>
        <pt x="1326" y="571" on="1"/>
        <pt x="1303" y="588" on="1"/>
        <pt x="1243" y="630" on="0"/>
        <pt x="1093" y="700" on="0"/>
        <pt x="899" y="750" on="0"/>
        <pt x="659" y="778" on="0"/>
        <pt x="509" y="778" on="1"/>
        <pt x="408" y="778" on="0"/>
        <pt x="271" y="761" on="0"/>
        <pt x="187" y="730" on="0"/>
        <pt x="150" y="687" on="0"/>
        <pt x="150" y="662" on="1"/>
        <pt x="150" y="651" on="0"/>
        <pt x="152" y="639" on="0"/>
        <pt x="154" y="633" on="1"/>
        <pt x="253" y="633" on="1"/>
        <pt x="253" y="559" on="1"/>
        <pt x="168" y="559" on="1"/>
        <pt x="168" y="0" on="1"/>
        <pt x="75" y="0" on="1"/>
      </contour>
    </TTGlyph>
    <TTGlyph name="I_19" xMin="-10" yMin="0" xMax="1427" yMax="857">
      <contour>
        <pt x="75" y="559" on="1"/>
        <pt x="-10" y="559" on="1"/>
        <pt x="-10" y="633" on="1"/>
        <pt x="65" y="633" on="1"/>
        <pt x="60" y="642" on="0"/>
        <pt x="53" y="666" on="0"/>
        <pt x="53" y="684" on="1"/>
        <pt x="53" y="723" on="0"/>
        <pt x="107" y="786" on="0"/>
        <pt x="218" y="832" on="0"/>
        <pt x="387" y="857" on="0"/>
        <pt x="502" y="857" on="1"/>
        <pt x="679" y="857" on="0"/>
        <pt x="970" y="820" on="0"/>
        <pt x="1198" y="758" on="0"/>
        <pt x="1364" y="675" on="0"/>
        <pt x="1417" y="630" on="1"/>
        <pt x="1427" y="622" on="1"/>
        <pt x="1381" y="572" on="1"/>
        <pt x="1358" y="588" on="1"/>
        <pt x="1299" y="630" on="0"/>
        <pt x="1138" y="700" on="0"/>
        <pt x="928" y="750" on="0"/>
        <pt x="668" y="778" on="0"/>
        <pt x="509" y="778" on="1"/>
        <pt x="408" y="778" on="0"/>
        <pt x="271" y="761" on="0"/>
        <pt x="187" y="730" on="0"/>
        <pt x="150" y="687" on="0"/>
        <pt x="150" y="662" on="1"/>
        <pt x="150" y="651" on="0"/>
        <pt x="152" y="639" on="0"/>
        <pt x="154" y="633" on="1"/>
        <pt x="253" y="633" on="1"/>
        <pt x="253" y="559" on="1"/>
        <pt x="168" y="559" on="1"/>
        <pt x="168" y="0" on="1"/>
        <pt x="75" y="0" on="1"/>
      </contour>
    </TTGlyph>
    <TTGlyph name="I_20" xMin="-10" yMin="0" xMax="1515" yMax="857">
      <contour>
        <pt x="75" y="559" on="1"/>
        <pt x="-10" y="559" on="1"/>
        <pt x="-10" y="633" on="1"/>
        <pt x="65" y="633" on="1"/>
        <pt x="60" y="642" on="0"/>
        <pt x="53" y="664" on="0"/>
        <pt x="53" y="683" on="1"/>
        <pt x="53" y="721" on="0"/>
        <pt x="106" y="785" on="0"/>
        <pt x="217" y="831" on="0"/>
        <pt x="389" y="857" on="0"/>
        <pt x="507" y="857" on="1"/>
        <pt x="685" y="857" on="0"/>
        <pt x="1002" y="820" on="0"/>
        <pt x="1261" y="758" on="0"/>
        <pt x="1452" y="675" on="0"/>
        <pt x="1505" y="630" on="1"/>
        <pt x="1515" y="622" on="1"/>
        <pt x="1468" y="572" on="1"/>
        <pt x="1445" y="588" on="1"/>
        <pt x="1386" y="630" on="0"/>
        <pt x="1201" y="700" on="0"/>
        <pt x="961" y="750" on="0"/>
        <pt x="674" y="778" on="0"/>
        <pt x="514" y="778" on="1"/>
        <pt x="412" y="778" on="0"/>
        <pt x="273" y="761" on="0"/>
        <pt x="187" y="730" on="0"/>
        <pt x="150" y="687" on="0"/>
        <pt x="150" y="662" on="1"/>
        <pt x="150" y="651" on="0"/>
        <pt x="152" y="639" on="0"/>
        <pt x="154" y="633" on="1"/>
        <pt x="253" y="633" on="1"/>
        <pt x="253" y="559" on="1"/>
        <pt x="168" y="559" on="1"/>
        <pt x="168" y="0" on="1"/>
        <pt x="75" y="0" on="1"/>
      </contour>
    </TTGlyph>
    <TTGlyph name="I_21" xMin="-10" yMin="0" xMax="1582" yMax="857">
      <contour>
        <pt x="75" y="559" on="1"/>
        <pt x="-10" y="559" on="1"/>
        <pt x="-10" y="633" on="1"/>
        <pt x="65" y="633" on="1"/>
        <pt x="60" y="642" on="0"/>
        <pt x="53" y="664" on="0"/>
        <pt x="53" y="683" on="1"/>
        <pt x="53" y="721" on="0"/>
        <pt x="107" y="785" on="0"/>
        <pt x="221" y="831" on="0"/>
        <pt x="395" y="857" on="0"/>
        <pt x="515" y="857" on="1"/>
        <pt x="695" y="857" on="0"/>
        <pt x="1030" y="820" on="0"/>
        <pt x="1311" y="758" on="0"/>
        <pt x="1519" y="676" on="0"/>
        <pt x="1572" y="630" on="1"/>
        <pt x="1582" y="622" on="1"/>
        <pt x="1536" y="572" on="1"/>
        <pt x="1513" y="588" on="1"/>
        <pt x="1454" y="631" on="0"/>
        <pt x="1250" y="701" on="0"/>
        <pt x="989" y="751" on="0"/>
        <pt x="683" y="778" on="0"/>
        <pt x="521" y="778" on="1"/>
        <pt x="417" y="778" on="0"/>
        <pt x="275" y="761" on="0"/>
        <pt x="188" y="730" on="0"/>
        <pt x="150" y="687" on="0"/>
        <pt x="150" y="662" on="1"/>
        <pt x="150" y="651" on="0"/>
        <pt x="152" y="639" on="0"/>
        <pt x="154" y="633" on="1"/>
        <pt x="253" y="633" on="1"/>
        <pt x="253" y="559" on="1"/>
        <pt x="168" y="559" on="1"/>
        <pt x="168" y="0" on="1"/>
        <pt x="75" y="0" on="1"/>
      </contour>
    </TTGlyph>
    <TTGlyph name="I_22" xMin="-10" yMin="0" xMax="1685" yMax="857">
      <contour>
        <pt x="75" y="559" on="1"/>
        <pt x="-10" y="559" on="1"/>
        <pt x="-10" y="633" on="1"/>
        <pt x="65" y="633" on="1"/>
        <pt x="60" y="642" on="0"/>
        <pt x="53" y="664" on="0"/>
        <pt x="53" y="683" on="1"/>
        <pt x="53" y="721" on="0"/>
        <pt x="112" y="785" on="0"/>
        <pt x="236" y="831" on="0"/>
        <pt x="428" y="857" on="0"/>
        <pt x="562" y="857" on="1"/>
        <pt x="783" y="857" on="0"/>
        <pt x="1146" y="822" on="0"/>
        <pt x="1426" y="760" on="0"/>
        <pt x="1621" y="678" on="0"/>
        <pt x="1675" y="630" on="1"/>
        <pt x="1685" y="622" on="1"/>
        <pt x="1641" y="572" on="1"/>
        <pt x="1618" y="588" on="1"/>
        <pt x="1558" y="632" on="0"/>
        <pt x="1362" y="703" on="0"/>
        <pt x="1097" y="752" on="0"/>
        <pt x="765" y="778" on="0"/>
        <pt x="569" y="778" on="1"/>
        <pt x="450" y="778" on="0"/>
        <pt x="290" y="761" on="0"/>
        <pt x="192" y="730" on="0"/>
        <pt x="150" y="687" on="0"/>
        <pt x="150" y="662" on="1"/>
        <pt x="150" y="651" on="0"/>
        <pt x="152" y="639" on="0"/>
        <pt x="154" y="633" on="1"/>
        <pt x="253" y="633" on="1"/>
        <pt x="253" y="559" on="1"/>
        <pt x="168" y="559" on="1"/>
        <pt x="168" y="0" on="1"/>
        <pt x="75" y="0" on="1"/>
      </contour>
    </TTGlyph>
    <TTGlyph name="I_23" xMin="-10" yMin="0" xMax="2020" yMax="857">
      <contour>
        <pt x="75" y="559" on="1"/>
        <pt x="-10" y="559" on="1"/>
        <pt x="-10" y="633" on="1"/>
        <pt x="65" y="633" on="1"/>
        <pt x="60" y="642" on="0"/>
        <pt x="53" y="664" on="0"/>
        <pt x="53" y="683" on="1"/>
        <pt x="53" y="721" on="0"/>
        <pt x="111" y="785" on="0"/>
        <pt x="241" y="831" on="0"/>
        <pt x="449" y="857" on="0"/>
        <pt x="600" y="857" on="1"/>
        <pt x="873" y="857" on="0"/>
        <pt x="1340" y="822" on="0"/>
        <pt x="1705" y="760" on="0"/>
        <pt x="1955" y="678" on="0"/>
        <pt x="2010" y="630" on="1"/>
        <pt x="2020" y="622" on="1"/>
        <pt x="1976" y="572" on="1"/>
        <pt x="1953" y="588" on="1"/>
        <pt x="1912" y="618" on="0"/>
        <pt x="1769" y="670" on="0"/>
        <pt x="1576" y="712" on="0"/>
        <pt x="1339" y="745" on="0"/>
        <pt x="1067" y="767" on="0"/>
        <pt x="766" y="778" on="0"/>
        <pt x="606" y="778" on="1"/>
        <pt x="471" y="778" on="0"/>
        <pt x="294" y="761" on="0"/>
        <pt x="191" y="730" on="0"/>
        <pt x="150" y="687" on="0"/>
        <pt x="150" y="662" on="1"/>
        <pt x="150" y="651" on="0"/>
        <pt x="152" y="639" on="0"/>
        <pt x="154" y="633" on="1"/>
        <pt x="253" y="633" on="1"/>
        <pt x="253" y="559" on="1"/>
        <pt x="168" y="559" on="1"/>
        <pt x="168" y="0" on="1"/>
        <pt x="75" y="0" on="1"/>
      </contour>
    </TTGlyph>
    <TTGlyph name="Iacute" xMin="76" yMin="0" xMax="285" yMax="829">
      <contour>
        <pt x="183" y="630" on="1"/>
        <pt x="183" y="0" on="1"/>
        <pt x="76" y="0" on="1"/>
        <pt x="76" y="630" on="1"/>
      </contour>
      <contour>
        <pt x="173" y="705" on="1"/>
        <pt x="88" y="705" on="1"/>
        <pt x="168" y="829" on="1"/>
        <pt x="285" y="829" on="1"/>
      </contour>
    </TTGlyph>
    <TTGlyph name="Ibreve" xMin="-4" yMin="0" xMax="265" yMax="829">
      <contour>
        <pt x="183" y="630" on="1"/>
        <pt x="183" y="0" on="1"/>
        <pt x="76" y="0" on="1"/>
        <pt x="76" y="630" on="1"/>
      </contour>
      <contour>
        <pt x="64" y="829" on="1"/>
        <pt x="67" y="799" on="0"/>
        <pt x="94" y="764" on="0"/>
        <pt x="132" y="764" on="1"/>
        <pt x="164" y="764" on="0"/>
        <pt x="195" y="797" on="0"/>
        <pt x="198" y="829" on="1"/>
        <pt x="265" y="829" on="1"/>
        <pt x="265" y="773" on="0"/>
        <pt x="196" y="704" on="0"/>
        <pt x="131" y="704" on="1"/>
        <pt x="95" y="704" on="0"/>
        <pt x="44" y="725" on="0"/>
        <pt x="11" y="760" on="0"/>
        <pt x="-4" y="805" on="0"/>
        <pt x="-4" y="829" on="1"/>
      </contour>
    </TTGlyph>
    <TTGlyph name="Icircumflex" xMin="-29" yMin="0" xMax="292" yMax="836">
      <contour>
        <pt x="183" y="630" on="1"/>
        <pt x="183" y="0" on="1"/>
        <pt x="76" y="0" on="1"/>
        <pt x="76" y="630" on="1"/>
      </contour>
      <contour>
        <pt x="91" y="836" on="1"/>
        <pt x="170" y="836" on="1"/>
        <pt x="292" y="705" on="1"/>
        <pt x="205" y="705" on="1"/>
        <pt x="130" y="784" on="1"/>
        <pt x="55" y="705" on="1"/>
        <pt x="-29" y="705" on="1"/>
      </contour>
    </TTGlyph>
    <TTGlyph name="Idieresis" xMin="-14" yMin="0" xMax="270" yMax="811">
      <contour>
        <pt x="183" y="630" on="1"/>
        <pt x="183" y="0" on="1"/>
        <pt x="76" y="0" on="1"/>
        <pt x="76" y="630" on="1"/>
      </contour>
      <contour>
        <pt x="-14" y="758" on="1"/>
        <pt x="-14" y="779" on="0"/>
        <pt x="18" y="811" on="0"/>
        <pt x="40" y="811" on="1"/>
        <pt x="63" y="811" on="0"/>
        <pt x="95" y="779" on="0"/>
        <pt x="95" y="758" on="1"/>
        <pt x="95" y="735" on="0"/>
        <pt x="63" y="702" on="0"/>
        <pt x="40" y="702" on="1"/>
        <pt x="18" y="702" on="0"/>
        <pt x="-14" y="735" on="0"/>
      </contour>
      <contour>
        <pt x="162" y="758" on="1"/>
        <pt x="162" y="779" on="0"/>
        <pt x="193" y="811" on="0"/>
        <pt x="216" y="811" on="1"/>
        <pt x="239" y="811" on="0"/>
        <pt x="270" y="779" on="0"/>
        <pt x="270" y="758" on="1"/>
        <pt x="270" y="735" on="0"/>
        <pt x="239" y="702" on="0"/>
        <pt x="216" y="702" on="1"/>
        <pt x="193" y="702" on="0"/>
        <pt x="162" y="735" on="0"/>
      </contour>
    </TTGlyph>
    <TTGlyph name="Idotaccent" xMin="69" yMin="0" xMax="187" yMax="820">
      <contour>
        <pt x="183" y="630" on="1"/>
        <pt x="183" y="0" on="1"/>
        <pt x="76" y="0" on="1"/>
        <pt x="76" y="630" on="1"/>
      </contour>
      <contour>
        <pt x="69" y="762" on="1"/>
        <pt x="69" y="785" on="0"/>
        <pt x="105" y="820" on="0"/>
        <pt x="128" y="820" on="1"/>
        <pt x="153" y="820" on="0"/>
        <pt x="187" y="785" on="0"/>
        <pt x="187" y="762" on="1"/>
        <pt x="187" y="737" on="0"/>
        <pt x="153" y="702" on="0"/>
        <pt x="128" y="702" on="1"/>
        <pt x="105" y="702" on="0"/>
        <pt x="69" y="737" on="0"/>
      </contour>
    </TTGlyph>
    <TTGlyph name="Igrave" xMin="-26" yMin="0" xMax="183" yMax="829">
      <contour>
        <pt x="183" y="630" on="1"/>
        <pt x="183" y="0" on="1"/>
        <pt x="76" y="0" on="1"/>
        <pt x="76" y="630" on="1"/>
      </contour>
      <contour>
        <pt x="-26" y="829" on="1"/>
        <pt x="91" y="829" on="1"/>
        <pt x="171" y="705" on="1"/>
        <pt x="86" y="705" on="1"/>
      </contour>
    </TTGlyph>
    <TTGlyph name="Imacron" xMin="7" yMin="0" xMax="256" yMax="772">
      <contour>
        <pt x="183" y="630" on="1"/>
        <pt x="183" y="0" on="1"/>
        <pt x="76" y="0" on="1"/>
        <pt x="76" y="630" on="1"/>
      </contour>
      <contour>
        <pt x="256" y="772" on="1"/>
        <pt x="256" y="705" on="1"/>
        <pt x="7" y="705" on="1"/>
        <pt x="7" y="772" on="1"/>
      </contour>
    </TTGlyph>
    <TTGlyph name="Iogonek" xMin="8" yMin="-206" xMax="197" yMax="630">
      <contour>
        <pt x="183" y="630" on="1"/>
        <pt x="183" y="0" on="1"/>
        <pt x="162" y="0" on="1"/>
        <pt x="127" y="-20" on="0"/>
        <pt x="83" y="-64" on="0"/>
        <pt x="83" y="-90" on="1"/>
        <pt x="83" y="-113" on="0"/>
        <pt x="112" y="-139" on="0"/>
        <pt x="135" y="-139" on="1"/>
        <pt x="149" y="-139" on="0"/>
        <pt x="173" y="-134" on="0"/>
        <pt x="182" y="-131" on="1"/>
        <pt x="197" y="-185" on="1"/>
        <pt x="162" y="-206" on="0"/>
        <pt x="115" y="-206" on="1"/>
        <pt x="69" y="-206" on="0"/>
        <pt x="8" y="-153" on="0"/>
        <pt x="8" y="-106" on="1"/>
        <pt x="8" y="-68" on="0"/>
        <pt x="51" y="-14" on="0"/>
        <pt x="76" y="0" on="1"/>
        <pt x="76" y="630" on="1"/>
      </contour>
    </TTGlyph>
    <TTGlyph name="Ismall" xMin="74" yMin="0" xMax="177" yMax="472">
      <contour>
        <pt x="177" y="472" on="1"/>
        <pt x="177" y="0" on="1"/>
        <pt x="74" y="0" on="1"/>
        <pt x="74" y="472" on="1"/>
      </contour>
    </TTGlyph>
    <TTGlyph name="Itilde" xMin="-27" yMin="0" xMax="276" yMax="821">
      <contour>
        <pt x="183" y="630" on="1"/>
        <pt x="183" y="0" on="1"/>
        <pt x="76" y="0" on="1"/>
        <pt x="76" y="630" on="1"/>
      </contour>
      <contour>
        <pt x="-27" y="706" on="1"/>
        <pt x="-27" y="753" on="0"/>
        <pt x="16" y="818" on="0"/>
        <pt x="61" y="818" on="1"/>
        <pt x="81" y="818" on="0"/>
        <pt x="113" y="805" on="0"/>
        <pt x="142" y="790" on="0"/>
        <pt x="169" y="777" on="0"/>
        <pt x="184" y="777" on="1"/>
        <pt x="202" y="777" on="0"/>
        <pt x="219" y="804" on="0"/>
        <pt x="221" y="821" on="1"/>
        <pt x="276" y="821" on="1"/>
        <pt x="276" y="799" on="0"/>
        <pt x="265" y="758" on="0"/>
        <pt x="244" y="727" on="0"/>
        <pt x="212" y="709" on="0"/>
        <pt x="191" y="709" on="1"/>
        <pt x="170" y="709" on="0"/>
        <pt x="135" y="721" on="0"/>
        <pt x="103" y="736" on="0"/>
        <pt x="77" y="749" on="0"/>
        <pt x="65" y="749" on="1"/>
        <pt x="45" y="749" on="0"/>
        <pt x="29" y="724" on="0"/>
        <pt x="28" y="706" on="1"/>
      </contour>
    </TTGlyph>
    <TTGlyph name="J" xMin="-16" yMin="-160" xMax="206" yMax="630">
      <contour>
        <pt x="206" y="630" on="1"/>
        <pt x="206" y="115" on="1"/>
        <pt x="206" y="42" on="0"/>
        <pt x="190" y="-51" on="0"/>
        <pt x="163" y="-86" on="1"/>
        <pt x="131" y="-128" on="0"/>
        <pt x="35" y="-159" on="0"/>
        <pt x="-16" y="-160" on="1"/>
        <pt x="-16" y="-75" on="1"/>
        <pt x="13" y="-74" on="0"/>
        <pt x="55" y="-57" on="0"/>
        <pt x="70" y="-41" on="1"/>
        <pt x="88" y="-23" on="0"/>
        <pt x="99" y="34" on="0"/>
        <pt x="99" y="66" on="1"/>
        <pt x="99" y="630" on="1"/>
      </contour>
    </TTGlyph>
    <TTGlyph name="Jcircumflex" xMin="-16" yMin="-160" xMax="315" yMax="836">
      <contour>
        <pt x="206" y="630" on="1"/>
        <pt x="206" y="115" on="1"/>
        <pt x="206" y="42" on="0"/>
        <pt x="190" y="-51" on="0"/>
        <pt x="163" y="-86" on="1"/>
        <pt x="131" y="-128" on="0"/>
        <pt x="35" y="-159" on="0"/>
        <pt x="-16" y="-160" on="1"/>
        <pt x="-16" y="-75" on="1"/>
        <pt x="13" y="-74" on="0"/>
        <pt x="55" y="-57" on="0"/>
        <pt x="70" y="-41" on="1"/>
        <pt x="88" y="-23" on="0"/>
        <pt x="99" y="34" on="0"/>
        <pt x="99" y="66" on="1"/>
        <pt x="99" y="630" on="1"/>
      </contour>
      <contour>
        <pt x="114" y="836" on="1"/>
        <pt x="193" y="836" on="1"/>
        <pt x="315" y="705" on="1"/>
        <pt x="228" y="705" on="1"/>
        <pt x="153" y="784" on="1"/>
        <pt x="78" y="705" on="1"/>
        <pt x="-6" y="705" on="1"/>
      </contour>
    </TTGlyph>
    <TTGlyph name="Jsmall" xMin="-4" yMin="-168" xMax="182" yMax="472">
      <contour>
        <pt x="182" y="472" on="1"/>
        <pt x="182" y="73" on="1"/>
        <pt x="182" y="20" on="0"/>
        <pt x="172" y="-62" on="0"/>
        <pt x="151" y="-96" on="1"/>
        <pt x="125" y="-138" on="0"/>
        <pt x="46" y="-168" on="0"/>
        <pt x="-4" y="-168" on="1"/>
        <pt x="-4" y="-86" on="1"/>
        <pt x="13" y="-86" on="0"/>
        <pt x="51" y="-73" on="0"/>
        <pt x="62" y="-53" on="1"/>
        <pt x="73" y="-35" on="0"/>
        <pt x="79" y="22" on="0"/>
        <pt x="79" y="44" on="1"/>
        <pt x="79" y="472" on="1"/>
      </contour>
    </TTGlyph>
    <TTGlyph name="K" xMin="76" yMin="0" xMax="585" yMax="630">
      <contour>
        <pt x="76" y="0" on="1"/>
        <pt x="76" y="630" on="1"/>
        <pt x="183" y="630" on="1"/>
        <pt x="183" y="352" on="1"/>
        <pt x="432" y="630" on="1"/>
        <pt x="565" y="630" on="1"/>
        <pt x="313" y="352" on="1"/>
        <pt x="585" y="0" on="1"/>
        <pt x="451" y="0" on="1"/>
        <pt x="236" y="282" on="1"/>
        <pt x="183" y="225" on="1"/>
        <pt x="183" y="0" on="1"/>
      </contour>
    </TTGlyph>
    <TTGlyph name="Kcommaaccent" xMin="76" yMin="-323" xMax="585" yMax="630">
      <contour>
        <pt x="76" y="0" on="1"/>
        <pt x="76" y="630" on="1"/>
        <pt x="183" y="630" on="1"/>
        <pt x="183" y="352" on="1"/>
        <pt x="432" y="630" on="1"/>
        <pt x="565" y="630" on="1"/>
        <pt x="313" y="352" on="1"/>
        <pt x="585" y="0" on="1"/>
        <pt x="451" y="0" on="1"/>
        <pt x="236" y="282" on="1"/>
        <pt x="183" y="225" on="1"/>
        <pt x="183" y="0" on="1"/>
      </contour>
      <contour>
        <pt x="299" y="-187" on="1"/>
        <pt x="281" y="-184" on="0"/>
        <pt x="246" y="-153" on="0"/>
        <pt x="246" y="-126" on="1"/>
        <pt x="246" y="-101" on="0"/>
        <pt x="279" y="-65" on="0"/>
        <pt x="308" y="-65" on="1"/>
        <pt x="320" y="-65" on="0"/>
        <pt x="346" y="-75" on="0"/>
        <pt x="367" y="-97" on="0"/>
        <pt x="381" y="-131" on="0"/>
        <pt x="381" y="-156" on="1"/>
        <pt x="381" y="-181" on="0"/>
        <pt x="364" y="-230" on="0"/>
        <pt x="334" y="-274" on="0"/>
        <pt x="294" y="-311" on="0"/>
        <pt x="271" y="-323" on="1"/>
        <pt x="244" y="-286" on="1"/>
        <pt x="271" y="-269" on="0"/>
        <pt x="314" y="-217" on="0"/>
        <pt x="317" y="-191" on="1"/>
      </contour>
    </TTGlyph>
    <TTGlyph name="Ksmall" xMin="74" yMin="0" xMax="484" yMax="472">
      <contour>
        <pt x="74" y="0" on="1"/>
        <pt x="74" y="472" on="1"/>
        <pt x="175" y="472" on="1"/>
        <pt x="175" y="274" on="1"/>
        <pt x="345" y="472" on="1"/>
        <pt x="467" y="472" on="1"/>
        <pt x="279" y="265" on="1"/>
        <pt x="484" y="0" on="1"/>
        <pt x="360" y="0" on="1"/>
        <pt x="213" y="204" on="1"/>
        <pt x="175" y="161" on="1"/>
        <pt x="175" y="0" on="1"/>
      </contour>
    </TTGlyph>
    <TTGlyph name="L" xMin="76" yMin="0" xMax="447" yMax="630">
      <contour>
        <pt x="76" y="630" on="1"/>
        <pt x="183" y="630" on="1"/>
        <pt x="183" y="88" on="1"/>
        <pt x="447" y="88" on="1"/>
        <pt x="447" y="0" on="1"/>
        <pt x="76" y="0" on="1"/>
      </contour>
    </TTGlyph>
    <TTGlyph name="Lacute" xMin="76" yMin="0" xMax="447" yMax="829">
      <contour>
        <pt x="76" y="630" on="1"/>
        <pt x="183" y="630" on="1"/>
        <pt x="183" y="88" on="1"/>
        <pt x="447" y="88" on="1"/>
        <pt x="447" y="0" on="1"/>
        <pt x="76" y="0" on="1"/>
      </contour>
      <contour>
        <pt x="171" y="705" on="1"/>
        <pt x="86" y="705" on="1"/>
        <pt x="166" y="829" on="1"/>
        <pt x="283" y="829" on="1"/>
      </contour>
    </TTGlyph>
    <TTGlyph name="Lcaron" xMin="76" yMin="0" xMax="447" yMax="741">
      <contour>
        <pt x="76" y="630" on="1"/>
        <pt x="183" y="630" on="1"/>
        <pt x="183" y="88" on="1"/>
        <pt x="447" y="88" on="1"/>
        <pt x="447" y="0" on="1"/>
        <pt x="76" y="0" on="1"/>
      </contour>
      <contour>
        <pt x="316" y="619" on="1"/>
        <pt x="298" y="622" on="0"/>
        <pt x="263" y="653" on="0"/>
        <pt x="263" y="680" on="1"/>
        <pt x="263" y="705" on="0"/>
        <pt x="296" y="741" on="0"/>
        <pt x="325" y="741" on="1"/>
        <pt x="337" y="741" on="0"/>
        <pt x="363" y="731" on="0"/>
        <pt x="384" y="709" on="0"/>
        <pt x="398" y="675" on="0"/>
        <pt x="398" y="650" on="1"/>
        <pt x="398" y="625" on="0"/>
        <pt x="381" y="576" on="0"/>
        <pt x="351" y="532" on="0"/>
        <pt x="310" y="495" on="0"/>
        <pt x="287" y="483" on="1"/>
        <pt x="260" y="520" on="1"/>
        <pt x="288" y="537" on="0"/>
        <pt x="331" y="589" on="0"/>
        <pt x="334" y="615" on="1"/>
      </contour>
    </TTGlyph>
    <TTGlyph name="Lcommaaccent" xMin="76" yMin="-323" xMax="447" yMax="630">
      <contour>
        <pt x="76" y="630" on="1"/>
        <pt x="183" y="630" on="1"/>
        <pt x="183" y="88" on="1"/>
        <pt x="447" y="88" on="1"/>
        <pt x="447" y="0" on="1"/>
        <pt x="76" y="0" on="1"/>
      </contour>
      <contour>
        <pt x="247" y="-187" on="1"/>
        <pt x="229" y="-184" on="0"/>
        <pt x="194" y="-153" on="0"/>
        <pt x="194" y="-126" on="1"/>
        <pt x="194" y="-101" on="0"/>
        <pt x="227" y="-65" on="0"/>
        <pt x="256" y="-65" on="1"/>
        <pt x="268" y="-65" on="0"/>
        <pt x="294" y="-75" on="0"/>
        <pt x="315" y="-97" on="0"/>
        <pt x="329" y="-131" on="0"/>
        <pt x="329" y="-156" on="1"/>
        <pt x="329" y="-181" on="0"/>
        <pt x="312" y="-230" on="0"/>
        <pt x="282" y="-274" on="0"/>
        <pt x="241" y="-311" on="0"/>
        <pt x="218" y="-323" on="1"/>
        <pt x="191" y="-286" on="1"/>
        <pt x="218" y="-269" on="0"/>
        <pt x="262" y="-217" on="0"/>
        <pt x="265" y="-191" on="1"/>
      </contour>
    </TTGlyph>
    <TTGlyph name="Ldot" xMin="76" yMin="0" xMax="447" yMax="630">
      <contour>
        <pt x="76" y="630" on="1"/>
        <pt x="183" y="630" on="1"/>
        <pt x="183" y="88" on="1"/>
        <pt x="447" y="88" on="1"/>
        <pt x="447" y="0" on="1"/>
        <pt x="76" y="0" on="1"/>
      </contour>
      <contour>
        <pt x="257" y="336" on="1"/>
        <pt x="257" y="363" on="0"/>
        <pt x="292" y="401" on="0"/>
        <pt x="319" y="401" on="1"/>
        <pt x="343" y="401" on="0"/>
        <pt x="378" y="363" on="0"/>
        <pt x="378" y="336" on="1"/>
        <pt x="378" y="310" on="0"/>
        <pt x="343" y="272" on="0"/>
        <pt x="319" y="272" on="1"/>
        <pt x="292" y="272" on="0"/>
        <pt x="257" y="310" on="0"/>
      </contour>
    </TTGlyph>
    <TTGlyph name="Lslash" xMin="-35" yMin="0" xMax="447" yMax="630">
      <contour>
        <pt x="76" y="630" on="1"/>
        <pt x="183" y="630" on="1"/>
        <pt x="183" y="387" on="1"/>
        <pt x="307" y="491" on="1"/>
        <pt x="346" y="443" on="1"/>
        <pt x="183" y="307" on="1"/>
        <pt x="183" y="88" on="1"/>
        <pt x="447" y="88" on="1"/>
        <pt x="447" y="0" on="1"/>
        <pt x="76" y="0" on="1"/>
        <pt x="76" y="232" on="1"/>
        <pt x="4" y="172" on="1"/>
        <pt x="-35" y="220" on="1"/>
        <pt x="76" y="313" on="1"/>
      </contour>
    </TTGlyph>
    <TTGlyph name="Lsmall" xMin="74" yMin="0" xMax="388" yMax="472">
      <contour>
        <pt x="74" y="472" on="1"/>
        <pt x="177" y="472" on="1"/>
        <pt x="177" y="79" on="1"/>
        <pt x="388" y="79" on="1"/>
        <pt x="388" y="0" on="1"/>
        <pt x="74" y="0" on="1"/>
      </contour>
    </TTGlyph>
    <TTGlyph name="M" xMin="64" yMin="0" xMax="754" yMax="630">
      <contour>
        <pt x="114" y="630" on="1"/>
        <pt x="252" y="630" on="1"/>
        <pt x="363" y="290" on="1"/>
        <pt x="377" y="247" on="0"/>
        <pt x="398" y="178" on="0"/>
        <pt x="409" y="135" on="1"/>
        <pt x="412" y="135" on="1"/>
        <pt x="423" y="171" on="0"/>
        <pt x="446" y="253" on="0"/>
        <pt x="457" y="290" on="1"/>
        <pt x="564" y="630" on="1"/>
        <pt x="702" y="630" on="1"/>
        <pt x="754" y="0" on="1"/>
        <pt x="650" y="0" on="1"/>
        <pt x="642" y="100" on="0"/>
        <pt x="627" y="303" on="0"/>
        <pt x="623" y="405" on="1"/>
        <pt x="619" y="520" on="1"/>
        <pt x="617" y="520" on="1"/>
        <pt x="600" y="458" on="0"/>
        <pt x="563" y="330" on="0"/>
        <pt x="543" y="271" on="1"/>
        <pt x="454" y="0" on="1"/>
        <pt x="363" y="0" on="1"/>
        <pt x="273" y="272" on="1"/>
        <pt x="259" y="315" on="0"/>
        <pt x="238" y="385" on="0"/>
        <pt x="221" y="444" on="0"/>
        <pt x="207" y="496" on="0"/>
        <pt x="201" y="520" on="1"/>
        <pt x="198" y="520" on="1"/>
        <pt x="195" y="435" on="0"/>
        <pt x="183" y="259" on="0"/>
        <pt x="178" y="178" on="1"/>
        <pt x="166" y="0" on="1"/>
        <pt x="64" y="0" on="1"/>
      </contour>
    </TTGlyph>
    <TTGlyph name="Macron" xMin="30" yMin="705" xMax="279" yMax="772">
      <contour>
        <pt x="279" y="772" on="1"/>
        <pt x="279" y="705" on="1"/>
        <pt x="30" y="705" on="1"/>
        <pt x="30" y="772" on="1"/>
      </contour>
    </TTGlyph>
    <TTGlyph name="Msmall" xMin="64" yMin="0" xMax="623" yMax="472">
      <contour>
        <pt x="103" y="472" on="1"/>
        <pt x="229" y="472" on="1"/>
        <pt x="285" y="296" on="1"/>
        <pt x="300" y="250" on="0"/>
        <pt x="331" y="150" on="0"/>
        <pt x="342" y="102" on="1"/>
        <pt x="345" y="102" on="1"/>
        <pt x="356" y="146" on="0"/>
        <pt x="388" y="249" on="0"/>
        <pt x="402" y="296" on="1"/>
        <pt x="456" y="472" on="1"/>
        <pt x="582" y="472" on="1"/>
        <pt x="623" y="0" on="1"/>
        <pt x="524" y="0" on="1"/>
        <pt x="512" y="181" on="1"/>
        <pt x="509" y="223" on="0"/>
        <pt x="504" y="315" on="0"/>
        <pt x="503" y="372" on="1"/>
        <pt x="500" y="372" on="1"/>
        <pt x="491" y="334" on="0"/>
        <pt x="475" y="273" on="0"/>
        <pt x="460" y="222" on="0"/>
        <pt x="445" y="177" on="0"/>
        <pt x="438" y="155" on="1"/>
        <pt x="387" y="0" on="1"/>
        <pt x="298" y="0" on="1"/>
        <pt x="247" y="156" on="1"/>
        <pt x="231" y="205" on="0"/>
        <pt x="197" y="314" on="0"/>
        <pt x="184" y="372" on="1"/>
        <pt x="182" y="372" on="1"/>
        <pt x="182" y="320" on="0"/>
        <pt x="174" y="222" on="0"/>
        <pt x="172" y="181" on="1"/>
        <pt x="170" y="136" on="0"/>
        <pt x="162" y="45" on="0"/>
        <pt x="160" y="0" on="1"/>
        <pt x="64" y="0" on="1"/>
      </contour>
    </TTGlyph>
    <TTGlyph name="N" xMin="76" yMin="0" xMax="596" yMax="630">
      <contour>
        <pt x="76" y="630" on="1"/>
        <pt x="171" y="630" on="1"/>
        <pt x="435" y="253" on="1"/>
        <pt x="453" y="227" on="0"/>
        <pt x="485" y="175" on="0"/>
        <pt x="496" y="154" on="1"/>
        <pt x="498" y="154" on="1"/>
        <pt x="493" y="228" on="0"/>
        <pt x="493" y="375" on="0"/>
        <pt x="493" y="450" on="1"/>
        <pt x="493" y="630" on="1"/>
        <pt x="596" y="630" on="1"/>
        <pt x="596" y="0" on="1"/>
        <pt x="501" y="0" on="1"/>
        <pt x="244" y="365" on="1"/>
        <pt x="225" y="392" on="0"/>
        <pt x="189" y="455" on="0"/>
        <pt x="176" y="480" on="1"/>
        <pt x="174" y="480" on="1"/>
        <pt x="179" y="402" on="0"/>
        <pt x="179" y="249" on="0"/>
        <pt x="179" y="172" on="1"/>
        <pt x="179" y="0" on="1"/>
        <pt x="76" y="0" on="1"/>
      </contour>
    </TTGlyph>
    <TTGlyph name="Nacute" xMin="76" yMin="0" xMax="596" yMax="829">
      <contour>
        <pt x="361" y="705" on="1"/>
        <pt x="277" y="705" on="1"/>
        <pt x="357" y="829" on="1"/>
        <pt x="474" y="829" on="1"/>
      </contour>
      <contour>
        <pt x="76" y="630" on="1"/>
        <pt x="171" y="630" on="1"/>
        <pt x="435" y="253" on="1"/>
        <pt x="453" y="227" on="0"/>
        <pt x="485" y="175" on="0"/>
        <pt x="496" y="154" on="1"/>
        <pt x="498" y="154" on="1"/>
        <pt x="493" y="228" on="0"/>
        <pt x="493" y="375" on="0"/>
        <pt x="493" y="450" on="1"/>
        <pt x="493" y="630" on="1"/>
        <pt x="596" y="630" on="1"/>
        <pt x="596" y="0" on="1"/>
        <pt x="501" y="0" on="1"/>
        <pt x="244" y="365" on="1"/>
        <pt x="225" y="392" on="0"/>
        <pt x="189" y="455" on="0"/>
        <pt x="176" y="480" on="1"/>
        <pt x="174" y="480" on="1"/>
        <pt x="179" y="402" on="0"/>
        <pt x="179" y="249" on="0"/>
        <pt x="179" y="172" on="1"/>
        <pt x="179" y="0" on="1"/>
        <pt x="76" y="0" on="1"/>
      </contour>
    </TTGlyph>
    <TTGlyph name="Ncaron" xMin="76" yMin="0" xMax="596" yMax="837">
      <contour>
        <pt x="384" y="706" on="1"/>
        <pt x="305" y="706" on="1"/>
        <pt x="185" y="837" on="1"/>
        <pt x="272" y="837" on="1"/>
        <pt x="346" y="756" on="1"/>
        <pt x="420" y="837" on="1"/>
        <pt x="506" y="837" on="1"/>
      </contour>
      <contour>
        <pt x="76" y="630" on="1"/>
        <pt x="171" y="630" on="1"/>
        <pt x="435" y="253" on="1"/>
        <pt x="453" y="227" on="0"/>
        <pt x="485" y="175" on="0"/>
        <pt x="496" y="154" on="1"/>
        <pt x="498" y="154" on="1"/>
        <pt x="493" y="228" on="0"/>
        <pt x="493" y="375" on="0"/>
        <pt x="493" y="450" on="1"/>
        <pt x="493" y="630" on="1"/>
        <pt x="596" y="630" on="1"/>
        <pt x="596" y="0" on="1"/>
        <pt x="501" y="0" on="1"/>
        <pt x="244" y="365" on="1"/>
        <pt x="225" y="392" on="0"/>
        <pt x="189" y="455" on="0"/>
        <pt x="176" y="480" on="1"/>
        <pt x="174" y="480" on="1"/>
        <pt x="179" y="402" on="0"/>
        <pt x="179" y="249" on="0"/>
        <pt x="179" y="172" on="1"/>
        <pt x="179" y="0" on="1"/>
        <pt x="76" y="0" on="1"/>
      </contour>
    </TTGlyph>
    <TTGlyph name="Ncommaaccent" xMin="76" yMin="-323" xMax="596" yMax="630">
      <contour>
        <pt x="317" y="-187" on="1"/>
        <pt x="299" y="-184" on="0"/>
        <pt x="264" y="-153" on="0"/>
        <pt x="264" y="-126" on="1"/>
        <pt x="264" y="-101" on="0"/>
        <pt x="297" y="-65" on="0"/>
        <pt x="326" y="-65" on="1"/>
        <pt x="338" y="-65" on="0"/>
        <pt x="364" y="-75" on="0"/>
        <pt x="385" y="-97" on="0"/>
        <pt x="399" y="-131" on="0"/>
        <pt x="399" y="-156" on="1"/>
        <pt x="399" y="-181" on="0"/>
        <pt x="382" y="-230" on="0"/>
        <pt x="352" y="-274" on="0"/>
        <pt x="311" y="-311" on="0"/>
        <pt x="288" y="-323" on="1"/>
        <pt x="261" y="-286" on="1"/>
        <pt x="288" y="-269" on="0"/>
        <pt x="332" y="-217" on="0"/>
        <pt x="335" y="-191" on="1"/>
      </contour>
      <contour>
        <pt x="76" y="630" on="1"/>
        <pt x="171" y="630" on="1"/>
        <pt x="435" y="253" on="1"/>
        <pt x="453" y="227" on="0"/>
        <pt x="485" y="175" on="0"/>
        <pt x="496" y="154" on="1"/>
        <pt x="498" y="154" on="1"/>
        <pt x="493" y="228" on="0"/>
        <pt x="493" y="375" on="0"/>
        <pt x="493" y="450" on="1"/>
        <pt x="493" y="630" on="1"/>
        <pt x="596" y="630" on="1"/>
        <pt x="596" y="0" on="1"/>
        <pt x="501" y="0" on="1"/>
        <pt x="244" y="365" on="1"/>
        <pt x="225" y="392" on="0"/>
        <pt x="189" y="455" on="0"/>
        <pt x="176" y="480" on="1"/>
        <pt x="174" y="480" on="1"/>
        <pt x="179" y="402" on="0"/>
        <pt x="179" y="249" on="0"/>
        <pt x="179" y="172" on="1"/>
        <pt x="179" y="0" on="1"/>
        <pt x="76" y="0" on="1"/>
      </contour>
    </TTGlyph>
    <TTGlyph name="Nsmall" xMin="74" yMin="0" xMax="493" yMax="472">
      <contour>
        <pt x="74" y="472" on="1"/>
        <pt x="171" y="472" on="1"/>
        <pt x="281" y="318" on="1"/>
        <pt x="312" y="273" on="0"/>
        <pt x="376" y="177" on="0"/>
        <pt x="397" y="136" on="1"/>
        <pt x="399" y="136" on="1"/>
        <pt x="397" y="168" on="0"/>
        <pt x="394" y="230" on="0"/>
        <pt x="394" y="257" on="1"/>
        <pt x="394" y="472" on="1"/>
        <pt x="493" y="472" on="1"/>
        <pt x="493" y="0" on="1"/>
        <pt x="397" y="0" on="1"/>
        <pt x="285" y="157" on="1"/>
        <pt x="253" y="202" on="0"/>
        <pt x="193" y="292" on="0"/>
        <pt x="171" y="340" on="1"/>
        <pt x="169" y="340" on="1"/>
        <pt x="171" y="305" on="0"/>
        <pt x="173" y="238" on="0"/>
        <pt x="173" y="204" on="1"/>
        <pt x="173" y="0" on="1"/>
        <pt x="74" y="0" on="1"/>
      </contour>
    </TTGlyph>
    <TTGlyph name="Ntilde" xMin="76" yMin="0" xMax="593" yMax="821">
      <contour>
        <pt x="76" y="630" on="1"/>
        <pt x="236" y="630" on="1"/>
        <pt x="428" y="238" on="1"/>
        <pt x="488" y="96" on="1"/>
        <pt x="491" y="96" on="1"/>
        <pt x="488" y="258" on="1"/>
        <pt x="488" y="630" on="1"/>
        <pt x="593" y="630" on="1"/>
        <pt x="593" y="0" on="1"/>
        <pt x="433" y="0" on="1"/>
        <pt x="248" y="375" on="1"/>
        <pt x="181" y="539" on="1"/>
        <pt x="178" y="539" on="1"/>
        <pt x="181" y="354" on="1"/>
        <pt x="181" y="0" on="1"/>
        <pt x="76" y="0" on="1"/>
      </contour>
      <contour>
        <pt x="201" y="705" on="1"/>
        <pt x="201" y="752" on="0"/>
        <pt x="244" y="818" on="0"/>
        <pt x="289" y="818" on="1"/>
        <pt x="309" y="818" on="0"/>
        <pt x="341" y="805" on="0"/>
        <pt x="370" y="789" on="0"/>
        <pt x="397" y="776" on="0"/>
        <pt x="412" y="776" on="1"/>
        <pt x="430" y="776" on="0"/>
        <pt x="447" y="804" on="0"/>
        <pt x="449" y="821" on="1"/>
        <pt x="504" y="821" on="1"/>
        <pt x="504" y="798" on="0"/>
        <pt x="493" y="758" on="0"/>
        <pt x="472" y="726" on="0"/>
        <pt x="441" y="708" on="0"/>
        <pt x="420" y="708" on="1"/>
        <pt x="399" y="708" on="0"/>
        <pt x="363" y="721" on="0"/>
        <pt x="331" y="736" on="0"/>
        <pt x="305" y="749" on="0"/>
        <pt x="293" y="749" on="1"/>
        <pt x="273" y="749" on="0"/>
        <pt x="258" y="723" on="0"/>
        <pt x="256" y="705" on="1"/>
      </contour>
    </TTGlyph>
    <TTGlyph name="O" xMin="44" yMin="-10" xMax="648" yMax="640">
      <contour>
        <pt x="348" y="640" on="1"/>
        <pt x="413" y="640" on="0"/>
        <pt x="523" y="598" on="0"/>
        <pt x="603" y="516" on="0"/>
        <pt x="648" y="394" on="0"/>
        <pt x="648" y="315" on="1"/>
        <pt x="648" y="237" on="0"/>
        <pt x="602" y="116" on="0"/>
        <pt x="520" y="33" on="0"/>
        <pt x="409" y="-10" on="0"/>
        <pt x="344" y="-10" on="1"/>
        <pt x="279" y="-10" on="0"/>
        <pt x="169" y="32" on="0"/>
        <pt x="89" y="114" on="0"/>
        <pt x="44" y="235" on="0"/>
        <pt x="44" y="315" on="1"/>
        <pt x="44" y="393" on="0"/>
        <pt x="90" y="514" on="0"/>
        <pt x="172" y="597" on="0"/>
        <pt x="283" y="640" on="0"/>
      </contour>
      <contour>
        <pt x="159" y="315" on="1"/>
        <pt x="159" y="254" on="0"/>
        <pt x="189" y="163" on="0"/>
        <pt x="240" y="103" on="0"/>
        <pt x="309" y="74" on="0"/>
        <pt x="348" y="74" on="1"/>
        <pt x="387" y="74" on="0"/>
        <pt x="455" y="103" on="0"/>
        <pt x="504" y="163" on="0"/>
        <pt x="533" y="254" on="0"/>
        <pt x="533" y="315" on="1"/>
        <pt x="533" y="378" on="0"/>
        <pt x="503" y="469" on="0"/>
        <pt x="452" y="528" on="0"/>
        <pt x="383" y="556" on="0"/>
        <pt x="344" y="556" on="1"/>
        <pt x="305" y="556" on="0"/>
        <pt x="237" y="527" on="0"/>
        <pt x="188" y="467" on="0"/>
        <pt x="159" y="376" on="0"/>
      </contour>
    </TTGlyph>
    <TTGlyph name="OE" xMin="44" yMin="-10" xMax="812" yMax="640">
      <contour>
        <pt x="340" y="-10" on="1"/>
        <pt x="276" y="-10" on="0"/>
        <pt x="168" y="30" on="0"/>
        <pt x="89" y="111" on="0"/>
        <pt x="44" y="233" on="0"/>
        <pt x="44" y="316" on="1"/>
        <pt x="44" y="394" on="0"/>
        <pt x="89" y="515" on="0"/>
        <pt x="169" y="597" on="0"/>
        <pt x="278" y="640" on="0"/>
        <pt x="341" y="640" on="1"/>
        <pt x="364" y="640" on="0"/>
        <pt x="415" y="635" on="0"/>
        <pt x="435" y="630" on="1"/>
        <pt x="809" y="630" on="1"/>
        <pt x="809" y="544" on="1"/>
        <pt x="533" y="544" on="1"/>
        <pt x="533" y="370" on="1"/>
        <pt x="783" y="370" on="1"/>
        <pt x="783" y="285" on="1"/>
        <pt x="533" y="285" on="1"/>
        <pt x="533" y="86" on="1"/>
        <pt x="812" y="86" on="1"/>
        <pt x="812" y="0" on="1"/>
        <pt x="431" y="0" on="1"/>
        <pt x="409" y="-5" on="0"/>
        <pt x="361" y="-10" on="0"/>
      </contour>
      <contour>
        <pt x="344" y="556" on="1"/>
        <pt x="260" y="556" on="0"/>
        <pt x="159" y="440" on="0"/>
        <pt x="159" y="318" on="1"/>
        <pt x="159" y="196" on="0"/>
        <pt x="260" y="74" on="0"/>
        <pt x="344" y="74" on="1"/>
        <pt x="365" y="74" on="0"/>
        <pt x="409" y="84" on="0"/>
        <pt x="426" y="93" on="1"/>
        <pt x="426" y="540" on="1"/>
        <pt x="388" y="556" on="0"/>
      </contour>
    </TTGlyph>
    <TTGlyph name="Oacute" xMin="44" yMin="-10" xMax="648" yMax="829">
      <contour>
        <pt x="348" y="640" on="1"/>
        <pt x="413" y="640" on="0"/>
        <pt x="523" y="598" on="0"/>
        <pt x="603" y="516" on="0"/>
        <pt x="648" y="394" on="0"/>
        <pt x="648" y="315" on="1"/>
        <pt x="648" y="237" on="0"/>
        <pt x="602" y="116" on="0"/>
        <pt x="520" y="33" on="0"/>
        <pt x="409" y="-10" on="0"/>
        <pt x="344" y="-10" on="1"/>
        <pt x="279" y="-10" on="0"/>
        <pt x="169" y="32" on="0"/>
        <pt x="89" y="114" on="0"/>
        <pt x="44" y="235" on="0"/>
        <pt x="44" y="315" on="1"/>
        <pt x="44" y="393" on="0"/>
        <pt x="90" y="514" on="0"/>
        <pt x="172" y="597" on="0"/>
        <pt x="283" y="640" on="0"/>
      </contour>
      <contour>
        <pt x="159" y="315" on="1"/>
        <pt x="159" y="254" on="0"/>
        <pt x="189" y="163" on="0"/>
        <pt x="240" y="103" on="0"/>
        <pt x="309" y="74" on="0"/>
        <pt x="348" y="74" on="1"/>
        <pt x="387" y="74" on="0"/>
        <pt x="455" y="103" on="0"/>
        <pt x="504" y="163" on="0"/>
        <pt x="533" y="254" on="0"/>
        <pt x="533" y="315" on="1"/>
        <pt x="533" y="378" on="0"/>
        <pt x="503" y="469" on="0"/>
        <pt x="452" y="528" on="0"/>
        <pt x="383" y="556" on="0"/>
        <pt x="344" y="556" on="1"/>
        <pt x="305" y="556" on="0"/>
        <pt x="237" y="527" on="0"/>
        <pt x="188" y="467" on="0"/>
        <pt x="159" y="376" on="0"/>
      </contour>
      <contour>
        <pt x="340" y="705" on="1"/>
        <pt x="255" y="705" on="1"/>
        <pt x="335" y="829" on="1"/>
        <pt x="452" y="829" on="1"/>
      </contour>
    </TTGlyph>
    <TTGlyph name="Obreve" xMin="44" yMin="-10" xMax="648" yMax="829">
      <contour>
        <pt x="348" y="640" on="1"/>
        <pt x="413" y="640" on="0"/>
        <pt x="523" y="598" on="0"/>
        <pt x="603" y="516" on="0"/>
        <pt x="648" y="394" on="0"/>
        <pt x="648" y="315" on="1"/>
        <pt x="648" y="237" on="0"/>
        <pt x="602" y="116" on="0"/>
        <pt x="520" y="33" on="0"/>
        <pt x="409" y="-10" on="0"/>
        <pt x="344" y="-10" on="1"/>
        <pt x="279" y="-10" on="0"/>
        <pt x="169" y="32" on="0"/>
        <pt x="89" y="114" on="0"/>
        <pt x="44" y="235" on="0"/>
        <pt x="44" y="315" on="1"/>
        <pt x="44" y="393" on="0"/>
        <pt x="90" y="514" on="0"/>
        <pt x="172" y="597" on="0"/>
        <pt x="283" y="640" on="0"/>
      </contour>
      <contour>
        <pt x="159" y="315" on="1"/>
        <pt x="159" y="254" on="0"/>
        <pt x="189" y="163" on="0"/>
        <pt x="240" y="103" on="0"/>
        <pt x="309" y="74" on="0"/>
        <pt x="348" y="74" on="1"/>
        <pt x="387" y="74" on="0"/>
        <pt x="455" y="103" on="0"/>
        <pt x="504" y="163" on="0"/>
        <pt x="533" y="254" on="0"/>
        <pt x="533" y="315" on="1"/>
        <pt x="533" y="378" on="0"/>
        <pt x="503" y="469" on="0"/>
        <pt x="452" y="528" on="0"/>
        <pt x="383" y="556" on="0"/>
        <pt x="344" y="556" on="1"/>
        <pt x="305" y="556" on="0"/>
        <pt x="237" y="527" on="0"/>
        <pt x="188" y="467" on="0"/>
        <pt x="159" y="376" on="0"/>
      </contour>
      <contour>
        <pt x="278" y="829" on="1"/>
        <pt x="281" y="799" on="0"/>
        <pt x="307" y="764" on="0"/>
        <pt x="345" y="764" on="1"/>
        <pt x="406" y="764" on="0"/>
        <pt x="412" y="829" on="1"/>
        <pt x="479" y="829" on="1"/>
        <pt x="479" y="773" on="0"/>
        <pt x="410" y="704" on="0"/>
        <pt x="345" y="704" on="1"/>
        <pt x="309" y="704" on="0"/>
        <pt x="258" y="725" on="0"/>
        <pt x="225" y="760" on="0"/>
        <pt x="210" y="805" on="0"/>
        <pt x="210" y="829" on="1"/>
      </contour>
    </TTGlyph>
    <TTGlyph name="Ocircumflex" xMin="44" yMin="-10" xMax="648" yMax="836">
      <contour>
        <pt x="348" y="640" on="1"/>
        <pt x="413" y="640" on="0"/>
        <pt x="523" y="598" on="0"/>
        <pt x="603" y="516" on="0"/>
        <pt x="648" y="394" on="0"/>
        <pt x="648" y="315" on="1"/>
        <pt x="648" y="237" on="0"/>
        <pt x="602" y="116" on="0"/>
        <pt x="520" y="33" on="0"/>
        <pt x="409" y="-10" on="0"/>
        <pt x="344" y="-10" on="1"/>
        <pt x="279" y="-10" on="0"/>
        <pt x="169" y="32" on="0"/>
        <pt x="89" y="114" on="0"/>
        <pt x="44" y="235" on="0"/>
        <pt x="44" y="315" on="1"/>
        <pt x="44" y="393" on="0"/>
        <pt x="90" y="514" on="0"/>
        <pt x="172" y="597" on="0"/>
        <pt x="283" y="640" on="0"/>
      </contour>
      <contour>
        <pt x="159" y="315" on="1"/>
        <pt x="159" y="254" on="0"/>
        <pt x="189" y="163" on="0"/>
        <pt x="240" y="103" on="0"/>
        <pt x="309" y="74" on="0"/>
        <pt x="348" y="74" on="1"/>
        <pt x="387" y="74" on="0"/>
        <pt x="455" y="103" on="0"/>
        <pt x="504" y="163" on="0"/>
        <pt x="533" y="254" on="0"/>
        <pt x="533" y="315" on="1"/>
        <pt x="533" y="378" on="0"/>
        <pt x="503" y="469" on="0"/>
        <pt x="452" y="528" on="0"/>
        <pt x="383" y="556" on="0"/>
        <pt x="344" y="556" on="1"/>
        <pt x="305" y="556" on="0"/>
        <pt x="237" y="527" on="0"/>
        <pt x="188" y="467" on="0"/>
        <pt x="159" y="376" on="0"/>
      </contour>
      <contour>
        <pt x="308" y="836" on="1"/>
        <pt x="387" y="836" on="1"/>
        <pt x="509" y="705" on="1"/>
        <pt x="422" y="705" on="1"/>
        <pt x="347" y="784" on="1"/>
        <pt x="272" y="705" on="1"/>
        <pt x="188" y="705" on="1"/>
      </contour>
    </TTGlyph>
    <TTGlyph name="Odieresis" xMin="44" yMin="-10" xMax="648" yMax="811">
      <contour>
        <pt x="348" y="640" on="1"/>
        <pt x="413" y="640" on="0"/>
        <pt x="523" y="598" on="0"/>
        <pt x="603" y="516" on="0"/>
        <pt x="648" y="394" on="0"/>
        <pt x="648" y="315" on="1"/>
        <pt x="648" y="237" on="0"/>
        <pt x="602" y="116" on="0"/>
        <pt x="520" y="33" on="0"/>
        <pt x="409" y="-10" on="0"/>
        <pt x="344" y="-10" on="1"/>
        <pt x="279" y="-10" on="0"/>
        <pt x="169" y="32" on="0"/>
        <pt x="89" y="114" on="0"/>
        <pt x="44" y="235" on="0"/>
        <pt x="44" y="315" on="1"/>
        <pt x="44" y="393" on="0"/>
        <pt x="90" y="514" on="0"/>
        <pt x="172" y="597" on="0"/>
        <pt x="283" y="640" on="0"/>
      </contour>
      <contour>
        <pt x="159" y="315" on="1"/>
        <pt x="159" y="254" on="0"/>
        <pt x="189" y="163" on="0"/>
        <pt x="240" y="103" on="0"/>
        <pt x="309" y="74" on="0"/>
        <pt x="348" y="74" on="1"/>
        <pt x="387" y="74" on="0"/>
        <pt x="455" y="103" on="0"/>
        <pt x="504" y="163" on="0"/>
        <pt x="533" y="254" on="0"/>
        <pt x="533" y="315" on="1"/>
        <pt x="533" y="378" on="0"/>
        <pt x="503" y="469" on="0"/>
        <pt x="452" y="528" on="0"/>
        <pt x="383" y="556" on="0"/>
        <pt x="344" y="556" on="1"/>
        <pt x="305" y="556" on="0"/>
        <pt x="237" y="527" on="0"/>
        <pt x="188" y="467" on="0"/>
        <pt x="159" y="376" on="0"/>
      </contour>
      <contour>
        <pt x="203" y="758" on="1"/>
        <pt x="203" y="779" on="0"/>
        <pt x="235" y="811" on="0"/>
        <pt x="258" y="811" on="1"/>
        <pt x="281" y="811" on="0"/>
        <pt x="312" y="779" on="0"/>
        <pt x="312" y="758" on="1"/>
        <pt x="312" y="735" on="0"/>
        <pt x="281" y="702" on="0"/>
        <pt x="258" y="702" on="1"/>
        <pt x="235" y="702" on="0"/>
        <pt x="203" y="735" on="0"/>
      </contour>
      <contour>
        <pt x="379" y="758" on="1"/>
        <pt x="379" y="779" on="0"/>
        <pt x="411" y="811" on="0"/>
        <pt x="434" y="811" on="1"/>
        <pt x="456" y="811" on="0"/>
        <pt x="488" y="779" on="0"/>
        <pt x="488" y="758" on="1"/>
        <pt x="488" y="735" on="0"/>
        <pt x="456" y="702" on="0"/>
        <pt x="434" y="702" on="1"/>
        <pt x="411" y="702" on="0"/>
        <pt x="379" y="735" on="0"/>
      </contour>
    </TTGlyph>
    <TTGlyph name="Ogonek" xMin="26" yMin="-206" xMax="215" yMax="0">
      <contour>
        <pt x="97" y="0" on="1"/>
        <pt x="187" y="0" on="1"/>
        <pt x="149" y="-21" on="0"/>
        <pt x="101" y="-62" on="0"/>
        <pt x="101" y="-90" on="1"/>
        <pt x="101" y="-113" on="0"/>
        <pt x="130" y="-139" on="0"/>
        <pt x="153" y="-139" on="1"/>
        <pt x="167" y="-139" on="0"/>
        <pt x="191" y="-134" on="0"/>
        <pt x="200" y="-131" on="1"/>
        <pt x="215" y="-185" on="1"/>
        <pt x="180" y="-206" on="0"/>
        <pt x="133" y="-206" on="1"/>
        <pt x="87" y="-206" on="0"/>
        <pt x="26" y="-155" on="0"/>
        <pt x="26" y="-108" on="1"/>
        <pt x="26" y="-89" on="0"/>
        <pt x="39" y="-56" on="0"/>
        <pt x="59" y="-28" on="0"/>
        <pt x="85" y="-7" on="0"/>
      </contour>
    </TTGlyph>
    <TTGlyph name="Ograve" xMin="44" yMin="-10" xMax="648" yMax="829">
      <contour>
        <pt x="348" y="640" on="1"/>
        <pt x="413" y="640" on="0"/>
        <pt x="523" y="598" on="0"/>
        <pt x="603" y="516" on="0"/>
        <pt x="648" y="394" on="0"/>
        <pt x="648" y="315" on="1"/>
        <pt x="648" y="237" on="0"/>
        <pt x="602" y="116" on="0"/>
        <pt x="520" y="33" on="0"/>
        <pt x="409" y="-10" on="0"/>
        <pt x="344" y="-10" on="1"/>
        <pt x="279" y="-10" on="0"/>
        <pt x="169" y="32" on="0"/>
        <pt x="89" y="114" on="0"/>
        <pt x="44" y="235" on="0"/>
        <pt x="44" y="315" on="1"/>
        <pt x="44" y="393" on="0"/>
        <pt x="90" y="514" on="0"/>
        <pt x="172" y="597" on="0"/>
        <pt x="283" y="640" on="0"/>
      </contour>
      <contour>
        <pt x="159" y="315" on="1"/>
        <pt x="159" y="254" on="0"/>
        <pt x="189" y="163" on="0"/>
        <pt x="240" y="103" on="0"/>
        <pt x="309" y="74" on="0"/>
        <pt x="348" y="74" on="1"/>
        <pt x="387" y="74" on="0"/>
        <pt x="455" y="103" on="0"/>
        <pt x="504" y="163" on="0"/>
        <pt x="533" y="254" on="0"/>
        <pt x="533" y="315" on="1"/>
        <pt x="533" y="378" on="0"/>
        <pt x="503" y="469" on="0"/>
        <pt x="452" y="528" on="0"/>
        <pt x="383" y="556" on="0"/>
        <pt x="344" y="556" on="1"/>
        <pt x="305" y="556" on="0"/>
        <pt x="237" y="527" on="0"/>
        <pt x="188" y="467" on="0"/>
        <pt x="159" y="376" on="0"/>
      </contour>
      <contour>
        <pt x="232" y="829" on="1"/>
        <pt x="349" y="829" on="1"/>
        <pt x="429" y="705" on="1"/>
        <pt x="344" y="705" on="1"/>
      </contour>
    </TTGlyph>
    <TTGlyph name="Ohungarumlaut" xMin="44" yMin="-10" xMax="648" yMax="830">
      <contour>
        <pt x="348" y="640" on="1"/>
        <pt x="413" y="640" on="0"/>
        <pt x="523" y="598" on="0"/>
        <pt x="603" y="516" on="0"/>
        <pt x="648" y="394" on="0"/>
        <pt x="648" y="315" on="1"/>
        <pt x="648" y="237" on="0"/>
        <pt x="602" y="116" on="0"/>
        <pt x="520" y="33" on="0"/>
        <pt x="409" y="-10" on="0"/>
        <pt x="344" y="-10" on="1"/>
        <pt x="279" y="-10" on="0"/>
        <pt x="169" y="32" on="0"/>
        <pt x="89" y="114" on="0"/>
        <pt x="44" y="235" on="0"/>
        <pt x="44" y="315" on="1"/>
        <pt x="44" y="393" on="0"/>
        <pt x="90" y="514" on="0"/>
        <pt x="172" y="597" on="0"/>
        <pt x="283" y="640" on="0"/>
      </contour>
      <contour>
        <pt x="159" y="315" on="1"/>
        <pt x="159" y="254" on="0"/>
        <pt x="189" y="163" on="0"/>
        <pt x="240" y="103" on="0"/>
        <pt x="309" y="74" on="0"/>
        <pt x="348" y="74" on="1"/>
        <pt x="387" y="74" on="0"/>
        <pt x="455" y="103" on="0"/>
        <pt x="504" y="163" on="0"/>
        <pt x="533" y="254" on="0"/>
        <pt x="533" y="315" on="1"/>
        <pt x="533" y="378" on="0"/>
        <pt x="503" y="469" on="0"/>
        <pt x="452" y="528" on="0"/>
        <pt x="383" y="556" on="0"/>
        <pt x="344" y="556" on="1"/>
        <pt x="305" y="556" on="0"/>
        <pt x="237" y="527" on="0"/>
        <pt x="188" y="467" on="0"/>
        <pt x="159" y="376" on="0"/>
      </contour>
      <contour>
        <pt x="267" y="705" on="1"/>
        <pt x="185" y="705" on="1"/>
        <pt x="265" y="830" on="1"/>
        <pt x="374" y="830" on="1"/>
      </contour>
      <contour>
        <pt x="461" y="705" on="1"/>
        <pt x="379" y="705" on="1"/>
        <pt x="459" y="830" on="1"/>
        <pt x="568" y="830" on="1"/>
      </contour>
    </TTGlyph>
    <TTGlyph name="Omacron" xMin="44" yMin="-10" xMax="648" yMax="772">
      <contour>
        <pt x="348" y="640" on="1"/>
        <pt x="413" y="640" on="0"/>
        <pt x="523" y="598" on="0"/>
        <pt x="603" y="516" on="0"/>
        <pt x="648" y="394" on="0"/>
        <pt x="648" y="315" on="1"/>
        <pt x="648" y="237" on="0"/>
        <pt x="602" y="116" on="0"/>
        <pt x="520" y="33" on="0"/>
        <pt x="409" y="-10" on="0"/>
        <pt x="344" y="-10" on="1"/>
        <pt x="279" y="-10" on="0"/>
        <pt x="169" y="32" on="0"/>
        <pt x="89" y="114" on="0"/>
        <pt x="44" y="235" on="0"/>
        <pt x="44" y="315" on="1"/>
        <pt x="44" y="393" on="0"/>
        <pt x="90" y="514" on="0"/>
        <pt x="172" y="597" on="0"/>
        <pt x="283" y="640" on="0"/>
      </contour>
      <contour>
        <pt x="159" y="315" on="1"/>
        <pt x="159" y="254" on="0"/>
        <pt x="189" y="163" on="0"/>
        <pt x="240" y="103" on="0"/>
        <pt x="309" y="74" on="0"/>
        <pt x="348" y="74" on="1"/>
        <pt x="387" y="74" on="0"/>
        <pt x="455" y="103" on="0"/>
        <pt x="504" y="163" on="0"/>
        <pt x="533" y="254" on="0"/>
        <pt x="533" y="315" on="1"/>
        <pt x="533" y="378" on="0"/>
        <pt x="503" y="469" on="0"/>
        <pt x="452" y="528" on="0"/>
        <pt x="383" y="556" on="0"/>
        <pt x="344" y="556" on="1"/>
        <pt x="305" y="556" on="0"/>
        <pt x="237" y="527" on="0"/>
        <pt x="188" y="467" on="0"/>
        <pt x="159" y="376" on="0"/>
      </contour>
      <contour>
        <pt x="475" y="772" on="1"/>
        <pt x="475" y="705" on="1"/>
        <pt x="227" y="705" on="1"/>
        <pt x="227" y="772" on="1"/>
      </contour>
    </TTGlyph>
    <TTGlyph name="Oslash" xMin="44" yMin="-155" xMax="648" yMax="750">
      <contour>
        <pt x="506" y="750" on="1"/>
        <pt x="553" y="732" on="1"/>
        <pt x="501" y="604" on="1"/>
        <pt x="567" y="566" on="0"/>
        <pt x="648" y="424" on="0"/>
        <pt x="648" y="315" on="1"/>
        <pt x="648" y="237" on="0"/>
        <pt x="602" y="116" on="0"/>
        <pt x="520" y="33" on="0"/>
        <pt x="409" y="-10" on="0"/>
        <pt x="344" y="-10" on="1"/>
        <pt x="319" y="-10" on="0"/>
        <pt x="268" y="-2" on="0"/>
        <pt x="245" y="4" on="1"/>
        <pt x="181" y="-155" on="1"/>
        <pt x="133" y="-134" on="1"/>
        <pt x="197" y="22" on="1"/>
        <pt x="128" y="60" on="0"/>
        <pt x="44" y="203" on="0"/>
        <pt x="44" y="315" on="1"/>
        <pt x="44" y="393" on="0"/>
        <pt x="90" y="514" on="0"/>
        <pt x="172" y="597" on="0"/>
        <pt x="283" y="640" on="0"/>
        <pt x="348" y="640" on="1"/>
        <pt x="374" y="640" on="0"/>
        <pt x="429" y="631" on="0"/>
        <pt x="453" y="623" on="1"/>
      </contour>
      <contour>
        <pt x="159" y="315" on="1"/>
        <pt x="159" y="237" on="0"/>
        <pt x="202" y="137" on="0"/>
        <pt x="238" y="109" on="1"/>
        <pt x="415" y="543" on="1"/>
        <pt x="398" y="549" on="0"/>
        <pt x="362" y="556" on="0"/>
        <pt x="344" y="556" on="1"/>
        <pt x="305" y="556" on="0"/>
        <pt x="237" y="527" on="0"/>
        <pt x="188" y="467" on="0"/>
        <pt x="159" y="376" on="0"/>
      </contour>
      <contour>
        <pt x="348" y="74" on="1"/>
        <pt x="387" y="74" on="0"/>
        <pt x="455" y="103" on="0"/>
        <pt x="504" y="163" on="0"/>
        <pt x="533" y="254" on="0"/>
        <pt x="533" y="315" on="1"/>
        <pt x="533" y="390" on="0"/>
        <pt x="493" y="488" on="0"/>
        <pt x="459" y="516" on="1"/>
        <pt x="284" y="84" on="1"/>
        <pt x="299" y="79" on="0"/>
        <pt x="331" y="74" on="0"/>
      </contour>
    </TTGlyph>
    <TTGlyph name="Oslashacute" xMin="44" yMin="-155" xMax="648" yMax="829">
      <contour>
        <pt x="332" y="705" on="1"/>
        <pt x="248" y="705" on="1"/>
        <pt x="328" y="829" on="1"/>
        <pt x="444" y="829" on="1"/>
      </contour>
      <contour>
        <pt x="506" y="750" on="1"/>
        <pt x="553" y="732" on="1"/>
        <pt x="501" y="604" on="1"/>
        <pt x="567" y="566" on="0"/>
        <pt x="648" y="424" on="0"/>
        <pt x="648" y="315" on="1"/>
        <pt x="648" y="237" on="0"/>
        <pt x="602" y="116" on="0"/>
        <pt x="520" y="33" on="0"/>
        <pt x="409" y="-10" on="0"/>
        <pt x="344" y="-10" on="1"/>
        <pt x="319" y="-10" on="0"/>
        <pt x="268" y="-2" on="0"/>
        <pt x="245" y="4" on="1"/>
        <pt x="181" y="-155" on="1"/>
        <pt x="133" y="-134" on="1"/>
        <pt x="197" y="22" on="1"/>
        <pt x="128" y="60" on="0"/>
        <pt x="44" y="203" on="0"/>
        <pt x="44" y="315" on="1"/>
        <pt x="44" y="393" on="0"/>
        <pt x="90" y="514" on="0"/>
        <pt x="172" y="597" on="0"/>
        <pt x="283" y="640" on="0"/>
        <pt x="348" y="640" on="1"/>
        <pt x="374" y="640" on="0"/>
        <pt x="429" y="631" on="0"/>
        <pt x="453" y="623" on="1"/>
      </contour>
      <contour>
        <pt x="159" y="315" on="1"/>
        <pt x="159" y="237" on="0"/>
        <pt x="202" y="137" on="0"/>
        <pt x="238" y="109" on="1"/>
        <pt x="415" y="543" on="1"/>
        <pt x="398" y="549" on="0"/>
        <pt x="362" y="556" on="0"/>
        <pt x="344" y="556" on="1"/>
        <pt x="305" y="556" on="0"/>
        <pt x="237" y="527" on="0"/>
        <pt x="188" y="467" on="0"/>
        <pt x="159" y="376" on="0"/>
      </contour>
      <contour>
        <pt x="348" y="74" on="1"/>
        <pt x="387" y="74" on="0"/>
        <pt x="455" y="103" on="0"/>
        <pt x="504" y="163" on="0"/>
        <pt x="533" y="254" on="0"/>
        <pt x="533" y="315" on="1"/>
        <pt x="533" y="390" on="0"/>
        <pt x="493" y="488" on="0"/>
        <pt x="459" y="516" on="1"/>
        <pt x="284" y="84" on="1"/>
        <pt x="299" y="79" on="0"/>
        <pt x="331" y="74" on="0"/>
      </contour>
    </TTGlyph>
    <TTGlyph name="Osmall" xMin="44" yMin="-10" xMax="514" yMax="480">
      <contour>
        <pt x="514" y="241" on="1"/>
        <pt x="514" y="182" on="0"/>
        <pt x="477" y="88" on="0"/>
        <pt x="413" y="24" on="0"/>
        <pt x="327" y="-10" on="0"/>
        <pt x="277" y="-10" on="1"/>
        <pt x="227" y="-10" on="0"/>
        <pt x="142" y="22" on="0"/>
        <pt x="79" y="83" on="0"/>
        <pt x="44" y="173" on="0"/>
        <pt x="44" y="231" on="1"/>
        <pt x="44" y="291" on="0"/>
        <pt x="81" y="383" on="0"/>
        <pt x="145" y="447" on="0"/>
        <pt x="231" y="480" on="0"/>
        <pt x="281" y="480" on="1"/>
        <pt x="331" y="480" on="0"/>
        <pt x="416" y="449" on="0"/>
        <pt x="479" y="389" on="0"/>
        <pt x="514" y="299" on="0"/>
      </contour>
      <contour>
        <pt x="407" y="236" on="1"/>
        <pt x="407" y="281" on="0"/>
        <pt x="385" y="344" on="0"/>
        <pt x="349" y="384" on="0"/>
        <pt x="303" y="402" on="0"/>
        <pt x="278" y="402" on="1"/>
        <pt x="254" y="402" on="0"/>
        <pt x="208" y="386" on="0"/>
        <pt x="172" y="348" on="0"/>
        <pt x="151" y="284" on="0"/>
        <pt x="151" y="236" on="1"/>
        <pt x="151" y="192" on="0"/>
        <pt x="173" y="128" on="0"/>
        <pt x="209" y="87" on="0"/>
        <pt x="256" y="68" on="0"/>
        <pt x="280" y="68" on="1"/>
        <pt x="304" y="68" on="0"/>
        <pt x="350" y="84" on="0"/>
        <pt x="386" y="123" on="0"/>
        <pt x="407" y="188" on="0"/>
      </contour>
    </TTGlyph>
    <TTGlyph name="Otilde" xMin="44" yMin="-10" xMax="648" yMax="821">
      <contour>
        <pt x="348" y="640" on="1"/>
        <pt x="413" y="640" on="0"/>
        <pt x="523" y="598" on="0"/>
        <pt x="603" y="516" on="0"/>
        <pt x="648" y="394" on="0"/>
        <pt x="648" y="315" on="1"/>
        <pt x="648" y="237" on="0"/>
        <pt x="602" y="116" on="0"/>
        <pt x="520" y="33" on="0"/>
        <pt x="409" y="-10" on="0"/>
        <pt x="344" y="-10" on="1"/>
        <pt x="279" y="-10" on="0"/>
        <pt x="169" y="32" on="0"/>
        <pt x="89" y="114" on="0"/>
        <pt x="44" y="235" on="0"/>
        <pt x="44" y="315" on="1"/>
        <pt x="44" y="393" on="0"/>
        <pt x="90" y="514" on="0"/>
        <pt x="172" y="597" on="0"/>
        <pt x="283" y="640" on="0"/>
      </contour>
      <contour>
        <pt x="159" y="315" on="1"/>
        <pt x="159" y="254" on="0"/>
        <pt x="189" y="163" on="0"/>
        <pt x="240" y="103" on="0"/>
        <pt x="309" y="74" on="0"/>
        <pt x="348" y="74" on="1"/>
        <pt x="387" y="74" on="0"/>
        <pt x="455" y="103" on="0"/>
        <pt x="504" y="163" on="0"/>
        <pt x="533" y="254" on="0"/>
        <pt x="533" y="315" on="1"/>
        <pt x="533" y="378" on="0"/>
        <pt x="503" y="469" on="0"/>
        <pt x="452" y="528" on="0"/>
        <pt x="383" y="556" on="0"/>
        <pt x="344" y="556" on="1"/>
        <pt x="305" y="556" on="0"/>
        <pt x="237" y="527" on="0"/>
        <pt x="188" y="467" on="0"/>
        <pt x="159" y="376" on="0"/>
      </contour>
      <contour>
        <pt x="190" y="706" on="1"/>
        <pt x="190" y="753" on="0"/>
        <pt x="233" y="818" on="0"/>
        <pt x="279" y="818" on="1"/>
        <pt x="299" y="818" on="0"/>
        <pt x="331" y="805" on="0"/>
        <pt x="359" y="790" on="0"/>
        <pt x="387" y="777" on="0"/>
        <pt x="402" y="777" on="1"/>
        <pt x="420" y="777" on="0"/>
        <pt x="437" y="804" on="0"/>
        <pt x="438" y="821" on="1"/>
        <pt x="493" y="821" on="1"/>
        <pt x="493" y="799" on="0"/>
        <pt x="482" y="758" on="0"/>
        <pt x="461" y="727" on="0"/>
        <pt x="430" y="709" on="0"/>
        <pt x="409" y="709" on="1"/>
        <pt x="388" y="709" on="0"/>
        <pt x="352" y="721" on="0"/>
        <pt x="321" y="736" on="0"/>
        <pt x="294" y="749" on="0"/>
        <pt x="283" y="749" on="1"/>
        <pt x="263" y="749" on="0"/>
        <pt x="247" y="724" on="0"/>
        <pt x="245" y="706" on="1"/>
      </contour>
    </TTGlyph>
    <TTGlyph name="P" xMin="76" yMin="0" xMax="508" yMax="630">
      <contour>
        <pt x="76" y="630" on="1"/>
        <pt x="282" y="630" on="1"/>
        <pt x="333" y="630" on="0"/>
        <pt x="416" y="604" on="0"/>
        <pt x="475" y="555" on="0"/>
        <pt x="508" y="484" on="0"/>
        <pt x="508" y="438" on="1"/>
        <pt x="508" y="387" on="0"/>
        <pt x="472" y="312" on="0"/>
        <pt x="408" y="263" on="0"/>
        <pt x="321" y="239" on="0"/>
        <pt x="270" y="239" on="1"/>
        <pt x="183" y="239" on="1"/>
        <pt x="183" y="0" on="1"/>
        <pt x="76" y="0" on="1"/>
      </contour>
      <contour>
        <pt x="183" y="324" on="1"/>
        <pt x="240" y="324" on="1"/>
        <pt x="274" y="324" on="0"/>
        <pt x="331" y="334" on="0"/>
        <pt x="373" y="359" on="0"/>
        <pt x="397" y="402" on="0"/>
        <pt x="397" y="436" on="1"/>
        <pt x="397" y="466" on="0"/>
        <pt x="375" y="508" on="0"/>
        <pt x="337" y="534" on="0"/>
        <pt x="289" y="546" on="0"/>
        <pt x="262" y="546" on="1"/>
        <pt x="183" y="546" on="1"/>
      </contour>
    </TTGlyph>
    <TTGlyph name="Psmall" xMin="75" yMin="0" xMax="434" yMax="472">
      <contour>
        <pt x="75" y="472" on="1"/>
        <pt x="259" y="472" on="1"/>
        <pt x="294" y="472" on="0"/>
        <pt x="358" y="452" on="0"/>
        <pt x="406" y="415" on="0"/>
        <pt x="434" y="360" on="0"/>
        <pt x="434" y="325" on="1"/>
        <pt x="434" y="275" on="0"/>
        <pt x="395" y="214" on="0"/>
        <pt x="334" y="179" on="0"/>
        <pt x="259" y="167" on="0"/>
        <pt x="222" y="167" on="1"/>
        <pt x="178" y="167" on="1"/>
        <pt x="178" y="0" on="1"/>
        <pt x="75" y="0" on="1"/>
      </contour>
      <contour>
        <pt x="177" y="245" on="1"/>
        <pt x="225" y="245" on="1"/>
        <pt x="243" y="245" on="0"/>
        <pt x="280" y="251" on="0"/>
        <pt x="310" y="268" on="0"/>
        <pt x="329" y="298" on="0"/>
        <pt x="329" y="322" on="1"/>
        <pt x="329" y="345" on="0"/>
        <pt x="311" y="373" on="0"/>
        <pt x="282" y="389" on="0"/>
        <pt x="246" y="394" on="0"/>
        <pt x="228" y="394" on="1"/>
        <pt x="177" y="394" on="1"/>
      </contour>
    </TTGlyph>
    <TTGlyph name="Q" xMin="44" yMin="-200" xMax="672" yMax="640">
      <contour>
        <pt x="348" y="640" on="1"/>
        <pt x="413" y="640" on="0"/>
        <pt x="523" y="598" on="0"/>
        <pt x="603" y="516" on="0"/>
        <pt x="648" y="394" on="0"/>
        <pt x="648" y="315" on="1"/>
        <pt x="648" y="208" on="0"/>
        <pt x="558" y="56" on="0"/>
        <pt x="465" y="5" on="1"/>
        <pt x="335" y="-68" on="1"/>
        <pt x="362" y="-69" on="0"/>
        <pt x="410" y="-83" on="0"/>
        <pt x="460" y="-100" on="0"/>
        <pt x="513" y="-114" on="0"/>
        <pt x="546" y="-114" on="1"/>
        <pt x="568" y="-114" on="0"/>
        <pt x="614" y="-100" on="0"/>
        <pt x="632" y="-86" on="1"/>
        <pt x="672" y="-162" on="1"/>
        <pt x="648" y="-179" on="0"/>
        <pt x="580" y="-200" on="0"/>
        <pt x="545" y="-200" on="1"/>
        <pt x="507" y="-200" on="0"/>
        <pt x="437" y="-181" on="0"/>
        <pt x="369" y="-158" on="0"/>
        <pt x="304" y="-139" on="0"/>
        <pt x="271" y="-139" on="1"/>
        <pt x="243" y="-139" on="0"/>
        <pt x="194" y="-154" on="0"/>
        <pt x="168" y="-169" on="1"/>
        <pt x="127" y="-94" on="1"/>
        <pt x="284" y="-4" on="1"/>
        <pt x="230" y="5" on="0"/>
        <pt x="142" y="55" on="0"/>
        <pt x="79" y="135" on="0"/>
        <pt x="44" y="245" on="0"/>
        <pt x="44" y="315" on="1"/>
        <pt x="44" y="393" on="0"/>
        <pt x="90" y="514" on="0"/>
        <pt x="172" y="597" on="0"/>
        <pt x="283" y="640" on="0"/>
      </contour>
      <contour>
        <pt x="159" y="315" on="1"/>
        <pt x="159" y="254" on="0"/>
        <pt x="187" y="162" on="0"/>
        <pt x="235" y="101" on="0"/>
        <pt x="302" y="70" on="0"/>
        <pt x="341" y="70" on="1"/>
        <pt x="380" y="70" on="0"/>
        <pt x="450" y="102" on="0"/>
        <pt x="503" y="164" on="0"/>
        <pt x="533" y="255" on="0"/>
        <pt x="533" y="315" on="1"/>
        <pt x="533" y="378" on="0"/>
        <pt x="503" y="469" on="0"/>
        <pt x="452" y="528" on="0"/>
        <pt x="383" y="556" on="0"/>
        <pt x="344" y="556" on="1"/>
        <pt x="305" y="556" on="0"/>
        <pt x="237" y="527" on="0"/>
        <pt x="188" y="467" on="0"/>
        <pt x="159" y="376" on="0"/>
      </contour>
    </TTGlyph>
    <TTGlyph name="Qsmall" xMin="44" yMin="-127" xMax="557" yMax="480">
      <contour>
        <pt x="514" y="239" on="1"/>
        <pt x="514" y="186" on="0"/>
        <pt x="484" y="103" on="0"/>
        <pt x="434" y="42" on="0"/>
        <pt x="367" y="3" on="0"/>
        <pt x="330" y="-4" on="1"/>
        <pt x="330" y="-7" on="1"/>
        <pt x="346" y="-10" on="0"/>
        <pt x="375" y="-23" on="0"/>
        <pt x="405" y="-37" on="0"/>
        <pt x="439" y="-48" on="0"/>
        <pt x="461" y="-48" on="1"/>
        <pt x="487" y="-48" on="0"/>
        <pt x="516" y="-38" on="0"/>
        <pt x="530" y="-30" on="1"/>
        <pt x="557" y="-104" on="1"/>
        <pt x="543" y="-113" on="0"/>
        <pt x="495" y="-127" on="0"/>
        <pt x="466" y="-127" on="1"/>
        <pt x="431" y="-127" on="0"/>
        <pt x="376" y="-108" on="0"/>
        <pt x="328" y="-86" on="0"/>
        <pt x="280" y="-67" on="0"/>
        <pt x="251" y="-67" on="1"/>
        <pt x="216" y="-67" on="0"/>
        <pt x="166" y="-87" on="0"/>
        <pt x="143" y="-103" on="1"/>
        <pt x="106" y="-33" on="1"/>
        <pt x="124" y="-19" on="0"/>
        <pt x="172" y="0" on="0"/>
        <pt x="192" y="4" on="1"/>
        <pt x="192" y="7" on="1"/>
        <pt x="162" y="16" on="0"/>
        <pt x="108" y="56" on="0"/>
        <pt x="67" y="114" on="0"/>
        <pt x="44" y="190" on="0"/>
        <pt x="44" y="234" on="1"/>
        <pt x="44" y="293" on="0"/>
        <pt x="80" y="385" on="0"/>
        <pt x="144" y="448" on="0"/>
        <pt x="230" y="480" on="0"/>
        <pt x="280" y="480" on="1"/>
        <pt x="330" y="480" on="0"/>
        <pt x="415" y="449" on="0"/>
        <pt x="478" y="388" on="0"/>
        <pt x="514" y="298" on="0"/>
      </contour>
      <contour>
        <pt x="407" y="234" on="1"/>
        <pt x="407" y="279" on="0"/>
        <pt x="385" y="343" on="0"/>
        <pt x="349" y="383" on="0"/>
        <pt x="302" y="402" on="0"/>
        <pt x="277" y="402" on="1"/>
        <pt x="253" y="402" on="0"/>
        <pt x="207" y="387" on="0"/>
        <pt x="172" y="349" on="0"/>
        <pt x="151" y="287" on="0"/>
        <pt x="151" y="239" on="1"/>
        <pt x="151" y="195" on="0"/>
        <pt x="172" y="130" on="0"/>
        <pt x="208" y="88" on="0"/>
        <pt x="254" y="67" on="0"/>
        <pt x="279" y="67" on="1"/>
        <pt x="303" y="67" on="0"/>
        <pt x="349" y="83" on="0"/>
        <pt x="385" y="122" on="0"/>
        <pt x="407" y="186" on="0"/>
      </contour>
    </TTGlyph>
    <TTGlyph name="R" xMin="76" yMin="0" xMax="533" yMax="630">
      <contour>
        <pt x="76" y="630" on="1"/>
        <pt x="293" y="630" on="1"/>
        <pt x="343" y="630" on="0"/>
        <pt x="420" y="601" on="0"/>
        <pt x="472" y="550" on="0"/>
        <pt x="498" y="480" on="0"/>
        <pt x="498" y="439" on="1"/>
        <pt x="498" y="402" on="0"/>
        <pt x="475" y="344" on="0"/>
        <pt x="439" y="301" on="0"/>
        <pt x="394" y="270" on="0"/>
        <pt x="371" y="261" on="1"/>
        <pt x="533" y="0" on="1"/>
        <pt x="412" y="0" on="1"/>
        <pt x="273" y="242" on="1"/>
        <pt x="180" y="242" on="1"/>
        <pt x="180" y="0" on="1"/>
        <pt x="76" y="0" on="1"/>
      </contour>
      <contour>
        <pt x="180" y="327" on="1"/>
        <pt x="248" y="327" on="1"/>
        <pt x="278" y="327" on="0"/>
        <pt x="328" y="339" on="0"/>
        <pt x="366" y="365" on="0"/>
        <pt x="387" y="406" on="0"/>
        <pt x="387" y="435" on="1"/>
        <pt x="387" y="491" on="0"/>
        <pt x="323" y="546" on="0"/>
        <pt x="263" y="546" on="1"/>
        <pt x="180" y="546" on="1"/>
      </contour>
    </TTGlyph>
    <TTGlyph name="R.alt" xMin="76" yMin="0" xMax="533" yMax="630">
      <contour>
        <pt x="76" y="630" on="1"/>
        <pt x="293" y="630" on="1"/>
        <pt x="343" y="630" on="0"/>
        <pt x="420" y="601" on="0"/>
        <pt x="472" y="550" on="0"/>
        <pt x="498" y="480" on="0"/>
        <pt x="498" y="439" on="1"/>
        <pt x="498" y="402" on="0"/>
        <pt x="475" y="344" on="0"/>
        <pt x="439" y="301" on="0"/>
        <pt x="394" y="270" on="0"/>
        <pt x="371" y="261" on="1"/>
        <pt x="533" y="0" on="1"/>
        <pt x="412" y="0" on="1"/>
        <pt x="273" y="242" on="1"/>
        <pt x="180" y="242" on="1"/>
        <pt x="180" y="0" on="1"/>
        <pt x="76" y="0" on="1"/>
      </contour>
      <contour>
        <pt x="180" y="327" on="1"/>
        <pt x="248" y="327" on="1"/>
        <pt x="278" y="327" on="0"/>
        <pt x="328" y="339" on="0"/>
        <pt x="366" y="365" on="0"/>
        <pt x="387" y="406" on="0"/>
        <pt x="387" y="435" on="1"/>
        <pt x="387" y="491" on="0"/>
        <pt x="323" y="546" on="0"/>
        <pt x="263" y="546" on="1"/>
        <pt x="180" y="546" on="1"/>
      </contour>
    </TTGlyph>
    <TTGlyph name="Racute" xMin="76" yMin="0" xMax="533" yMax="829">
      <contour>
        <pt x="76" y="630" on="1"/>
        <pt x="293" y="630" on="1"/>
        <pt x="343" y="630" on="0"/>
        <pt x="420" y="601" on="0"/>
        <pt x="472" y="550" on="0"/>
        <pt x="498" y="480" on="0"/>
        <pt x="498" y="439" on="1"/>
        <pt x="498" y="402" on="0"/>
        <pt x="475" y="344" on="0"/>
        <pt x="439" y="301" on="0"/>
        <pt x="394" y="270" on="0"/>
        <pt x="371" y="261" on="1"/>
        <pt x="533" y="0" on="1"/>
        <pt x="412" y="0" on="1"/>
        <pt x="273" y="242" on="1"/>
        <pt x="180" y="242" on="1"/>
        <pt x="180" y="0" on="1"/>
        <pt x="76" y="0" on="1"/>
      </contour>
      <contour>
        <pt x="180" y="327" on="1"/>
        <pt x="248" y="327" on="1"/>
        <pt x="278" y="327" on="0"/>
        <pt x="328" y="339" on="0"/>
        <pt x="366" y="365" on="0"/>
        <pt x="387" y="406" on="0"/>
        <pt x="387" y="435" on="1"/>
        <pt x="387" y="491" on="0"/>
        <pt x="323" y="546" on="0"/>
        <pt x="263" y="546" on="1"/>
        <pt x="180" y="546" on="1"/>
      </contour>
      <contour>
        <pt x="273" y="705" on="1"/>
        <pt x="189" y="705" on="1"/>
        <pt x="269" y="829" on="1"/>
        <pt x="385" y="829" on="1"/>
      </contour>
    </TTGlyph>
    <TTGlyph name="Rcaron" xMin="76" yMin="0" xMax="533" yMax="837">
      <contour>
        <pt x="76" y="630" on="1"/>
        <pt x="293" y="630" on="1"/>
        <pt x="343" y="630" on="0"/>
        <pt x="420" y="601" on="0"/>
        <pt x="472" y="550" on="0"/>
        <pt x="498" y="480" on="0"/>
        <pt x="498" y="439" on="1"/>
        <pt x="498" y="402" on="0"/>
        <pt x="475" y="344" on="0"/>
        <pt x="439" y="301" on="0"/>
        <pt x="394" y="270" on="0"/>
        <pt x="371" y="261" on="1"/>
        <pt x="533" y="0" on="1"/>
        <pt x="412" y="0" on="1"/>
        <pt x="273" y="242" on="1"/>
        <pt x="180" y="242" on="1"/>
        <pt x="180" y="0" on="1"/>
        <pt x="76" y="0" on="1"/>
      </contour>
      <contour>
        <pt x="180" y="327" on="1"/>
        <pt x="248" y="327" on="1"/>
        <pt x="278" y="327" on="0"/>
        <pt x="328" y="339" on="0"/>
        <pt x="366" y="365" on="0"/>
        <pt x="387" y="406" on="0"/>
        <pt x="387" y="435" on="1"/>
        <pt x="387" y="491" on="0"/>
        <pt x="323" y="546" on="0"/>
        <pt x="263" y="546" on="1"/>
        <pt x="180" y="546" on="1"/>
      </contour>
      <contour>
        <pt x="297" y="706" on="1"/>
        <pt x="218" y="706" on="1"/>
        <pt x="98" y="837" on="1"/>
        <pt x="185" y="837" on="1"/>
        <pt x="259" y="756" on="1"/>
        <pt x="333" y="837" on="1"/>
        <pt x="419" y="837" on="1"/>
      </contour>
    </TTGlyph>
    <TTGlyph name="Rcommaaccent" xMin="76" yMin="-323" xMax="533" yMax="630">
      <contour>
        <pt x="76" y="630" on="1"/>
        <pt x="293" y="630" on="1"/>
        <pt x="343" y="630" on="0"/>
        <pt x="420" y="601" on="0"/>
        <pt x="472" y="550" on="0"/>
        <pt x="498" y="480" on="0"/>
        <pt x="498" y="439" on="1"/>
        <pt x="498" y="402" on="0"/>
        <pt x="475" y="344" on="0"/>
        <pt x="439" y="301" on="0"/>
        <pt x="394" y="270" on="0"/>
        <pt x="371" y="261" on="1"/>
        <pt x="533" y="0" on="1"/>
        <pt x="412" y="0" on="1"/>
        <pt x="273" y="242" on="1"/>
        <pt x="180" y="242" on="1"/>
        <pt x="180" y="0" on="1"/>
        <pt x="76" y="0" on="1"/>
      </contour>
      <contour>
        <pt x="180" y="327" on="1"/>
        <pt x="248" y="327" on="1"/>
        <pt x="278" y="327" on="0"/>
        <pt x="328" y="339" on="0"/>
        <pt x="366" y="365" on="0"/>
        <pt x="387" y="406" on="0"/>
        <pt x="387" y="435" on="1"/>
        <pt x="387" y="491" on="0"/>
        <pt x="323" y="546" on="0"/>
        <pt x="263" y="546" on="1"/>
        <pt x="180" y="546" on="1"/>
      </contour>
      <contour>
        <pt x="277" y="-187" on="1"/>
        <pt x="259" y="-184" on="0"/>
        <pt x="224" y="-153" on="0"/>
        <pt x="224" y="-126" on="1"/>
        <pt x="224" y="-101" on="0"/>
        <pt x="257" y="-65" on="0"/>
        <pt x="286" y="-65" on="1"/>
        <pt x="298" y="-65" on="0"/>
        <pt x="324" y="-75" on="0"/>
        <pt x="345" y="-97" on="0"/>
        <pt x="359" y="-131" on="0"/>
        <pt x="359" y="-156" on="1"/>
        <pt x="359" y="-181" on="0"/>
        <pt x="342" y="-230" on="0"/>
        <pt x="312" y="-274" on="0"/>
        <pt x="271" y="-311" on="0"/>
        <pt x="248" y="-323" on="1"/>
        <pt x="221" y="-286" on="1"/>
        <pt x="248" y="-269" on="0"/>
        <pt x="292" y="-217" on="0"/>
        <pt x="295" y="-191" on="1"/>
      </contour>
    </TTGlyph>
    <TTGlyph name="Ring" xMin="26" yMin="700" xMax="225" yMax="871">
      <contour>
        <pt x="26" y="786" on="1"/>
        <pt x="26" y="830" on="0"/>
        <pt x="83" y="871" on="0"/>
        <pt x="125" y="871" on="1"/>
        <pt x="169" y="871" on="0"/>
        <pt x="225" y="831" on="0"/>
        <pt x="225" y="786" on="1"/>
        <pt x="225" y="741" on="0"/>
        <pt x="165" y="700" on="0"/>
        <pt x="125" y="700" on="1"/>
        <pt x="85" y="700" on="0"/>
        <pt x="26" y="743" on="0"/>
      </contour>
      <contour>
        <pt x="80" y="786" on="1"/>
        <pt x="80" y="763" on="0"/>
        <pt x="103" y="737" on="0"/>
        <pt x="125" y="737" on="1"/>
        <pt x="147" y="737" on="0"/>
        <pt x="171" y="763" on="0"/>
        <pt x="171" y="786" on="1"/>
        <pt x="171" y="808" on="0"/>
        <pt x="146" y="834" on="0"/>
        <pt x="125" y="834" on="1"/>
        <pt x="104" y="834" on="0"/>
        <pt x="80" y="808" on="0"/>
      </contour>
    </TTGlyph>
    <TTGlyph name="Rsmall" xMin="74" yMin="0" xMax="444" yMax="472">
      <contour>
        <pt x="74" y="472" on="1"/>
        <pt x="258" y="472" on="1"/>
        <pt x="292" y="472" on="0"/>
        <pt x="354" y="454" on="0"/>
        <pt x="400" y="418" on="0"/>
        <pt x="428" y="363" on="0"/>
        <pt x="428" y="326" on="1"/>
        <pt x="428" y="272" on="0"/>
        <pt x="377" y="204" on="0"/>
        <pt x="333" y="186" on="1"/>
        <pt x="444" y="0" on="1"/>
        <pt x="331" y="0" on="1"/>
        <pt x="247" y="165" on="1"/>
        <pt x="178" y="165" on="1"/>
        <pt x="178" y="0" on="1"/>
        <pt x="74" y="0" on="1"/>
      </contour>
      <contour>
        <pt x="177" y="242" on="1"/>
        <pt x="228" y="242" on="1"/>
        <pt x="271" y="242" on="0"/>
        <pt x="325" y="279" on="0"/>
        <pt x="325" y="320" on="1"/>
        <pt x="325" y="361" on="0"/>
        <pt x="274" y="394" on="0"/>
        <pt x="226" y="394" on="1"/>
        <pt x="177" y="394" on="1"/>
      </contour>
    </TTGlyph>
    <TTGlyph name="S" xMin="43" yMin="-10" xMax="474" yMax="640">
      <contour>
        <pt x="262" y="640" on="1"/>
        <pt x="365" y="640" on="0"/>
        <pt x="442" y="602" on="1"/>
        <pt x="417" y="517" on="1"/>
        <pt x="375" y="537" on="0"/>
        <pt x="304" y="556" on="0"/>
        <pt x="268" y="556" on="1"/>
        <pt x="214" y="556" on="0"/>
        <pt x="152" y="510" on="0"/>
        <pt x="152" y="469" on="1"/>
        <pt x="152" y="433" on="0"/>
        <pt x="200" y="391" on="0"/>
        <pt x="254" y="374" on="1"/>
        <pt x="316" y="354" on="1"/>
        <pt x="398" y="328" on="0"/>
        <pt x="474" y="235" on="0"/>
        <pt x="474" y="174" on="1"/>
        <pt x="474" y="133" on="0"/>
        <pt x="442" y="65" on="0"/>
        <pt x="383" y="17" on="0"/>
        <pt x="299" y="-10" on="0"/>
        <pt x="248" y="-10" on="1"/>
        <pt x="197" y="-10" on="0"/>
        <pt x="96" y="9" on="0"/>
        <pt x="48" y="32" on="1"/>
        <pt x="73" y="116" on="1"/>
        <pt x="116" y="95" on="0"/>
        <pt x="198" y="74" on="0"/>
        <pt x="243" y="74" on="1"/>
        <pt x="297" y="74" on="0"/>
        <pt x="365" y="120" on="0"/>
        <pt x="365" y="165" on="1"/>
        <pt x="365" y="197" on="0"/>
        <pt x="318" y="247" on="0"/>
        <pt x="250" y="269" on="1"/>
        <pt x="191" y="288" on="1"/>
        <pt x="122" y="311" on="0"/>
        <pt x="43" y="388" on="0"/>
        <pt x="43" y="457" on="1"/>
        <pt x="43" y="540" on="0"/>
        <pt x="155" y="640" on="0"/>
      </contour>
    </TTGlyph>
    <TTGlyph name="Sacute" xMin="43" yMin="-10" xMax="474" yMax="829">
      <contour>
        <pt x="262" y="640" on="1"/>
        <pt x="365" y="640" on="0"/>
        <pt x="442" y="602" on="1"/>
        <pt x="417" y="517" on="1"/>
        <pt x="375" y="537" on="0"/>
        <pt x="304" y="556" on="0"/>
        <pt x="268" y="556" on="1"/>
        <pt x="214" y="556" on="0"/>
        <pt x="152" y="510" on="0"/>
        <pt x="152" y="469" on="1"/>
        <pt x="152" y="433" on="0"/>
        <pt x="200" y="391" on="0"/>
        <pt x="254" y="374" on="1"/>
        <pt x="316" y="354" on="1"/>
        <pt x="398" y="328" on="0"/>
        <pt x="474" y="235" on="0"/>
        <pt x="474" y="174" on="1"/>
        <pt x="474" y="133" on="0"/>
        <pt x="442" y="65" on="0"/>
        <pt x="383" y="17" on="0"/>
        <pt x="299" y="-10" on="0"/>
        <pt x="248" y="-10" on="1"/>
        <pt x="197" y="-10" on="0"/>
        <pt x="96" y="9" on="0"/>
        <pt x="48" y="32" on="1"/>
        <pt x="73" y="116" on="1"/>
        <pt x="116" y="95" on="0"/>
        <pt x="198" y="74" on="0"/>
        <pt x="243" y="74" on="1"/>
        <pt x="297" y="74" on="0"/>
        <pt x="365" y="120" on="0"/>
        <pt x="365" y="165" on="1"/>
        <pt x="365" y="197" on="0"/>
        <pt x="318" y="247" on="0"/>
        <pt x="250" y="269" on="1"/>
        <pt x="191" y="288" on="1"/>
        <pt x="122" y="311" on="0"/>
        <pt x="43" y="388" on="0"/>
        <pt x="43" y="457" on="1"/>
        <pt x="43" y="540" on="0"/>
        <pt x="155" y="640" on="0"/>
      </contour>
      <contour>
        <pt x="255" y="705" on="1"/>
        <pt x="171" y="705" on="1"/>
        <pt x="251" y="829" on="1"/>
        <pt x="368" y="829" on="1"/>
      </contour>
    </TTGlyph>
    <TTGlyph name="Scaron" xMin="43" yMin="-10" xMax="474" yMax="837">
      <contour>
        <pt x="262" y="640" on="1"/>
        <pt x="365" y="640" on="0"/>
        <pt x="442" y="602" on="1"/>
        <pt x="417" y="517" on="1"/>
        <pt x="375" y="537" on="0"/>
        <pt x="304" y="556" on="0"/>
        <pt x="268" y="556" on="1"/>
        <pt x="214" y="556" on="0"/>
        <pt x="152" y="510" on="0"/>
        <pt x="152" y="469" on="1"/>
        <pt x="152" y="433" on="0"/>
        <pt x="200" y="391" on="0"/>
        <pt x="254" y="374" on="1"/>
        <pt x="316" y="354" on="1"/>
        <pt x="398" y="328" on="0"/>
        <pt x="474" y="235" on="0"/>
        <pt x="474" y="174" on="1"/>
        <pt x="474" y="133" on="0"/>
        <pt x="442" y="65" on="0"/>
        <pt x="383" y="17" on="0"/>
        <pt x="299" y="-10" on="0"/>
        <pt x="248" y="-10" on="1"/>
        <pt x="197" y="-10" on="0"/>
        <pt x="96" y="9" on="0"/>
        <pt x="48" y="32" on="1"/>
        <pt x="73" y="116" on="1"/>
        <pt x="116" y="95" on="0"/>
        <pt x="198" y="74" on="0"/>
        <pt x="243" y="74" on="1"/>
        <pt x="297" y="74" on="0"/>
        <pt x="365" y="120" on="0"/>
        <pt x="365" y="165" on="1"/>
        <pt x="365" y="197" on="0"/>
        <pt x="318" y="246" on="0"/>
        <pt x="250" y="269" on="1"/>
        <pt x="191" y="288" on="1"/>
        <pt x="122" y="311" on="0"/>
        <pt x="43" y="388" on="0"/>
        <pt x="43" y="457" on="1"/>
        <pt x="43" y="540" on="0"/>
        <pt x="155" y="640" on="0"/>
      </contour>
      <contour>
        <pt x="103" y="837" on="1"/>
        <pt x="190" y="837" on="1"/>
        <pt x="264" y="756" on="1"/>
        <pt x="338" y="837" on="1"/>
        <pt x="424" y="837" on="1"/>
        <pt x="302" y="706" on="1"/>
        <pt x="223" y="706" on="1"/>
      </contour>
    </TTGlyph>
    <TTGlyph name="Scedilla" xMin="43" yMin="-214" xMax="474" yMax="640">
      <contour>
        <pt x="262" y="640" on="1"/>
        <pt x="365" y="640" on="0"/>
        <pt x="442" y="602" on="1"/>
        <pt x="417" y="517" on="1"/>
        <pt x="375" y="537" on="0"/>
        <pt x="304" y="556" on="0"/>
        <pt x="268" y="556" on="1"/>
        <pt x="214" y="556" on="0"/>
        <pt x="152" y="510" on="0"/>
        <pt x="152" y="469" on="1"/>
        <pt x="152" y="433" on="0"/>
        <pt x="200" y="391" on="0"/>
        <pt x="254" y="374" on="1"/>
        <pt x="316" y="354" on="1"/>
        <pt x="398" y="328" on="0"/>
        <pt x="474" y="235" on="0"/>
        <pt x="474" y="174" on="1"/>
        <pt x="474" y="136" on="0"/>
        <pt x="447" y="73" on="0"/>
        <pt x="396" y="26" on="0"/>
        <pt x="325" y="-4" on="0"/>
        <pt x="280" y="-8" on="1"/>
        <pt x="263" y="-47" on="1"/>
        <pt x="313" y="-49" on="0"/>
        <pt x="356" y="-97" on="0"/>
        <pt x="356" y="-126" on="1"/>
        <pt x="356" y="-169" on="0"/>
        <pt x="287" y="-214" on="0"/>
        <pt x="235" y="-214" on="1"/>
        <pt x="212" y="-214" on="0"/>
        <pt x="171" y="-207" on="0"/>
        <pt x="159" y="-202" on="1"/>
        <pt x="172" y="-155" on="1"/>
        <pt x="197" y="-164" on="0"/>
        <pt x="226" y="-164" on="1"/>
        <pt x="287" y="-164" on="0"/>
        <pt x="287" y="-125" on="1"/>
        <pt x="287" y="-116" on="0"/>
        <pt x="280" y="-99" on="0"/>
        <pt x="259" y="-86" on="0"/>
        <pt x="223" y="-78" on="0"/>
        <pt x="193" y="-78" on="1"/>
        <pt x="224" y="-9" on="1"/>
        <pt x="179" y="-7" on="0"/>
        <pt x="90" y="12" on="0"/>
        <pt x="48" y="32" on="1"/>
        <pt x="73" y="116" on="1"/>
        <pt x="116" y="95" on="0"/>
        <pt x="198" y="74" on="0"/>
        <pt x="243" y="74" on="1"/>
        <pt x="297" y="74" on="0"/>
        <pt x="365" y="120" on="0"/>
        <pt x="365" y="165" on="1"/>
        <pt x="365" y="197" on="0"/>
        <pt x="318" y="247" on="0"/>
        <pt x="250" y="269" on="1"/>
        <pt x="191" y="288" on="1"/>
        <pt x="122" y="311" on="0"/>
        <pt x="43" y="388" on="0"/>
        <pt x="43" y="457" on="1"/>
        <pt x="43" y="540" on="0"/>
        <pt x="155" y="640" on="0"/>
      </contour>
    </TTGlyph>
    <TTGlyph name="Scircumflex" xMin="43" yMin="-10" xMax="474" yMax="836">
      <contour>
        <pt x="262" y="640" on="1"/>
        <pt x="365" y="640" on="0"/>
        <pt x="442" y="602" on="1"/>
        <pt x="417" y="517" on="1"/>
        <pt x="375" y="537" on="0"/>
        <pt x="304" y="556" on="0"/>
        <pt x="268" y="556" on="1"/>
        <pt x="214" y="556" on="0"/>
        <pt x="152" y="510" on="0"/>
        <pt x="152" y="469" on="1"/>
        <pt x="152" y="433" on="0"/>
        <pt x="200" y="391" on="0"/>
        <pt x="254" y="374" on="1"/>
        <pt x="316" y="354" on="1"/>
        <pt x="398" y="328" on="0"/>
        <pt x="474" y="235" on="0"/>
        <pt x="474" y="174" on="1"/>
        <pt x="474" y="133" on="0"/>
        <pt x="442" y="65" on="0"/>
        <pt x="383" y="17" on="0"/>
        <pt x="299" y="-10" on="0"/>
        <pt x="248" y="-10" on="1"/>
        <pt x="197" y="-10" on="0"/>
        <pt x="96" y="9" on="0"/>
        <pt x="48" y="32" on="1"/>
        <pt x="73" y="116" on="1"/>
        <pt x="116" y="95" on="0"/>
        <pt x="198" y="74" on="0"/>
        <pt x="243" y="74" on="1"/>
        <pt x="297" y="74" on="0"/>
        <pt x="365" y="120" on="0"/>
        <pt x="365" y="165" on="1"/>
        <pt x="365" y="197" on="0"/>
        <pt x="318" y="247" on="0"/>
        <pt x="250" y="269" on="1"/>
        <pt x="191" y="288" on="1"/>
        <pt x="122" y="311" on="0"/>
        <pt x="43" y="388" on="0"/>
        <pt x="43" y="457" on="1"/>
        <pt x="43" y="540" on="0"/>
        <pt x="155" y="640" on="0"/>
      </contour>
      <contour>
        <pt x="217" y="836" on="1"/>
        <pt x="296" y="836" on="1"/>
        <pt x="418" y="705" on="1"/>
        <pt x="331" y="705" on="1"/>
        <pt x="256" y="784" on="1"/>
        <pt x="181" y="705" on="1"/>
        <pt x="97" y="705" on="1"/>
      </contour>
    </TTGlyph>
    <TTGlyph name="Scommaaccent" xMin="43" yMin="-323" xMax="474" yMax="640">
      <contour>
        <pt x="262" y="640" on="1"/>
        <pt x="365" y="640" on="0"/>
        <pt x="442" y="602" on="1"/>
        <pt x="417" y="517" on="1"/>
        <pt x="375" y="537" on="0"/>
        <pt x="304" y="556" on="0"/>
        <pt x="268" y="556" on="1"/>
        <pt x="214" y="556" on="0"/>
        <pt x="152" y="510" on="0"/>
        <pt x="152" y="469" on="1"/>
        <pt x="152" y="433" on="0"/>
        <pt x="200" y="391" on="0"/>
        <pt x="254" y="374" on="1"/>
        <pt x="316" y="354" on="1"/>
        <pt x="398" y="328" on="0"/>
        <pt x="474" y="235" on="0"/>
        <pt x="474" y="174" on="1"/>
        <pt x="474" y="133" on="0"/>
        <pt x="442" y="65" on="0"/>
        <pt x="383" y="17" on="0"/>
        <pt x="299" y="-10" on="0"/>
        <pt x="248" y="-10" on="1"/>
        <pt x="197" y="-10" on="0"/>
        <pt x="96" y="9" on="0"/>
        <pt x="48" y="32" on="1"/>
        <pt x="73" y="116" on="1"/>
        <pt x="116" y="95" on="0"/>
        <pt x="198" y="74" on="0"/>
        <pt x="243" y="74" on="1"/>
        <pt x="297" y="74" on="0"/>
        <pt x="365" y="120" on="0"/>
        <pt x="365" y="165" on="1"/>
        <pt x="365" y="197" on="0"/>
        <pt x="318" y="247" on="0"/>
        <pt x="250" y="269" on="1"/>
        <pt x="191" y="288" on="1"/>
        <pt x="122" y="311" on="0"/>
        <pt x="43" y="388" on="0"/>
        <pt x="43" y="457" on="1"/>
        <pt x="43" y="540" on="0"/>
        <pt x="155" y="640" on="0"/>
      </contour>
      <contour>
        <pt x="232" y="-187" on="1"/>
        <pt x="214" y="-184" on="0"/>
        <pt x="179" y="-153" on="0"/>
        <pt x="179" y="-126" on="1"/>
        <pt x="179" y="-101" on="0"/>
        <pt x="212" y="-65" on="0"/>
        <pt x="241" y="-65" on="1"/>
        <pt x="253" y="-65" on="0"/>
        <pt x="279" y="-75" on="0"/>
        <pt x="300" y="-97" on="0"/>
        <pt x="314" y="-131" on="0"/>
        <pt x="314" y="-156" on="1"/>
        <pt x="314" y="-181" on="0"/>
        <pt x="297" y="-230" on="0"/>
        <pt x="267" y="-274" on="0"/>
        <pt x="226" y="-311" on="0"/>
        <pt x="203" y="-323" on="1"/>
        <pt x="176" y="-286" on="1"/>
        <pt x="204" y="-269" on="0"/>
        <pt x="247" y="-217" on="0"/>
        <pt x="250" y="-191" on="1"/>
      </contour>
    </TTGlyph>
    <TTGlyph name="Ssmall" xMin="41" yMin="-10" xMax="387" yMax="480">
      <contour>
        <pt x="343" y="376" on="1"/>
        <pt x="311" y="391" on="0"/>
        <pt x="256" y="404" on="0"/>
        <pt x="228" y="404" on="1"/>
        <pt x="186" y="404" on="0"/>
        <pt x="143" y="373" on="0"/>
        <pt x="143" y="347" on="1"/>
        <pt x="143" y="336" on="0"/>
        <pt x="150" y="319" on="0"/>
        <pt x="168" y="304" on="0"/>
        <pt x="200" y="291" on="0"/>
        <pt x="225" y="284" on="1"/>
        <pt x="255" y="275" on="1"/>
        <pt x="321" y="255" on="0"/>
        <pt x="387" y="191" on="0"/>
        <pt x="387" y="137" on="1"/>
        <pt x="387" y="71" on="0"/>
        <pt x="287" y="-10" on="0"/>
        <pt x="200" y="-10" on="1"/>
        <pt x="153" y="-10" on="0"/>
        <pt x="72" y="7" on="0"/>
        <pt x="41" y="22" on="1"/>
        <pt x="64" y="100" on="1"/>
        <pt x="93" y="86" on="0"/>
        <pt x="160" y="68" on="0"/>
        <pt x="195" y="68" on="1"/>
        <pt x="237" y="68" on="0"/>
        <pt x="285" y="98" on="0"/>
        <pt x="285" y="129" on="1"/>
        <pt x="285" y="158" on="0"/>
        <pt x="243" y="183" on="0"/>
        <pt x="198" y="197" on="1"/>
        <pt x="167" y="206" on="1"/>
        <pt x="104" y="227" on="0"/>
        <pt x="42" y="289" on="0"/>
        <pt x="42" y="343" on="1"/>
        <pt x="42" y="374" on="0"/>
        <pt x="68" y="424" on="0"/>
        <pt x="114" y="460" on="0"/>
        <pt x="179" y="480" on="0"/>
        <pt x="218" y="480" on="1"/>
        <pt x="256" y="480" on="0"/>
        <pt x="332" y="466" on="0"/>
        <pt x="365" y="451" on="1"/>
      </contour>
    </TTGlyph>
    <TTGlyph name="T" xMin="10" yMin="0" xMax="494" yMax="630">
      <contour>
        <pt x="494" y="630" on="1"/>
        <pt x="494" y="542" on="1"/>
        <pt x="304" y="542" on="1"/>
        <pt x="304" y="0" on="1"/>
        <pt x="197" y="0" on="1"/>
        <pt x="197" y="542" on="1"/>
        <pt x="10" y="542" on="1"/>
        <pt x="10" y="630" on="1"/>
      </contour>
    </TTGlyph>
</ttFont>
